<?xml version="1.0" standalone="no"?>
<!DOCTYPE svg PUBLIC "-//W3C//DTD SVG 1.1//EN" "http://www.w3.org/Graphics/SVG/1.1/DTD/svg11.dtd" >
<svg>
<metadata>
Created by FontForge 20090914 at Fri Feb 24 13:30:36 2012
 By root
Copyright (c) 2004-2009 by American Philological Association. This Font Software is licensed under the SIL Open Font License, Version 1.1 (http://scripts.sil.org/OFL).
</metadata>
<defs>
<font id="NewAthenaUnicode" horiz-adv-x="0" >
  <font-face 
    font-family="New Athena Unicode"
    font-weight="400"
    font-stretch="normal"
    units-per-em="1000"
    panose-1="2 0 5 3 0 0 0 2 0 3"
    ascent="800"
    descent="-200"
    x-height="416"
    cap-height="662"
    bbox="-576 -406.571 1433 1001"
    underline-thickness="56"
    underline-position="-40"
    unicode-range="U+000D-U+1D516"
  />
<missing-glyph horiz-adv-x="750" 
d="M125 0v625h500v-625h-500zM141 16h468v593h-468v-593z" />
    <glyph glyph-name="Agrave" unicode="A&#x300;" horiz-adv-x="640" 
d="M223 744q-31 27 -31 46q0 29 31 29q25 0 57 -60l53 -98h-18zM289 517l-110 -266h220zM170 230l-35 -84q-17 -42 -17 -68q0 -25 18 -41t46 -16h4v-21h-186v21q49 8 72 42l10 16.5t8 17.5l8 18.5t12 30.5q6 13 23 54l181 434h18l229 -542q15 -39 32 -54q15 -13 53 -17v-21
h-247v21h26q52 0 52 34q0 8 -11 34l-58 141h-238z" />
    <glyph glyph-name="Aacute" unicode="A&#x301;" horiz-adv-x="643" 
d="M333 660h-19l54 89q33 55 58 55q29 0 29 -28q0 -18 -30 -41l-9 -6zM289 517l-110 -266h220zM170 230l-35 -84q-17 -42 -17 -68q0 -25 18 -41t46 -16h4v-21h-186v21q49 8 72 42l10 16.5t8 17.5l8 18.5t12 30.5q6 13 23 54l181 434h18l229 -542q15 -39 32 -54
q15 -13 53 -17v-21h-247v21h26q52 0 52 34q0 8 -11 34l-58 141h-238z" />
    <glyph glyph-name="Acircumflex" unicode="A&#x302;" horiz-adv-x="643" 
d="M206 623h-33l118 157h58l118 -157h-32l-115 97zM289 517l-110 -266h220zM170 230l-35 -84q-17 -42 -17 -68q0 -25 18 -41t46 -16h4v-21h-186v21q49 8 72 42l10 16.5t8 17.5l8 18.5t12 30.5q6 13 23 54l181 434h18l229 -542q15 -39 32 -54q15 -13 53 -17v-21h-247v21h26
q52 0 52 34q0 8 -11 34l-58 141h-238z" />
    <glyph glyph-name="Atilde" unicode="A&#x303;" horiz-adv-x="643" 
d="M481 753q-8 -37 -33 -68q-28 -34 -67 -34q-28 0 -74.5 24t-65.5 24q-36 0 -54 -47h-23l-1 3q8 41 32 67q29 32 65 32q29 0 76 -23.5t66 -23.5q35 0 53 49h23l3 -3v0zM289 517l-110 -266h220zM170 230l-35 -84q-17 -42 -17 -68q0 -25 18 -41t46 -16h4v-21h-186v21
q49 8 72 42l10 16.5t8 17.5l8 18.5t12 30.5q6 13 23 54l181 434h18l229 -542q15 -39 32 -54q15 -13 53 -17v-21h-247v21h26q52 0 52 34q0 8 -11 34l-58 141h-238z" />
    <glyph glyph-name="Adieresis" unicode="A&#x308;" horiz-adv-x="643" 
d="M239 746q15 0 25.5 -10.5t10.5 -24.5q0 -16 -10 -28t-25 -12q-16 0 -27 11.5t-11 27.5q0 15 11 25.5t26 10.5zM407 745q15 0 25.5 -11t10.5 -26t-10.5 -26t-24.5 -11q-16 0 -27.5 11.5t-11.5 26.5t11 25.5t27 10.5zM289 517l-110 -266h220zM170 230l-35 -84
q-17 -42 -17 -68q0 -25 18 -41t46 -16h4v-21h-186v21q49 8 72 42l10 16.5t8 17.5l8 18.5t12 30.5q6 13 23 54l181 434h18l229 -542q15 -39 32 -54q15 -13 53 -17v-21h-247v21h26q52 0 52 34q0 8 -11 34l-58 141h-238z" />
    <glyph glyph-name="Aring" unicode="A&#x30a;" horiz-adv-x="646" 
d="M319 828q19 0 35 -7.5t28.5 -19t19.5 -27.5t7 -34q0 -17 -6.5 -32.5t-18.5 -27.5t-28 -18.5t-33 -6.5q-18 0 -35 6.5t-28.5 18.5t-18.5 27.5t-7 32.5q0 19 6.5 34.5t18.5 27.5t27.5 19t32.5 7zM320 802q-25 0 -42 -17.5t-17 -44.5q0 -24 17.5 -41.5t42.5 -17.5t42.5 16.5
t17.5 39.5q0 28 -18 46.5t-43 18.5zM289 517l-110 -266h220zM170 230l-35 -84q-17 -42 -17 -68q0 -25 18 -41t46 -16h4v-21h-186v21q49 8 72 42l10 16.5t8 17.5l8 18.5t12 30.5q6 13 23 54l181 434h18l229 -542q15 -39 32 -54q15 -13 53 -17v-21h-247v21h26q52 0 52 34
q0 8 -11 34l-58 141h-238z" />
    <glyph glyph-name="Ccedilla" unicode="C&#x327;" horiz-adv-x="669" 
d="M636 244v-227h-20q-9 38 -30 69q-71 -77 -173 -92l-10 -28q12 4 27 4q46 0 65 -26q3 -4 8 -14q6 -5 6 -26q0 -16 -11 -37q-28 -42 -104 -42q-9 0 -22 2q-17 2 -23 2l-36 11l13 29l8 -2q38 -9 49 -9q33 0 46 14q9 9 9 30t-19 27q-7 5 -15 5q-18 2 -43 -5l-6 6l23 56
q-9 -1 -18 -1q-138 0 -227 89t-89 230q0 157 88 257q86 98 226 98q85 0 153 -38q48 -27 75 -59q9 21 15.5 42t8.5 43h21v-247h-15q-19 115 -73 170q-65 64 -166 64q-108 0 -165 -85.5t-57 -245.5q0 -131 63 -211.5t166 -80.5q21 0 43 3.5t43 11.5t38.5 19t30.5 23
q29 28 54 85q19 42 23 86h20z" />
    <glyph glyph-name="Egrave" unicode="E&#x300;" horiz-adv-x="576" 
d="M163 739q-31 25 -31 42q0 27 31 27q25 0 57 -55l53 -89h-18zM561 194l-14 -194h-517v21h12q57 0 69.5 21t12.5 120v307q0 96 -12 115q-10 20 -62 20h-8v21h448l14 -156h-22q-19 79 -47 105q-33 30 -97 30h-125v-263h66q61 0 77 15q18 16 18 71v8h22v-214h-22v8
q0 58 -18 74q-16 16 -74 16h-69v-147q0 -116 17 -134q15 -17 75 -17h46q81 0 122 41q44 45 66 132h22z" />
    <glyph glyph-name="Eacute" unicode="E&#x301;" horiz-adv-x="576" 
d="M310 666h-18l53 89q33 55 58 55q29 0 29 -28q0 -18 -30 -41zM561 194l-14 -194h-517v21h12q57 0 69.5 21t12.5 120v307q0 96 -12 115q-10 20 -62 20h-8v21h448l14 -156h-22q-19 79 -47 105q-33 30 -97 30h-125v-263h66q61 0 77 15q18 16 18 71v8h22v-214h-22v8
q0 58 -18 74q-16 16 -74 16h-69v-147q0 -116 17 -134q15 -17 75 -17h46q81 0 122 41q44 45 66 132h22z" />
    <glyph glyph-name="Ecircumflex" unicode="E&#x302;" horiz-adv-x="576" 
d="M188 658h-33l117 157h59l118 -157h-32l-115 97zM561 194l-14 -194h-517v21h12q57 0 69.5 21t12.5 120v307q0 96 -12 115q-10 20 -62 20h-8v21h448l14 -156h-22q-19 79 -47 105q-33 30 -97 30h-125v-263h66q61 0 77 15q18 16 18 71v8h22v-214h-22v8q0 58 -18 74
q-16 16 -74 16h-69v-147q0 -116 17 -134q15 -17 75 -17h46q81 0 122 41q44 45 66 132h22z" />
    <glyph glyph-name="Edieresis" unicode="E&#x308;" horiz-adv-x="576" 
d="M213 745q16 0 26.5 -10t10.5 -25q0 -16 -10.5 -27.5t-25.5 -11.5q-16 0 -27 11t-11 27t11 26t26 10zM381 744q15 0 26 -10.5t11 -25.5q0 -16 -10.5 -26.5t-25.5 -10.5q-16 0 -27.5 11t-11.5 26q0 16 11 26t27 10zM561 194l-14 -194h-517v21h12q57 0 69.5 21t12.5 120v307
q0 96 -12 115q-10 20 -62 20h-8v21h448l14 -156h-22q-19 79 -47 105q-33 30 -97 30h-125v-263h66q61 0 77 15q18 16 18 71v8h22v-214h-22v8q0 58 -18 74q-16 16 -74 16h-69v-147q0 -116 17 -134q15 -17 75 -17h46q81 0 122 41q44 45 66 132h22z" />
    <glyph glyph-name="Igrave" unicode="I&#x300;" horiz-adv-x="331" 
d="M80 739q-31 25 -31 42q0 27 31 27q25 0 57 -55l53 -89h-18zM24 625h287v-21h-15h-26t-14 -1q-22 -4 -32 -20q-12 -20 -12 -114v-307q0 -99 12 -120t68 -21h19v-21h-287v21h18q56 0 67 21q13 21 13 120v307q0 96 -11 114q-10 16 -33 20q-3 1 -14 1h-26h-14v21z" />
    <glyph glyph-name="Iacute" unicode="I&#x301;" horiz-adv-x="333" 
d="M176 668h-18l53 90q34 55 58 55q29 0 29 -28q0 -18 -30 -41zM24 625h287v-21h-15h-26t-14 -1q-22 -4 -32 -20q-12 -20 -12 -114v-307q0 -99 12 -120t68 -21h19v-21h-287v21h18q56 0 67 21q13 21 13 120v307q0 96 -11 114q-10 16 -33 20q-3 1 -14 1h-26h-14v21z" />
    <glyph glyph-name="Icircumflex" unicode="I&#x302;" horiz-adv-x="331" 
d="M55 656h-33l118 157h58l118 -157h-32l-115 97zM24 625h287v-21h-15h-26t-14 -1q-22 -4 -32 -20q-12 -20 -12 -114v-307q0 -99 12 -120t68 -21h19v-21h-287v21h18q56 0 67 21q13 21 13 120v307q0 96 -11 114q-10 16 -33 20q-3 1 -14 1h-26h-14v21z" />
    <glyph glyph-name="Idieresis" unicode="I&#x308;" horiz-adv-x="331" 
d="M85 747q15 0 26 -10.5t11 -24.5q0 -16 -10.5 -28t-25.5 -12q-16 0 -27 11.5t-11 27.5q0 15 11 25.5t26 10.5zM253 746q15 0 26 -11t11 -26t-10.5 -26t-25.5 -11q-16 0 -27.5 11.5t-11.5 26.5t11 25.5t27 10.5zM24 625h287v-21h-15h-26t-14 -1q-22 -4 -32 -20
q-12 -20 -12 -114v-307q0 -99 12 -120t68 -21h19v-21h-287v21h18q56 0 67 21q13 21 13 120v307q0 96 -11 114q-10 16 -33 20q-3 1 -14 1h-26h-14v21z" />
    <glyph glyph-name="Ntilde" unicode="N&#x303;" horiz-adv-x="708" 
d="M532 760q-8 -38 -32 -69q-29 -33 -68 -33q-28 0 -74 23.5t-66 23.5q-36 0 -54 -46h-23l-1 3q8 40 33 67q28 32 65 32q28 0 75 -24t66 -24q35 0 53 50h23l3 -3v0zM142 571h-2v-464q0 -47 24 -66.5t85 -19.5v-21h-233v21q67 4 84 24t17 93v331q0 93 -13 114t-75 21h-5v21
h184l368 -489h2v373q0 28 -5 46t-17 28.5t-32.5 15.5t-51.5 5v21h226v-21q-58 -5 -78 -26q-19 -20 -19 -75v-516h-20z" />
    <glyph glyph-name="Ograve" unicode="O&#x300;" horiz-adv-x="769" 
d="M290 736q-30 24 -30 41q0 28 30 28q25 0 57 -55l53 -89h-18zM159 313q0 -125 41 -201q18 -32 50 -57q58 -44 149 -44q108 0 168 77.5t60 217.5q0 151 -60 229t-175 78t-174 -77t-59 -223zM53 317q0 141 94 229q96 90 245 90q33 0 67 -5.5t65.5 -16.5t59 -26.5t50.5 -35.5
q99 -88 99 -254q0 -133 -96 -221q-95 -87 -239 -87q-155 0 -251 89q-94 89 -94 238z" />
    <glyph glyph-name="Oacute" unicode="O&#x301;" horiz-adv-x="769" 
d="M407 664h-18l53 89q34 55 58 55q29 0 29 -28q0 -18 -30 -41zM159 313q0 -125 41 -201q18 -32 50 -57q58 -44 149 -44q108 0 168 77.5t60 217.5q0 151 -60 229t-175 78t-174 -77t-59 -223zM53 317q0 141 94 229q96 90 245 90q33 0 67 -5.5t65.5 -16.5t59 -26.5t50.5 -35.5
q99 -88 99 -254q0 -133 -96 -221q-95 -87 -239 -87q-155 0 -251 89q-94 89 -94 238z" />
    <glyph glyph-name="Ocircumflex" unicode="O&#x302;" horiz-adv-x="769" 
d="M287 658h-33l118 157h58l118 -157h-32l-115 97zM159 313q0 -125 41 -201q18 -32 50 -57q58 -44 149 -44q108 0 168 77.5t60 217.5q0 151 -60 229t-175 78t-174 -77t-59 -223zM53 317q0 141 94 229q96 90 245 90q33 0 67 -5.5t65.5 -16.5t59 -26.5t50.5 -35.5
q99 -88 99 -254q0 -133 -96 -221q-95 -87 -239 -87q-155 0 -251 89q-94 89 -94 238z" />
    <glyph glyph-name="Otilde" unicode="O&#x303;" horiz-adv-x="766" 
d="M559 766q-9 -38 -33 -69q-28 -33 -68 -33q-28 0 -74 23.5t-65 23.5q-37 0 -55 -46h-22l-1 2q8 41 32 67q28 33 65 33q28 0 75 -24t66 -24q35 0 53 50h24l3 -3v0zM159 313q0 -125 41 -201q18 -32 50 -57q58 -44 149 -44q108 0 168 77.5t60 217.5q0 151 -60 229t-175 78
t-174 -77t-59 -223zM53 317q0 141 94 229q96 90 245 90q33 0 67 -5.5t65.5 -16.5t59 -26.5t50.5 -35.5q99 -88 99 -254q0 -133 -96 -221q-95 -87 -239 -87q-155 0 -251 89q-94 89 -94 238z" />
    <glyph glyph-name="Odieresis" unicode="O&#x308;" horiz-adv-x="766" 
d="M302 747q15 0 26 -10t11 -25q0 -16 -10.5 -27.5t-25.5 -11.5q-16 0 -27 11t-11 27t11 26t26 10zM470 746q15 0 26 -10.5t11 -26.5q0 -15 -10.5 -25.5t-25.5 -10.5q-16 0 -27.5 11t-11.5 26q0 16 11 26t27 10zM159 313q0 -125 41 -201q18 -32 50 -57q58 -44 149 -44
q108 0 168 77.5t60 217.5q0 151 -60 229t-175 78t-174 -77t-59 -223zM53 317q0 141 94 229q96 90 245 90q33 0 67 -5.5t65.5 -16.5t59 -26.5t50.5 -35.5q99 -88 99 -254q0 -133 -96 -221q-95 -87 -239 -87q-155 0 -251 89q-94 89 -94 238z" />
    <glyph glyph-name="Ugrave" unicode="U&#x300;" horiz-adv-x="727" 
d="M280 736q-30 24 -30 41q0 28 30 28q26 0 57 -55l54 -89h-18zM708 625v-21q-49 -4 -70.5 -25.5t-21.5 -70.5v-292q0 -107 -53 -158q-70 -68 -198 -68q-157 0 -217 90q-33 49 -31 133v256q1 95 -11 114q-8 15 -32 20q-4 1 -14 1h-27h-14v21h285v-21h-12q-35 0 -40 -1
q-23 -4 -33 -20q-11 -20 -11 -114v-252q0 -123 63 -165q47 -32 116 -32q71 0 127 34q56 36 70 90q8 31 8 69q0 1 0.5 19.5t0.5 35.5v212q0 75 -17 96q-17 24 -78 28v21h210z" />
    <glyph glyph-name="Uacute" unicode="U&#x301;" horiz-adv-x="727" 
d="M404 659h-18l53 89q34 55 58 55q29 0 29 -28q0 -18 -30 -41l-9 -6zM708 625v-21q-49 -4 -70.5 -25.5t-21.5 -70.5v-292q0 -107 -53 -158q-70 -68 -198 -68q-157 0 -217 90q-33 49 -31 133v256q1 95 -11 114q-8 15 -32 20q-4 1 -14 1h-27h-14v21h285v-21h-12q-35 0 -40 -1
q-23 -4 -33 -20q-11 -20 -11 -114v-252q0 -123 63 -165q47 -32 116 -32q71 0 127 34q56 36 70 90q8 31 8 69q0 1 0.5 19.5t0.5 35.5v212q0 75 -17 96q-17 24 -78 28v21h210z" />
    <glyph glyph-name="Ucircumflex" unicode="U&#x302;" horiz-adv-x="727" 
d="M274 661h-32l117 157h59l118 -157h-32l-115 97zM708 625v-21q-49 -4 -70.5 -25.5t-21.5 -70.5v-292q0 -107 -53 -158q-70 -68 -198 -68q-157 0 -217 90q-33 49 -31 133v256q1 95 -11 114q-8 15 -32 20q-4 1 -14 1h-27h-14v21h285v-21h-12q-35 0 -40 -1q-23 -4 -33 -20
q-11 -20 -11 -114v-252q0 -123 63 -165q47 -32 116 -32q71 0 127 34q56 36 70 90q8 31 8 69q0 1 0.5 19.5t0.5 35.5v212q0 75 -17 96q-17 24 -78 28v21h210z" />
    <glyph glyph-name="Udieresis" unicode="U&#x308;" horiz-adv-x="727" 
d="M313 746q15 0 25.5 -10.5t10.5 -24.5q0 -16 -10 -28t-26 -12t-27 11.5t-11 27.5q0 15 11 25.5t27 10.5zM480 745q16 0 26.5 -11t10.5 -26t-10.5 -26t-25.5 -11q-16 0 -27.5 11.5t-11.5 26.5t11 25.5t27 10.5zM708 625v-21q-49 -4 -70.5 -25.5t-21.5 -70.5v-292
q0 -107 -53 -158q-70 -68 -198 -68q-157 0 -217 90q-33 49 -31 133v256q1 95 -11 114q-8 15 -32 20q-4 1 -14 1h-27h-14v21h285v-21h-12q-35 0 -40 -1q-23 -4 -33 -20q-11 -20 -11 -114v-252q0 -123 63 -165q47 -32 116 -32q71 0 127 34q56 36 70 90q8 31 8 69q0 1 0.5 19.5
t0.5 35.5v212q0 75 -17 96q-17 24 -78 28v21h210z" />
    <glyph glyph-name="Yacute" unicode="Y&#x301;" horiz-adv-x="639" 
d="M292 661l54 90q32 55 58 55q29 0 29 -28q0 -17 -30 -41l-91 -76h-20zM494 506q14 22 14 46q0 52 -69 52h-4v21h204v-21q-42 -8 -70 -34q-26 -24 -65 -91l-140 -234v-83q0 -99 11 -120q13 -21 68 -21h9v-21h-266v21h9q57 0 68 21q12 21 12 120v78l-182 297q-25 41 -42 53
q-15 13 -51 14v21h253v-21h-5q-66 0 -66 -32q0 -14 24 -52l149 -247z" />
    <glyph glyph-name="agrave" unicode="a&#x300;" horiz-adv-x="467" 
d="M131 541q-30 24 -30 41q0 27 30 27q26 0 57 -54l54 -90h-18zM244 222q-125 -51 -125 -120q0 -70 60 -70q43 0 119 62v150zM458 81q-5 -81 -82 -81q-65 0 -78 68q-99 -68 -161 -68q-42 0 -70 23t-28 58q0 52 67 95q48 31 116 61l76 30v20q0 61 -20 84.5t-72 23.5
q-73 0 -80 -44l-2 -11q-9 -44 -42 -44q-28 0 -28 29q0 35 47 63q48 28 113 28q121 0 147 -75q7 -17 7 -65v-189q0 -54 32 -54q31 0 40 48h18z" />
    <glyph glyph-name="aacute" unicode="a&#x301;" horiz-adv-x="467" 
d="M247 465h-18l53 90q33 54 58 54q29 0 29 -27q0 -18 -30 -41zM244 222q-125 -51 -125 -120q0 -70 60 -70q43 0 119 62v150zM458 81q-5 -81 -82 -81q-65 0 -78 68q-99 -68 -161 -68q-42 0 -70 23t-28 58q0 52 67 95q48 31 116 61l76 30v20q0 61 -20 84.5t-72 23.5
q-73 0 -80 -44l-2 -11q-9 -44 -42 -44q-28 0 -28 29q0 35 47 63q48 28 113 28q121 0 147 -75q7 -17 7 -65v-189q0 -54 32 -54q31 0 40 48h18z" />
    <glyph glyph-name="acircumflex" unicode="a&#x302;" horiz-adv-x="467" 
d="M118 465h-33l118 158h58l118 -158h-32l-115 98zM244 222q-125 -51 -125 -120q0 -70 60 -70q43 0 119 62v150zM458 81q-5 -81 -82 -81q-65 0 -78 68q-99 -68 -161 -68q-42 0 -70 23t-28 58q0 52 67 95q48 31 116 61l76 30v20q0 61 -20 84.5t-72 23.5q-73 0 -80 -44l-2 -11
q-9 -44 -42 -44q-28 0 -28 29q0 35 47 63q48 28 113 28q121 0 147 -75q7 -17 7 -65v-189q0 -54 32 -54q31 0 40 48h18z" />
    <glyph glyph-name="atilde" unicode="a&#x303;" horiz-adv-x="467" 
d="M387 567q-9 -37 -33 -68q-28 -34 -67 -34q-29 0 -75 24t-65 24q-37 0 -55 -47h-22l-1 3q8 41 32 67q28 32 65 32q28 0 75.5 -23.5t66.5 -23.5q34 0 52 49h24zM244 222q-125 -51 -125 -120q0 -70 60 -70q43 0 119 62v150zM458 81q-5 -81 -82 -81q-65 0 -78 68
q-99 -68 -161 -68q-42 0 -70 23t-28 58q0 52 67 95q48 31 116 61l76 30v20q0 61 -20 84.5t-72 23.5q-73 0 -80 -44l-2 -11q-9 -44 -42 -44q-28 0 -28 29q0 35 47 63q48 28 113 28q121 0 147 -75q7 -17 7 -65v-189q0 -54 32 -54q31 0 40 48h18z" />
    <glyph glyph-name="adieresis" unicode="a&#x308;" horiz-adv-x="467" 
d="M133 540q15 0 26 -10.5t11 -24.5q0 -16 -10.5 -28t-25.5 -12q-16 0 -27 11.5t-11 27.5q0 15 11 25.5t26 10.5zM301 539q15 0 26 -11t11 -26t-10.5 -26t-25.5 -11q-16 0 -27.5 11.5t-11.5 26.5t11 25.5t27 10.5zM244 222q-125 -51 -125 -120q0 -70 60 -70q43 0 119 62v150
zM458 81q-5 -81 -82 -81q-65 0 -78 68q-99 -68 -161 -68q-42 0 -70 23t-28 58q0 52 67 95q48 31 116 61l76 30v20q0 61 -20 84.5t-72 23.5q-73 0 -80 -44l-2 -11q-9 -44 -42 -44q-28 0 -28 29q0 35 47 63q48 28 113 28q121 0 147 -75q7 -17 7 -65v-189q0 -54 32 -54
q31 0 40 48h18z" />
    <glyph glyph-name="aring" unicode="a&#x30a;" horiz-adv-x="467" 
d="M185 637q19 0 35 -7t28 -18.5t19 -28t7 -33.5t-6.5 -33t-18 -27.5t-27 -18t-34.5 -6.5q-17 0 -33.5 6.5t-28.5 18t-19 27.5t-7 33q0 18 6.5 34t18.5 28t27.5 18.5t32.5 6.5zM186 612q-25 0 -42 -18t-17 -44q0 -25 17.5 -42.5t42.5 -17.5t42.5 16.5t17.5 40.5q0 27 -18 46
t-43 19zM244 222q-125 -51 -125 -120q0 -70 60 -70q43 0 119 62v150zM458 81q-5 -81 -82 -81q-65 0 -78 68q-99 -68 -161 -68q-42 0 -70 23t-28 58q0 52 67 95q48 31 116 61l76 30v20q0 61 -20 84.5t-72 23.5q-73 0 -80 -44l-2 -11q-9 -44 -42 -44q-28 0 -28 29q0 35 47 63
q48 28 113 28q121 0 147 -75q7 -17 7 -65v-189q0 -54 32 -54q31 0 40 48h18z" />
    <glyph glyph-name="ccedilla" unicode="c&#x327;" horiz-adv-x="419" 
d="M404 112q-30 -96 -128 -110l-13 -36q11 4 28 4q45 0 63 -26q4 -4 9 -14q6 -5 6 -26q0 -16 -11 -37q-28 -42 -104 -42q-9 0 -22 2q-17 2 -23 2l-36 11l13 29l8 -2q38 -9 49 -9q33 0 47 14q8 9 8 30t-19 27q-8 5 -15 5q-18 2 -42 -5l-7 6l27 64h-4q-86 0 -145 59
q-58 58 -58 133q0 98 60 161q60 64 152 64q55 0 97 -24q42 -23 42 -54q0 -34 -30 -34q-36 0 -40 31l-2 13q-8 45 -67 45q-130 0 -130 -183q0 -81 38 -137q34 -49 108 -49q92 0 119 88h22z" />
    <glyph glyph-name="egrave" unicode="e&#x300;" horiz-adv-x="414" 
d="M140 541q-31 24 -31 41q0 27 31 27q25 0 57 -54l53 -90h-18zM314 284q1 5 1 10v10q0 42 -23.5 66.5t-63.5 24.5q-89 0 -105 -111h191zM121 265l-1 -9q-1 -5 -1 -13v-21q0 -115 46 -162q35 -35 85 -35q88 0 126 80h23q-16 -48 -60.5 -76.5t-102.5 -28.5q-85 0 -142 60
t-57 136q0 95 55 157q55 63 137 63q73 0 120 -43q49 -42 50 -108h-278z" />
    <glyph glyph-name="eacute" unicode="e&#x301;" horiz-adv-x="414" 
d="M225 465h-19l54 90q33 54 57 54q30 0 30 -27q0 -18 -31 -41zM314 284q1 5 1 10v10q0 42 -23.5 66.5t-63.5 24.5q-89 0 -105 -111h191zM121 265l-1 -9q-1 -5 -1 -13v-21q0 -115 46 -162q35 -35 85 -35q88 0 126 80h23q-16 -48 -60.5 -76.5t-102.5 -28.5q-85 0 -142 60
t-57 136q0 95 55 157q55 63 137 63q73 0 120 -43q49 -42 50 -108h-278z" />
    <glyph glyph-name="ecircumflex" unicode="e&#x302;" horiz-adv-x="414" 
d="M117 465h-33l118 158h58l118 -158h-32l-115 98zM314 284q1 5 1 10v10q0 42 -23.5 66.5t-63.5 24.5q-89 0 -105 -111h191zM121 265l-1 -9q-1 -5 -1 -13v-21q0 -115 46 -162q35 -35 85 -35q88 0 126 80h23q-16 -48 -60.5 -76.5t-102.5 -28.5q-85 0 -142 60t-57 136
q0 95 55 157q55 63 137 63q73 0 120 -43q49 -42 50 -108h-278z" />
    <glyph glyph-name="edieresis" unicode="e&#x308;" horiz-adv-x="414" 
d="M140 540q15 0 25.5 -10.5t10.5 -24.5q0 -16 -10 -28t-25 -12q-16 0 -27 11.5t-11 27.5q0 15 11 25.5t26 10.5zM308 539q15 0 25.5 -11t10.5 -26t-10.5 -26t-24.5 -11q-17 0 -28 11.5t-11 26.5t11 25.5t27 10.5zM314 284q1 5 1 10v10q0 42 -23.5 66.5t-63.5 24.5
q-89 0 -105 -111h191zM121 265l-1 -9q-1 -5 -1 -13v-21q0 -115 46 -162q35 -35 85 -35q88 0 126 80h23q-16 -48 -60.5 -76.5t-102.5 -28.5q-85 0 -142 60t-57 136q0 95 55 157q55 63 137 63q73 0 120 -43q49 -42 50 -108h-278z" />
    <glyph glyph-name="igrave" unicode="i&#x300;" horiz-adv-x="248" 
d="M38 541q-30 24 -30 41q0 27 30 27q25 0 57 -54l53 -90h-18zM160 136q0 -81 7 -94q10 -19 51 -19h11v-23h-214v23h16q36 0 47.5 11t11.5 50v172q0 77 -10 94q-9 16 -52 16h-13v23q42 5 75 10.5t59 16.5h11v-280z" />
    <glyph glyph-name="iacute" unicode="i&#x301;" horiz-adv-x="248" 
d="M99 465h-19l54 90q33 54 57 54q30 0 30 -27q0 -18 -31 -41zM160 136q0 -81 7 -94q10 -19 51 -19h11v-23h-214v23h16q36 0 47.5 11t11.5 50v172q0 77 -10 94q-9 16 -52 16h-13v23q42 5 75 10.5t59 16.5h11v-280z" />
    <glyph glyph-name="icircumflex" unicode="i&#x302;" horiz-adv-x="254" 
d="M14 465h-33l118 158h59l117 -158h-31l-116 98zM160 136q0 -81 7 -94q10 -19 51 -19h11v-23h-214v23h16q36 0 47.5 11t11.5 50v172q0 77 -10 94q-9 16 -52 16h-13v23q42 5 75 10.5t59 16.5h11v-280z" />
    <glyph glyph-name="idieresis" unicode="i&#x308;" horiz-adv-x="251" 
d="M48 540q15 0 26 -10.5t11 -24.5q0 -16 -10.5 -28t-25.5 -12q-16 0 -27 11.5t-11 27.5q0 15 11 25.5t26 10.5zM216 539q15 0 26 -11t11 -26t-10.5 -26t-25.5 -11q-16 0 -27.5 11.5t-11.5 26.5t11 25.5t27 10.5zM160 136q0 -81 7 -94q10 -19 51 -19h11v-23h-214v23h16
q36 0 47.5 11t11.5 50v172q0 77 -10 94q-9 16 -52 16h-13v23q42 5 75 10.5t59 16.5h11v-280z" />
    <glyph glyph-name="ntilde" unicode="n&#x303;" horiz-adv-x="500" 
d="M143 393q4 -16 7.5 -35t4.5 -44q65 79 145 79q86 0 110 -65q9 -24 9 -43v-156q0 -77 6 -89q11 -19 51 -19h5v-21h-193v21h9q34 0 45 11t11 48v203q0 80 -79 80q-65 0 -119 -80v-154q0 -79 6 -89q12 -19 50 -19h6v-21h-191v21h7q34 0 45 11t11 48v162q0 80 -6 90
q-9 18 -50 18h-7v21q54 6 95 19l9 3h13zM386 567q-9 -37 -33 -68q-28 -34 -67 -34q-29 0 -75 24t-65 24q-37 0 -55 -47h-22l-1 3q8 41 32 67q28 32 65 32q28 0 75.5 -23.5t66.5 -23.5q34 0 52 49h24l3 -3v0z" />
    <glyph glyph-name="ograve" unicode="o&#x300;" horiz-adv-x="497" 
d="M149 541q-30 24 -30 41q0 27 30 27q26 0 58 -54l53 -90h-16zM117 198q0 -178 131 -178q69 0 100.5 46t31.5 132q0 195 -132 195q-131 0 -131 -195zM35 201q0 92 61 153q62 62 152 62t152 -62t62 -153q0 -81 -61 -142q-60 -60 -153 -60q-92 0 -153 60q-60 61 -60 142z" />
    <glyph glyph-name="oacute" unicode="o&#x301;" horiz-adv-x="497" 
d="M255 465h-18l54 90q33 54 57 54q29 0 29 -27q0 -18 -30 -41zM117 198q0 -178 131 -178q69 0 100.5 46t31.5 132q0 195 -132 195q-131 0 -131 -195zM35 201q0 92 61 153q62 62 152 62t152 -62t62 -153q0 -81 -61 -142q-60 -60 -153 -60q-92 0 -153 60q-60 61 -60 142z" />
    <glyph glyph-name="ocircumflex" unicode="o&#x302;" horiz-adv-x="497" 
d="M132 465h-33l118 158h58l118 -158h-32l-115 98zM117 198q0 -178 131 -178q69 0 100.5 46t31.5 132q0 195 -132 195q-131 0 -131 -195zM35 201q0 92 61 153q62 62 152 62t152 -62t62 -153q0 -81 -61 -142q-60 -60 -153 -60q-92 0 -153 60q-60 61 -60 142z" />
    <glyph glyph-name="otilde" unicode="o&#x303;" horiz-adv-x="497" 
d="M409 567q-8 -37 -33 -68q-28 -34 -67 -34q-28 0 -74.5 24t-65.5 24q-36 0 -54 -47h-23l-1 3q8 41 33 67q28 32 64 32q29 0 76 -23.5t66 -23.5q35 0 53 49h23zM117 198q0 -178 131 -178q69 0 100.5 46t31.5 132q0 195 -132 195q-131 0 -131 -195zM35 201q0 92 61 153
q62 62 152 62t152 -62t62 -153q0 -81 -61 -142q-60 -60 -153 -60q-92 0 -153 60q-60 61 -60 142z" />
    <glyph glyph-name="odieresis" unicode="o&#x308;" horiz-adv-x="497" 
d="M160 540q15 0 25.5 -10.5t10.5 -24.5q0 -16 -10 -28t-25 -12q-16 0 -27 11.5t-11 27.5q0 15 11 25.5t26 10.5zM328 539q15 0 25.5 -11t10.5 -26t-10.5 -26t-24.5 -11q-16 0 -27.5 11.5t-11.5 26.5t11 25.5t27 10.5zM117 198q0 -178 131 -178q69 0 100.5 46t31.5 132
q0 195 -132 195q-131 0 -131 -195zM35 201q0 92 61 153q62 62 152 62t152 -62t62 -153q0 -81 -61 -142q-60 -60 -153 -60q-92 0 -153 60q-60 61 -60 142z" />
    <glyph glyph-name="ugrave" unicode="u&#x300;" horiz-adv-x="537" 
d="M168 541q-30 24 -30 41q0 27 30 27q25 0 57 -54l53 -90h-18zM453 156q0 -90 7 -100q11 -21 53 -21h4v-23h-10q-62 0 -104 -16h-5q-16 27 -16 96h-2q-62 -96 -162 -96q-41 0 -75 21.5t-43 54.5q-7 23 -7 72v130q0 85 -8 98q-11 21 -55 21h-6v23h141v-276q0 -61 18 -85.5
t63 -24.5q57 0 102 53q22 27 28 51q5 15 5 57v83q0 85 -8 98q-11 21 -55 21h-10v23h145v-260z" />
    <glyph glyph-name="uacute" unicode="u&#x301;" horiz-adv-x="537" 
d="M238 465h-18l53 90q34 54 58 54q29 0 29 -27q0 -18 -30 -41zM453 156q0 -90 7 -100q11 -21 53 -21h4v-23h-10q-62 0 -104 -16h-5q-16 27 -16 96h-2q-62 -96 -162 -96q-41 0 -75 21.5t-43 54.5q-7 23 -7 72v130q0 85 -8 98q-11 21 -55 21h-6v23h141v-276q0 -61 18 -85.5
t63 -24.5q57 0 102 53q22 27 28 51q5 15 5 57v83q0 85 -8 98q-11 21 -55 21h-10v23h145v-260z" />
    <glyph glyph-name="ucircumflex" unicode="u&#x302;" horiz-adv-x="537" 
d="M111 465h-32l117 158h59l118 -158h-32l-115 98zM453 156q0 -90 7 -100q11 -21 53 -21h4v-23h-10q-62 0 -104 -16h-5q-16 27 -16 96h-2q-62 -96 -162 -96q-41 0 -75 21.5t-43 54.5q-7 23 -7 72v130q0 85 -8 98q-11 21 -55 21h-6v23h141v-276q0 -61 18 -85.5t63 -24.5
q57 0 102 53q22 27 28 51q5 15 5 57v83q0 85 -8 98q-11 21 -55 21h-10v23h145v-260z" />
    <glyph glyph-name="udieresis" unicode="u&#x308;" horiz-adv-x="537" 
d="M153 540q15 0 25.5 -10.5t10.5 -24.5q0 -16 -10 -28t-25 -12q-16 0 -27 11.5t-11 27.5q0 15 11 25.5t26 10.5zM321 539q15 0 25.5 -11t10.5 -26t-10.5 -26t-24.5 -11q-16 0 -27.5 11.5t-11.5 26.5t11 25.5t27 10.5zM453 156q0 -90 7 -100q11 -21 53 -21h4v-23h-10
q-62 0 -104 -16h-5q-16 27 -16 96h-2q-62 -96 -162 -96q-41 0 -75 21.5t-43 54.5q-7 23 -7 72v130q0 85 -8 98q-11 21 -55 21h-6v23h141v-276q0 -61 18 -85.5t63 -24.5q57 0 102 53q22 27 28 51q5 15 5 57v83q0 85 -8 98q-11 21 -55 21h-10v23h145v-260z" />
    <glyph glyph-name="yacute" unicode="y&#x301;" horiz-adv-x="435" 
d="M344 310q7 13 7 23q0 22 -51 23v21h132v-21q-30 -2 -44 -16t-36 -67l-168 -403q-24 -56 -41.5 -78t-41.5 -22q-30 0 -30 27q0 30 48 53q28 13 37 22q9 7 18 31l36 90l-141 301q-18 42 -31 51t-41 11v21h172v-21q-46 -2 -46 -19q0 -8 9 -26l112 -240zM220 465l53 90
q33 54 58 54q29 0 29 -27q0 -17 -30 -41l-91 -76h-19z" />
    <glyph glyph-name="ydieresis" unicode="y&#x308;" horiz-adv-x="435" 
d="M344 310q7 14 7 23q0 21 -51 23v21h132v-21q-30 -2 -44 -16q-15 -15 -36 -67l-168 -404q-24 -56 -41.5 -78t-41.5 -22q-30 0 -30 27q0 30 48 53q27 12 37 22q8 7 18 31l36 90l-141 302q-19 41 -31 51q-14 10 -42 11v21h173v-21q-46 -2 -46 -19q0 -7 9 -26l112 -240z
M138 540q15 0 25.5 -10.5t10.5 -24.5q0 -16 -10 -28t-25 -12q-16 0 -27 11.5t-11 27.5q0 15 11 25.5t26 10.5zM306 539q15 0 25.5 -11t10.5 -26t-10.5 -26t-24.5 -11q-16 0 -27.5 11.5t-11.5 26.5t11 25.5t27 10.5z" />
    <glyph glyph-name="Amacron" unicode="A&#x304;" horiz-adv-x="648" 
d="M189 714h282v-42h-282v42zM289 517l-110 -266h220zM170 230l-35 -84q-17 -42 -17 -68q0 -25 18 -41t46 -16h4v-21h-186v21q49 8 72 42l10 16.5t8 17.5l8 18.5t12 30.5q6 13 23 54l181 434h18l229 -542q15 -39 32 -54q15 -13 53 -17v-21h-247v21h26q52 0 52 34q0 8 -11 34
l-58 141h-238z" />
    <glyph glyph-name="amacron" unicode="a&#x304;" horiz-adv-x="467" 
d="M56 517h282v-42h-282v42zM244 222q-125 -51 -125 -120q0 -70 60 -70q43 0 119 62v150zM458 81q-5 -81 -82 -81q-65 0 -78 68q-99 -68 -161 -68q-42 0 -70 23t-28 58q0 52 67 95q48 31 116 61l76 30v20q0 61 -20 84.5t-72 23.5q-73 0 -80 -44l-2 -11q-9 -44 -42 -44
q-28 0 -28 29q0 35 47 63q48 28 113 28q121 0 147 -75q7 -17 7 -65v-189q0 -54 32 -54q31 0 40 48h18z" />
    <glyph glyph-name="Abreve" unicode="A&#x306;" horiz-adv-x="646" 
d="M431 777q-3 -51 -27 -85q-28 -36 -77 -36q-63 0 -90 55q-14 28 -16 66l4 3h19q6 -34 27 -55q22 -22 56 -22q32 0 55 22q21 21 26 55h20l3 -3v0zM289 517l-110 -266h220zM170 230l-35 -84q-17 -42 -17 -68q0 -25 18 -41t46 -16h4v-21h-186v21q49 8 72 42l10 16.5t8 17.5
l8 18.5t12 30.5q6 13 23 54l181 434h18l229 -542q15 -39 32 -54q15 -13 53 -17v-21h-247v21h26q52 0 52 34q0 8 -11 34l-58 141h-238z" />
    <glyph glyph-name="abreve" unicode="a&#x306;" horiz-adv-x="467" 
d="M361 627q-3 -64 -32 -106q-36 -46 -98 -46q-78 0 -112 70q-17 35 -19 82l4 4h24q7 -42 34 -69q28 -28 69 -28t69 28q27 27 33 69h25zM244 222q-125 -51 -125 -120q0 -70 60 -70q43 0 119 62v150zM458 81q-5 -81 -82 -81q-65 0 -78 68q-99 -68 -161 -68q-42 0 -70 23
t-28 58q0 52 67 95q48 31 116 61l76 30v20q0 61 -20 84.5t-72 23.5q-73 0 -80 -44l-2 -11q-9 -44 -42 -44q-28 0 -28 29q0 35 47 63q48 28 113 28q121 0 147 -75q7 -17 7 -65v-189q0 -54 32 -54q31 0 40 48h18z" />
    <glyph glyph-name="Aogonek" unicode="A&#x328;" horiz-adv-x="639" 
d="M637 -82q-59 -53 -107 -53q-25 0 -42.5 17.5t-17.5 43.5q0 47 43 74h-114v21h26q52 0 52 34q0 8 -11 34l-58 141h-238l-35 -84q-17 -42 -17 -68q0 -25 18 -41t46 -16h4v-21h-186v21q49 8 72 42l10 16.5t8 17.5l8 18l215 519h19l229 -542q15 -39 32 -54q15 -13 53 -17v-21
h-97q-35 -28 -35 -58q0 -16 11.5 -27t27.5 -11q35 0 69 33zM289 517l-110 -266h220z" />
    <glyph glyph-name="aogonek" unicode="a&#x328;" horiz-adv-x="467" 
d="M458 81q-5 -81 -82 -81q-11 0 -20 2q-24 -24 -24 -49q0 -16 11 -27t27 -11q35 0 69 33l15 -19q-58 -53 -107 -53q-25 0 -42.5 17.5t-17.5 43.5q0 47 44 74q-26 17 -33 57q-99 -68 -161 -68q-42 0 -70 23t-28 58q0 52 67 95q48 31 116 61l76 30v20q0 61 -20 84.5t-72 23.5
q-73 0 -80 -44l-2 -11q-9 -44 -42 -44q-28 0 -28 29q0 35 47 63q48 28 113 28q121 0 147 -75q7 -17 7 -65v-189q0 -54 32 -54q31 0 40 48h18zM244 222q-125 -51 -125 -120q0 -70 60 -70q43 0 119 62v150z" />
    <glyph glyph-name="Cacute" unicode="C&#x301;" horiz-adv-x="669" 
d="M362 664h-18l53 89q34 55 58 55q29 0 29 -28q0 -18 -30 -41zM609 234v-218h-19q-9 37 -29 66q-84 -92 -216 -92t-218 86q-85 85 -85 220q0 150 84 246q83 94 217 94q81 0 146 -36q46 -26 72 -57q9 20 15 40t8 42h20v-237h-14q-18 110 -70 163q-62 61 -159 61
q-103 0 -158 -82t-55 -235q0 -125 60.5 -202.5t159.5 -77.5q20 0 41 3.5t41 11t37 18t29 22.5q28 27 52 81q18 41 22 83h19z" />
    <glyph glyph-name="cacute" unicode="c&#x301;" horiz-adv-x="419" 
d="M243 465h-18l53 90q34 54 58 54q29 0 29 -27q0 -18 -30 -41zM404 113q-35 -113 -166 -113q-86 0 -145 59q-58 58 -58 132q0 98 60 161q60 64 152 64q55 0 97 -24q42 -23 42 -54q0 -34 -30 -34q-36 0 -40 31l-2 13q-8 45 -67 45q-130 0 -130 -183q0 -80 38 -136
q34 -49 108 -49q92 0 119 88h22z" />
    <glyph glyph-name="Ccircumflex" unicode="C&#x302;" horiz-adv-x="669" 
d="M247 655h-33l118 158h59l117 -158h-31l-116 97zM609 234v-218h-19q-9 37 -29 66q-84 -92 -216 -92t-218 86q-85 85 -85 220q0 150 84 246q83 94 218 94q80 0 145 -36q46 -26 72 -57q9 20 15 40t8 42h20v-237h-14q-18 110 -70 163q-62 61 -159 61q-103 0 -158 -82
t-55 -235q0 -125 60.5 -202.5t159.5 -77.5q20 0 41 3.5t41 11t37 18t29 22.5q28 27 52 81q18 41 22 83h19z" />
    <glyph glyph-name="ccircumflex" unicode="c&#x302;" horiz-adv-x="419" 
d="M97 465h-33l118 158h59l117 -158h-31l-116 98zM404 113q-35 -113 -166 -113q-86 0 -145 59q-58 58 -58 132q0 98 60 161q60 64 152 64q55 0 97 -24q42 -23 42 -54q0 -34 -30 -34q-36 0 -40 31l-2 13q-8 45 -67 45q-130 0 -130 -183q0 -80 38 -136q34 -49 108 -49
q92 0 119 88h22z" />
    <glyph glyph-name="Cdotaccent" unicode="C&#x307;" horiz-adv-x="669" 
d="M346 664q-21 0 -36 14.5t-15 36.5q0 21 15 36t36 15q22 0 36.5 -14.5t14.5 -36.5t-15 -36.5t-36 -14.5zM609 234v-218h-19q-9 37 -29 66q-84 -92 -216 -92t-218 86q-85 85 -85 220q0 150 84 246q83 94 217 94q81 0 146 -36q46 -26 72 -57q9 20 15 40t8 42h20v-237h-14
q-18 110 -70 163q-62 61 -159 61q-103 0 -158 -82t-55 -235q0 -125 60.5 -202.5t159.5 -77.5q20 0 41 3.5t41 11t37 18t29 22.5q28 27 52 81q18 41 22 83h19z" />
    <glyph glyph-name="cdotaccent" unicode="c&#x307;" horiz-adv-x="419" 
d="M218 465q-21 0 -36 15t-15 37q0 20 15 35t36 15q22 0 36.5 -14.5t14.5 -35.5q0 -22 -15 -37t-36 -15zM404 113q-35 -113 -166 -113q-86 0 -145 59q-58 58 -58 132q0 98 60 161q60 64 152 64q55 0 97 -24q42 -23 42 -54q0 -34 -30 -34q-36 0 -40 31l-2 13q-8 45 -67 45
q-130 0 -130 -183q0 -80 38 -136q34 -49 108 -49q92 0 119 88h22z" />
    <glyph glyph-name="Ccaron" unicode="C&#x30c;" horiz-adv-x="669" 
d="M460 812h31l-115 -151h-58l-115 151h32l112 -93zM609 234v-218h-19q-9 37 -29 66q-84 -92 -216 -92t-218 86q-85 85 -85 220q0 150 84 246q83 94 217 94q81 0 146 -36q46 -26 72 -57q9 20 15 40t8 42h20v-237h-14q-18 110 -70 163q-62 61 -159 61q-103 0 -158 -82
t-55 -235q0 -125 60.5 -202.5t159.5 -77.5q20 0 41 3.5t41 11t37 18t29 22.5q28 27 52 81q18 41 22 83h19z" />
    <glyph glyph-name="ccaron" unicode="c&#x30c;" horiz-adv-x="419" 
d="M334 622h32l-118 -157h-59l-117 157h32l115 -96zM404 113q-35 -113 -166 -113q-86 0 -145 59q-58 58 -58 132q0 98 60 161q60 64 152 64q55 0 97 -24q42 -23 42 -54q0 -34 -30 -34q-36 0 -40 31l-2 13q-8 45 -67 45q-130 0 -130 -183q0 -80 38 -136q34 -49 108 -49
q92 0 119 88h22z" />
    <glyph glyph-name="Dcaron" unicode="D&#x30c;" horiz-adv-x="716" 
d="M473 821h31l-117 -157h-59l-118 157h33l114 -96zM214 189q0 -43 0.5 -70.5t1.5 -37.5q1 -20 11 -36q14 -24 85 -24q39 0 70 4.5t55.5 14.5t43 25t34.5 37q54 76 54 198q0 67 -15 122t-44 95t-71 63t-96 27q-6 1 -19 1h-32q-24 0 -43.5 -0.5t-34.5 -1.5v-417zM201 628
q57 3 97 3q177 0 269 -78q102 -87 102 -241q0 -124 -56 -200.5t-164 -100.5q-53 -11 -89 -11h-341v21h26q56 0 67 21q13 21 13 120v302q0 94 -12 113q-10 16 -33 20q-4 1 -39 1h-20v22z" />
    <glyph glyph-name="dcaron" unicode="d&#x30c;" horiz-adv-x="607" 
d="M471 449v17q45 10 74.5 33.5t29.5 50.5q0 22 -20 22h-9l-7 -3h-4h-5q-20 0 -33.5 8.5t-13.5 21.5q0 34 48 34q31 0 51.5 -20t20.5 -50q0 -40 -36 -72t-96 -42zM376 329q-68 56 -130 56q-129 0 -129 -182q0 -76 35 -126t96 -50q74 0 128 70v232zM376 514q0 82 -7 95
q-11 20 -53 20h-10v22q61 1 129 21h11v-524q0 -86 6 -96q10 -19 53 -19h7v-21l-7 -1q-65 0 -119 -12q-6 28 -6 61v10q-74 -71 -156 -71q-72 0 -129 58q-59 62 -59 145q0 91 56 153q57 61 142 61q77 0 142 -59v157z" />
    <glyph glyph-name="Emacron" unicode="E&#x304;" horiz-adv-x="576" 
d="M426 724v-42h-281v42h281zM561 194l-14 -194h-517v21h12q57 0 69.5 21t12.5 120v307q0 96 -12 115q-10 20 -62 20h-8v21h448l14 -156h-22q-19 79 -47 105q-33 30 -97 30h-125v-263h66q61 0 77 15q18 16 18 71v8h22v-214h-22v8q0 58 -18 74q-16 16 -74 16h-69v-147
q0 -116 17 -134q15 -17 75 -17h46q81 0 122 41q44 45 66 132h22z" />
    <glyph glyph-name="emacron" unicode="e&#x304;" horiz-adv-x="414" 
d="M80 517h282v-42h-282v42zM314 284q1 5 1 10v10q0 42 -23.5 66.5t-63.5 24.5q-89 0 -105 -111h191zM121 265l-1 -9q-1 -5 -1 -13v-21q0 -115 46 -162q35 -35 85 -35q88 0 126 80h23q-16 -48 -60.5 -76.5t-102.5 -28.5q-85 0 -142 60t-57 136q0 95 55 157q55 63 137 63
q73 0 120 -43q49 -42 50 -108h-278z" />
    <glyph glyph-name="Ebreve" unicode="E&#x306;" horiz-adv-x="576" 
d="M363 805q-3 -58 -29 -94q-32 -42 -88 -42q-70 0 -100 62q-16 34 -18 74l4 4h22q7 -38 30 -61q25 -26 62 -26t63 26q23 23 29 61h22zM561 194l-14 -194h-517v21h12q57 0 69.5 21t12.5 120v307q0 96 -12 115q-10 20 -62 20h-8v21h448l14 -156h-22q-19 79 -47 105
q-33 30 -97 30h-125v-263h66q61 0 77 15q18 16 18 71v8h22v-214h-22v8q0 58 -18 74q-16 16 -74 16h-69v-147q0 -116 17 -134q15 -17 75 -17h46q81 0 122 41q44 45 66 132h22z" />
    <glyph glyph-name="ebreve" unicode="e&#x306;" horiz-adv-x="414" 
d="M359 627q-3 -64 -32 -106q-35 -46 -98 -46q-78 0 -112 70q-17 35 -19 82l4 4h24q7 -42 34 -69q28 -28 69 -28t69 28q27 27 33 69h25zM314 284q1 5 1 10v10q0 42 -23.5 66.5t-63.5 24.5q-89 0 -105 -111h191zM121 265l-1 -9q-1 -5 -1 -13v-21q0 -115 46 -162
q35 -35 85 -35q88 0 126 80h23q-16 -48 -60.5 -76.5t-102.5 -28.5q-85 0 -142 60t-57 136q0 95 55 157q55 63 137 63q73 0 120 -43q49 -42 50 -108h-278z" />
    <glyph glyph-name="Edotaccent" unicode="E&#x307;" horiz-adv-x="576" 
d="M292 669q-21 0 -35.5 15t-14.5 36t14.5 36t35.5 15q22 0 36.5 -14.5t14.5 -36.5q0 -21 -15 -36t-36 -15zM561 194l-14 -194h-517v21h12q57 0 69.5 21t12.5 120v307q0 96 -12 115q-10 20 -62 20h-8v21h448l14 -156h-22q-19 79 -47 105q-33 30 -97 30h-125v-263h66
q61 0 77 15q18 16 18 71v8h22v-214h-22v8q0 58 -18 74q-16 16 -74 16h-69v-147q0 -116 17 -134q15 -17 75 -17h46q81 0 122 41q44 45 66 132h22z" />
    <glyph glyph-name="edotaccent" unicode="e&#x307;" horiz-adv-x="414" 
d="M225 465q-21 0 -36 15t-15 37q0 20 15 35t36 15q22 0 36.5 -14.5t14.5 -35.5q0 -22 -15 -37t-36 -15zM314 284q1 5 1 10v10q0 42 -23.5 66.5t-63.5 24.5q-89 0 -105 -111h191zM121 265l-1 -9q-1 -5 -1 -13v-21q0 -115 46 -162q35 -35 85 -35q88 0 126 80h23
q-16 -48 -60.5 -76.5t-102.5 -28.5q-85 0 -142 60t-57 136q0 95 55 157q55 63 137 63q73 0 120 -43q49 -42 50 -108h-278z" />
    <glyph glyph-name="Eogonek" unicode="E&#x328;" horiz-adv-x="590" 
d="M535 -81q-58 -53 -107 -53q-25 0 -42.5 17.5t-17.5 43.5q0 46 42 73h-380v21h12q57 0 69.5 21t12.5 120v307q0 96 -12 115q-10 20 -62 20h-8v21h448l14 -156h-22q-19 79 -47 105q-33 30 -97 30h-125v-263h66q61 0 77 15q18 16 18 71v8h22v-214h-22v8q0 58 -18 74
q-16 16 -74 16h-69v-147q0 -116 17 -134q15 -17 75 -17h46q81 0 122 41q44 45 66 132h22l-14 -194h-101q-34 -27 -34 -57q0 -16 11.5 -27t27.5 -11q35 0 69 33z" />
    <glyph glyph-name="eogonek" unicode="e&#x328;" horiz-adv-x="414" 
d="M121 265l-1 -9q-1 -5 -1 -13v-21q0 -116 46 -163q35 -35 85 -35q88 0 126 80h23q-16 -48 -61 -77q-28 -18 -62 -24q-33 -42 -33 -71q0 -16 11 -27t27 -11q35 0 69 33l15 -19q-58 -54 -107 -54q-25 0 -42.5 18t-17.5 44q0 42 36 83q-84 1 -140 60q-57 60 -57 137
q0 95 55 157q55 63 137 63q73 0 120 -43q49 -42 50 -108h-278zM314 284q1 5 1 10v10q0 42 -23.5 66.5t-63.5 24.5q-89 0 -105 -111h191z" />
    <glyph glyph-name="Ecaron" unicode="E&#x30c;" horiz-adv-x="576" 
d="M420 815l-118 -156h-59l-118 156h34l113 -96l116 96h32zM561 194l-14 -194h-517v21h12q57 0 69.5 21t12.5 120v307q0 96 -12 115q-10 20 -62 20h-8v21h448l14 -156h-22q-19 79 -47 105q-33 30 -97 30h-125v-263h66q61 0 77 15q18 16 18 71v8h22v-214h-22v8q0 58 -18 74
q-16 16 -74 16h-69v-147q0 -116 17 -134q15 -17 75 -17h46q81 0 122 41q44 45 66 132h22z" />
    <glyph glyph-name="ecaron" unicode="e&#x30c;" horiz-adv-x="414" 
d="M329 622h31l-117 -157h-59l-118 157h33l114 -96zM314 284q1 5 1 10v10q0 42 -23.5 66.5t-63.5 24.5q-89 0 -105 -111h191zM121 265l-1 -9q-1 -5 -1 -13v-21q0 -115 46 -162q35 -35 85 -35q88 0 126 80h23q-16 -48 -60.5 -76.5t-102.5 -28.5q-85 0 -142 60t-57 136
q0 95 55 157q55 63 137 63q73 0 120 -43q49 -42 50 -108h-278z" />
    <glyph glyph-name="Gcircumflex" unicode="G&#x302;" horiz-adv-x="720" 
d="M264 658h-33l118 157h59l117 -157h-31l-116 97zM706 267v-23h-8q-55 0 -68 -20q-11 -22 -11 -120v-66q-5 1 -9 1.5t-8 0.5q-38 0 -107 -26q-71 -24 -134 -24q-134 0 -223 87.5t-89 222.5q0 34 7 69t19.5 67t30 60.5t39.5 51.5q84 88 224 88q123 0 203 -92q7 17 12 34
t6 36h23v-209h-23q-6 48 -25 86.5t-47 65.5t-65 41.5t-80 14.5q-30 0 -57.5 -8t-51.5 -22t-43.5 -34t-32.5 -44q-33 -68 -33 -189q0 -170 68 -241q57 -64 147 -64q54 0 94.5 20.5t54.5 55.5q10 25 10 62q0 50 -4 61q-9 30 -46 33q-4 1 -12 1h-16h-15v23h270z" />
    <glyph glyph-name="gcircumflex" unicode="g&#x302;" horiz-adv-x="469" 
d="M112 465h-32l117 158h59l118 -158h-32l-115 98zM123 259q0 -122 92 -122q90 0 90 127q0 129 -91 129t-91 -134zM230 35q125 -7 167 -46q36 -35 36 -87q0 -70 -53 -108.5t-152 -38.5q-89 0 -145 35q-55 34 -55 89q0 31 16.5 49.5t43.5 18.5q4 0 15 -3q-31 -34 -31 -72
q0 -43 43 -70t115 -27t113 27t41 75q0 39 -27 62q-19 16 -45 22q-13 2 -36 4t-55 4q-98 4 -136 25q-31 16 -31 53q0 66 89 81q-93 54 -93 139q0 62 47 106q46 43 115 43q81 0 131 -51q41 51 85 51q20 0 34 -12t14 -29q0 -32 -29 -32q-16 0 -28 19q-11 20 -23 20
q-17 0 -41 -30q26 -41 26 -85q0 -48 -26 -84.5t-71 -53.5q-34 -13 -87 -14q-104 -5 -104 -42q0 -18 22 -25q11 -4 31.5 -6.5t51.5 -4.5z" />
    <glyph glyph-name="Gbreve" unicode="G&#x306;" horiz-adv-x="720" 
d="M493 818q-3 -65 -33 -106q-35 -46 -97 -46q-78 0 -112 70q-17 35 -19 82l4 4h24q7 -43 33 -70q29 -27 70 -27t69 27q26 27 33 70h25l3 -4v0zM706 267v-23h-8q-55 0 -68 -20q-11 -22 -11 -120v-66q-5 1 -9 1.5t-8 0.5q-38 0 -107 -26q-71 -24 -134 -24q-134 0 -223 87.5
t-89 222.5q0 34 7 69t19.5 67t30 60.5t39.5 51.5q84 88 224 88q123 0 203 -92q7 17 12 34t6 36h23v-209h-23q-6 48 -25 86.5t-47 65.5t-65 41.5t-80 14.5q-30 0 -57.5 -8t-51.5 -22t-43.5 -34t-32.5 -44q-33 -68 -33 -189q0 -170 68 -241q57 -64 147 -64q54 0 94.5 20.5
t54.5 55.5q10 25 10 62q0 50 -4 61q-9 30 -46 33q-4 1 -12 1h-16h-15v23h270z" />
    <glyph glyph-name="gbreve" unicode="g&#x306;" horiz-adv-x="469" 
d="M375 627q-2 -64 -32 -106q-35 -46 -97 -46q-79 0 -113 70q-17 35 -19 82l4 4h25q6 -42 33 -69q28 -28 70 -28q40 0 68 28q27 27 33 69h25zM123 259q0 -122 92 -122q90 0 90 127q0 129 -91 129t-91 -134zM230 35q125 -7 167 -46q36 -35 36 -87q0 -70 -53 -108.5
t-152 -38.5q-89 0 -145 35q-55 34 -55 89q0 31 16.5 49.5t43.5 18.5q4 0 15 -3q-31 -34 -31 -72q0 -43 43 -70t115 -27t113 27t41 75q0 39 -27 62q-19 16 -45 22q-13 2 -36 4t-55 4q-98 4 -136 25q-31 16 -31 53q0 66 89 81q-93 54 -93 139q0 62 47 106q46 43 115 43
q81 0 131 -51q41 51 85 51q20 0 34 -12t14 -29q0 -32 -29 -32q-16 0 -28 19q-11 20 -23 20q-17 0 -41 -30q26 -41 26 -85q0 -48 -26 -84.5t-71 -53.5q-34 -13 -87 -14q-104 -5 -104 -42q0 -18 22 -25q11 -4 31.5 -6.5t51.5 -4.5z" />
    <glyph glyph-name="Gdotaccent" unicode="G&#x307;" horiz-adv-x="720" 
d="M385 672q-21 0 -36 15t-15 37q0 20 15 35t36 15q22 0 36.5 -14.5t14.5 -35.5q0 -22 -15 -37t-36 -15zM706 267v-23h-8q-55 0 -68 -20q-11 -22 -11 -120v-66q-5 1 -9 1.5t-8 0.5q-38 0 -107 -26q-71 -24 -134 -24q-134 0 -223 87.5t-89 222.5q0 34 7 69t19.5 67t30 60.5
t39.5 51.5q84 88 224 88q123 0 203 -92q7 17 12 34t6 36h23v-209h-23q-6 48 -25 86.5t-47 65.5t-65 41.5t-80 14.5q-30 0 -57.5 -8t-51.5 -22t-43.5 -34t-32.5 -44q-33 -68 -33 -189q0 -170 68 -241q57 -64 147 -64q54 0 94.5 20.5t54.5 55.5q10 25 10 62q0 50 -4 61
q-9 30 -46 33q-4 1 -12 1h-16h-15v23h270z" />
    <glyph glyph-name="gdotaccent" unicode="g&#x307;" horiz-adv-x="469" 
d="M209 465q-21 0 -36 15t-15 37q0 20 15 35t36 15q22 0 36.5 -14.5t14.5 -35.5q0 -22 -15 -37t-36 -15zM123 259q0 -122 92 -122q90 0 90 127q0 129 -91 129t-91 -134zM230 35q125 -7 167 -46q36 -35 36 -87q0 -70 -53 -108.5t-152 -38.5q-89 0 -145 35q-55 34 -55 89
q0 31 16.5 49.5t43.5 18.5q4 0 15 -3q-31 -34 -31 -72q0 -43 43 -70t115 -27t113 27t41 75q0 39 -27 62q-19 16 -45 22q-13 2 -36 4t-55 4q-98 4 -136 25q-31 16 -31 53q0 66 89 81q-93 54 -93 139q0 62 47 106q46 43 115 43q81 0 131 -51q41 51 85 51q20 0 34 -12t14 -29
q0 -32 -29 -32q-16 0 -28 19q-11 20 -23 20q-17 0 -41 -30q26 -41 26 -85q0 -48 -26 -84.5t-71 -53.5q-34 -13 -87 -14q-104 -5 -104 -42q0 -18 22 -25q11 -4 31.5 -6.5t51.5 -4.5z" />
    <glyph glyph-name="Gcommaaccent" unicode="G&#x327;" horiz-adv-x="728" 
d="M706 267v-23h-8q-55 0 -68 -20q-11 -22 -11 -120v-66q-5 1 -9 1.5t-8 0.5q-38 0 -107 -26q-71 -24 -134 -24q-134 0 -223 87.5t-89 222.5q0 34 7 69t19.5 67t30 60.5t39.5 51.5q84 88 224 88q123 0 203 -92q7 17 12 34t6 36h23v-209h-23q-6 48 -25 86.5t-47 65.5
t-65 41.5t-80 14.5q-30 0 -57.5 -8t-51.5 -22t-43.5 -34t-32.5 -44q-33 -68 -33 -189q0 -170 68 -241q57 -64 147 -64q54 0 94.5 20.5t54.5 55.5q10 25 10 62q0 50 -4 61q-9 30 -46 33q-4 1 -12 1h-16h-15v23h270zM304 -239v17q45 10 74.5 33.5t29.5 50.5q0 22 -20 22h-9
l-7 -3h-4h-5q-20 0 -33.5 8.5t-13.5 21.5q0 34 48 34q31 0 51.5 -20t20.5 -50q0 -40 -36 -72t-96 -42z" />
    <glyph glyph-name="gcommaaccent" unicode="g&#x327;" horiz-adv-x="469" 
d="M247 650l6 -16q-39 -24 -58.5 -56.5t-9.5 -57.5q7 -20 26 -14q5 2 8 3l6 5q1 0 4 1q2 2 4 2q19 7 35 4t20 -15q12 -32 -34 -49q-28 -11 -54.5 1t-36.5 40q-15 38 8 80t76 72zM123 259q0 -122 92 -122q90 0 90 127q0 129 -91 129t-91 -134zM230 35q125 -7 167 -46
q36 -35 36 -87q0 -70 -53 -108.5t-152 -38.5q-89 0 -145 35q-55 34 -55 89q0 31 16.5 49.5t43.5 18.5q4 0 15 -3q-31 -34 -31 -72q0 -43 43 -70t115 -27t113 27t41 75q0 39 -27 62q-19 16 -45 22q-13 2 -36 4t-55 4q-98 4 -136 25q-31 16 -31 53q0 66 89 81q-93 54 -93 139
q0 62 47 106q46 43 115 43q81 0 131 -51q41 51 85 51q20 0 34 -12t14 -29q0 -32 -29 -32q-16 0 -28 19q-11 20 -23 20q-17 0 -41 -30q26 -41 26 -85q0 -48 -26 -84.5t-71 -53.5q-34 -13 -87 -14q-104 -5 -104 -42q0 -18 22 -25q11 -4 31.5 -6.5t51.5 -4.5z" />
    <glyph glyph-name="Hcircumflex" unicode="H&#x302;" horiz-adv-x="757" 
d="M276 664h-32l117 157h59l118 -157h-32l-115 97zM215 313v-151q0 -99 12 -120t67 -21h17v-21h-282v21h16q57 0 68.5 21t11.5 120v307q0 96 -11 114q-10 16 -33 20q-4 1 -14 1h-26h-12v21h282v-21h-12h-27q-9 0 -14 -1q-21 -4 -31 -20q-12 -20 -12 -114v-124h327v124
q0 95 -12 114q-10 16 -33 20q-4 1 -39 1h-18v21h285v-21h-10h-27q-9 0 -14 -1q-23 -4 -31 -20q-12 -21 -12 -114v-307q0 -99 12 -120t67 -21h15v-21h-285v21h22q56 0 67 21q13 21 13 120v151h-327z" />
    <glyph glyph-name="hcircumflex" unicode="h&#x302;" horiz-adv-x="500" 
d="M154 315h2q54 78 135 78q59 0 93 -32q23 -20 30 -59q3 -19 3 -68v-105q0 -77 7 -89q10 -19 50 -19h7v-21h-195v21h9q34 0 45 11t11 48v163q0 34 -4 58t-13.5 38t-26 19.5t-42.5 5.5q-69 0 -111 -83v-152q0 -77 6 -89q11 -19 50 -19h3v-21h-192v21h11q34 0 45 11t11 48
v426q0 47 -5 61q-9 26 -51 26h-7v21h5q16 0 37 3t47 8q8 1 15.5 3t15.5 6h9v-319zM-4 634h-33l118 157h58l118 -157h-32l-115 97z" />
    <glyph glyph-name="Itilde" unicode="I&#x303;" horiz-adv-x="318" 
d="M318 769q-8 -38 -33 -69q-28 -33 -67 -33q-29 0 -75 23.5t-65 23.5q-36 0 -55 -46h-22l-1 3q8 40 32 67q29 32 65 32q28 0 75.5 -23.5t66.5 -23.5q34 0 53 49h23l3 -3v0zM24 625h287v-21h-15h-26t-14 -1q-22 -4 -32 -20q-12 -20 -12 -114v-307q0 -99 12 -120t68 -21h19
v-21h-287v21h18q56 0 67 21q13 21 13 120v307q0 96 -11 114q-10 16 -33 20q-3 1 -14 1h-26h-14v21z" />
    <glyph glyph-name="itilde" unicode="i&#x303;" horiz-adv-x="290" 
d="M316 567q-9 -37 -33 -68q-28 -34 -67 -34q-29 0 -75 24t-65 24q-37 0 -55 -47h-22l-1 3q8 41 32 67q28 32 65 32q28 0 75.5 -23.5t66.5 -23.5q34 0 52 49h24zM204 136q0 -81 7 -94q10 -19 51 -19h11v-23h-214v23h16q36 0 47.5 11t11.5 50v172q0 77 -10 94q-9 16 -52 16
h-13v23q42 5 75 10.5t59 16.5h11v-280z" />
    <glyph glyph-name="Imacron" unicode="I&#x304;" horiz-adv-x="318" 
d="M22 719h282v-42h-282v42zM24 625h287v-21h-15h-26t-14 -1q-22 -4 -32 -20q-12 -20 -12 -114v-307q0 -99 12 -120t68 -21h19v-21h-287v21h18q56 0 67 21q13 21 13 120v307q0 96 -11 114q-10 16 -33 20q-3 1 -14 1h-26h-14v21z" />
    <glyph glyph-name="imacron" unicode="i&#x304;" horiz-adv-x="264" 
d="M-2 517h282v-42h-282v42zM182 136q0 -81 7 -94q10 -19 51 -19h11v-23h-214v23h16q36 0 47.5 11t11.5 50v172q0 77 -10 94q-9 16 -52 16h-13v23q42 5 75 10.5t59 16.5h11v-280z" />
    <glyph glyph-name="Ibreve" unicode="I&#x306;" horiz-adv-x="318" 
d="M295 810q-3 -64 -33 -106q-34 -46 -97 -46q-78 0 -112 70q-18 36 -19 82l4 3h25q7 -43 32 -68q29 -29 70 -29t69 29q25 25 33 68h25zM24 625h287v-21h-15h-26t-14 -1q-22 -4 -32 -20q-12 -20 -12 -114v-307q0 -99 12 -120t68 -21h19v-21h-287v21h18q56 0 67 21
q13 21 13 120v307q0 96 -11 114q-10 16 -33 20q-3 1 -14 1h-26h-14v21z" />
    <glyph glyph-name="ibreve" unicode="i&#x306;" horiz-adv-x="257" 
d="M257 627q-2 -64 -32 -106q-36 -46 -98 -46q-78 0 -112 70q-18 37 -19 82l4 4h24q8 -43 34 -69q28 -28 69 -28t69 28q26 26 33 69h25zM173 136q0 -81 7 -94q10 -19 51 -19h11v-23h-214v23h16q36 0 47.5 11t11.5 50v172q0 77 -10 94q-9 16 -52 16h-13v23q42 5 75 10.5
t59 16.5h11v-280z" />
    <glyph glyph-name="Iogonek" unicode="I&#x328;" horiz-adv-x="334" 
d="M280 -81q-58 -53 -106 -53q-26 0 -43.5 17.5t-17.5 43.5q0 46 43 73h-132v21h18q56 0 67 21q13 21 13 120v307q0 96 -11 114q-10 16 -33 20q-3 1 -14 1h-40v21h287v-21h-41q-10 0 -14 -1q-22 -4 -32 -20q-12 -20 -12 -114v-307q0 -99 12 -120t68 -21h19v-21h-120
q-33 -27 -33 -57q0 -16 11 -27t27 -11q35 0 69 33z" />
    <glyph glyph-name="iogonek" unicode="i&#x328;" horiz-adv-x="236" 
d="M63 579q0 20 13.5 34t34.5 14q19 0 33.5 -14t14.5 -34t-14.5 -35t-33.5 -15q-20 0 -34 15t-14 35zM160 136q0 -81 7 -94q10 -19 51 -19h11v-23h-92q-33 -27 -33 -56q0 -16 11.5 -27t27.5 -11q35 0 69 33l15 -19q-58 -53 -106 -53q-26 0 -43.5 17.5t-17.5 43.5q0 45 40 72
h-85v23h16q36 0 47.5 11t11.5 50v172q0 77 -10 94q-9 16 -52 16h-13v23q42 5 75 10.5t59 16.5h11v-280z" />
    <glyph glyph-name="Jcircumflex" unicode="J&#x302;" horiz-adv-x="339" 
d="M64 661h-33l118 157h59l117 -157h-32l-115 97zM324 625v-21h-15h-27q-11 0 -14 -1q-25 -5 -33 -20q-10 -19 -10 -114v-407q0 -115 -18 -159q-23 -60 -77 -92.5t-126 -32.5q-71 0 -112.5 24t-41.5 66q0 21 13.5 35t33.5 14t33.5 -13t13.5 -33q0 -12 -6 -24q-4 -11 -4 -15
q0 -32 60 -32q72 0 107 54q31 47 31 141q1 5 1 66v408q0 95 -11 114q-11 16 -33 20q-5 1 -15 1h-26h-14v21h290z" />
    <glyph glyph-name="jcircumflex" unicode="j&#x302;" horiz-adv-x="221" 
d="M139 -15q0 -39 -14 -76q-13 -36 -36 -57q-45 -39 -110 -39q-45 0 -73 16t-28 41q0 31 29 31q21 0 31 -25l5 -11q13 -31 47 -31q40 0 62 30q15 23 20 64q1 6 1 24v46v291q0 70 -8.5 86.5t-49.5 16.5h-12v20q39 4 70 9.5t56 15.5h10v-452zM-21 465h-33l118 158h59l118 -158
h-33l-115 98z" />
    <glyph glyph-name="Kcommaaccent" unicode="K&#x327;" horiz-adv-x="734" 
d="M407 479q66 59 66 84q0 38 -66 41v21h235v-21q-70 -2 -153 -80l-163 -150l283 -287q20 -19 36 -32t29 -20q26 -14 63 -14v-21h-324v21h12q78 0 78 30q0 21 -66 87l-177 178l-44 -40v-114q0 -99 12 -120t67 -21h13v-21h-282v21h20q56 0 67 21q12 21 12 120v307
q0 95 -11 114q-10 16 -33 20q-5 1 -39 1h-7v21h277v-21h-12h-27q-10 0 -14 -1q-22 -4 -32 -20q-11 -19 -11 -114v-162zM295 -239v17q45 10 74.5 33.5t29.5 50.5q0 22 -20 22h-9l-7 -3h-4h-5q-20 0 -33.5 8.5t-13.5 21.5q0 34 48 34q31 0 51.5 -20t20.5 -50q0 -40 -36 -72
t-96 -42z" />
    <glyph glyph-name="kcommaaccent" unicode="k&#x327;" horiz-adv-x="459" 
d="M160 -239v17q45 10 74.5 33.5t29.5 50.5q0 22 -20 22h-9l-7 -3h-4h-5q-20 0 -33.5 8.5t-13.5 21.5q0 34 48 34q31 0 51.5 -20t20.5 -50q0 -40 -36 -72t-96 -42zM417 416v-23q-46 -2 -116 -70q-4 -1 -9 -6l-12 -12q-11 -7 -22 -19l-30 -25l140 -174q13 -14 22 -25t17 -15
q24 -24 47 -24v-23h-195v23q49 1 49 22q0 9 -10 23q-4 2 -22 27l-101 124l-20 -17v-60q0 -88 6 -98q11 -21 48 -21h3v-23h-200v23h15q39 0 49 15q9 10 9 50v459q0 37 -5 52q-10 27 -51 27h-7v24h5q29 0 85 11q9 2 16.5 4t16.5 6h10v-442l41 32q100 77 100 108q0 22 -37 24
v23h158z" />
    <glyph glyph-name="Lacute" unicode="L&#x301;" horiz-adv-x="576" 
d="M175 664h-18l53 89q34 55 58 55q29 0 29 -27q0 -18 -30 -42l-9 -6zM558 0h-532v21h19q56 0 67 21q13 21 13 120v307q0 95 -12 114q-10 16 -33 20q-4 1 -39 1h-15v21h300v-21h-27h-27q-9 0 -14 -1q-21 -4 -31 -20q-12 -20 -12 -114v-326v-51q0 -17 1 -24q1 -14 10 -26
q16 -21 83 -21h47q48 0 71 4q33 9 58 38q25 28 54 115l2 6h22z" />
    <glyph glyph-name="lacute" unicode="l&#x301;" horiz-adv-x="226" 
d="M145 117q0 -71 6 -81q10 -17 50 -17h10v-19h-202v19h13q35 0 45.5 10t10.5 43v381q0 47 -3 56q-11 25 -53 25h-6v19h5q16 0 36.5 2.5t46.5 6.5q8 2 15.5 3.5t15.5 4.5h10v-453zM85 602h-18l54 89q33 55 57 55q30 0 30 -28q0 -18 -31 -41z" />
    <glyph glyph-name="Lcommaaccent" unicode="L&#x327;" horiz-adv-x="576" 
d="M558 0h-532v21h19q56 0 67 21q13 21 13 120v307q0 95 -12 114q-10 16 -33 20q-4 1 -39 1h-15v21h300v-21h-27h-27q-9 0 -14 -1q-21 -4 -31 -20q-12 -20 -12 -114v-326v-51q0 -17 1 -24q1 -14 10 -26q16 -21 83 -21h47q48 0 71 4q33 9 58 38q25 28 54 115l2 6h22z
M213 -239v17q45 10 74.5 33.5t29.5 50.5q0 22 -20 22h-9l-7 -3h-4h-5q-20 0 -33.5 8.5t-13.5 21.5q0 34 48 34q31 0 51.5 -20t20.5 -50q0 -40 -36 -72t-96 -42z" />
    <glyph glyph-name="lcommaaccent" unicode="l&#x327;" horiz-adv-x="226" 
d="M51 -239v17q45 10 74.5 33.5t29.5 50.5q0 22 -20 22h-9l-7 -3h-4h-5q-20 0 -33.5 8.5t-13.5 21.5q0 34 48 34q31 0 51.5 -20t20.5 -50q0 -40 -36 -72t-96 -42zM153 137q0 -82 7 -95q11 -20 53 -20h11v-22h-214v22h14q36 0 47.5 12t11.5 51v448q0 56 -4 67q-11 29 -55 29
h-7v22h5q17 0 39 3t50 8l16 4t16 6h10v-535z" />
    <glyph glyph-name="Lcaron" unicode="L&#x30c;" horiz-adv-x="576" 
d="M287 821h32l-118 -157h-58l-118 157h33l114 -96zM558 0h-532v21h19q56 0 67 21q13 21 13 120v307q0 95 -12 114q-10 16 -33 20q-4 1 -39 1h-15v21h300v-21h-27h-27q-9 0 -14 -1q-21 -4 -31 -20q-12 -20 -12 -114v-326v-51q0 -17 1 -24q1 -14 10 -26q16 -21 83 -21h47
q48 0 71 4q33 9 58 38q25 28 54 115l2 6h22z" />
    <glyph glyph-name="lcaron" unicode="l&#x30c;" horiz-adv-x="226" 
d="M145 117q0 -71 6 -81q10 -17 50 -17h10v-19h-202v19h13q35 0 45.5 10t10.5 43v381q0 47 -3 56q-11 25 -53 25h-6v19h5q16 0 36.5 2.5t46.5 6.5q8 2 15.5 3.5t15.5 4.5h10v-453zM207 759h31l-117 -157h-59l-118 157h33l114 -96z" />
    <glyph glyph-name="Ldot" unicode="L&#xb7;" horiz-adv-x="570" 
d="M558 0h-532v21h19q56 0 67 21q13 21 13 120v307q0 95 -12 114q-10 16 -33 20q-4 1 -39 1h-15v21h300v-21h-27h-27q-9 0 -14 -1q-21 -4 -31 -20q-12 -20 -12 -114v-326v-51q0 -17 1 -24q1 -14 10 -26q16 -21 83 -21h47q48 0 71 4q33 9 58 38q25 28 54 115l2 6h22zM464 366
q20 0 35.5 14.5t15.5 36.5q0 21 -15 36t-36 15t-36.5 -15.5t-15.5 -35.5q0 -22 15.5 -36.5t36.5 -14.5z" />
    <glyph glyph-name="ldot" unicode="l&#xb7;" horiz-adv-x="309" 
d="M257 266q21 0 36 14.5t15 36.5q0 21 -14.5 36t-36.5 15q-21 0 -36 -15.5t-15 -35.5q0 -22 15 -36.5t36 -14.5zM153 137q0 -82 7 -95q11 -20 53 -20h11v-22h-214v22h14q36 0 47.5 12t11.5 51v448q0 56 -4 67q-11 29 -55 29h-7v22h5q17 0 39 3t50 8l16 4t16 6h10v-535z" />
    <glyph glyph-name="Nacute" unicode="N&#x301;" horiz-adv-x="707" 
d="M305 661l53 89q33 56 58 56q29 0 29 -28q0 -17 -30 -41l-91 -76h-19zM142 571h-2v-464q0 -47 24 -66.5t85 -19.5v-21h-233v21q67 4 84 24t17 93v331q0 93 -13 114t-75 21h-5v21h184l368 -489h2v373q0 28 -5 46t-17 28.5t-32.5 15.5t-51.5 5v21h226v-21q-58 -5 -78 -26
q-19 -20 -19 -75v-516h-20z" />
    <glyph glyph-name="nacute" unicode="n&#x301;" horiz-adv-x="526" 
d="M190 465l54 90q32 55 58 55q29 0 29 -27q0 -18 -30 -42l-92 -76h-19zM148 416q4 -17 8 -37.5t5 -46.5q69 84 153 84q91 0 116 -70q10 -25 10 -45v-165q0 -81 6 -94q12 -20 54 -20h6v-22h-205v22h10q36 0 48 11.5t12 51.5v214q0 85 -84 85q-69 0 -126 -85v-163
q0 -84 6 -94q13 -20 54 -20h6v-22h-203v22h8q35 0 47 11.5t12 51.5v171q0 84 -6 95q-9 19 -53 19h-8v23q58 6 101 19l9 4h14z" />
    <glyph glyph-name="Ncommaaccent" unicode="N&#x327;" horiz-adv-x="707" 
d="M142 571h-2v-464q0 -47 24 -66.5t85 -19.5v-21h-233v21q67 4 84 24t17 93v331q0 93 -13 114t-75 21h-5v21h184l368 -489h2v373q0 28 -5 46t-17 28.5t-32.5 15.5t-51.5 5v21h226v-21q-58 -5 -78 -26q-19 -20 -19 -75v-516h-20zM315 -239v17q45 10 74.5 33.5t29.5 50.5
q0 22 -20 22h-9l-7 -3h-4h-5q-20 0 -33.5 8.5t-13.5 21.5q0 34 48 34q31 0 51.5 -20t20.5 -50q0 -40 -36 -72t-96 -42z" />
    <glyph glyph-name="ncommaaccent" unicode="n&#x327;" horiz-adv-x="526" 
d="M187 -239v17q45 10 74.5 33.5t29.5 50.5q0 22 -20 22h-9l-7 -3h-4h-5q-20 0 -33.5 8.5t-13.5 21.5q0 34 48 34q31 0 51.5 -20t20.5 -50q0 -40 -36 -72t-96 -42zM148 416q4 -17 8 -37.5t5 -46.5q69 84 153 84q91 0 116 -70q10 -25 10 -45v-165q0 -81 6 -94q12 -20 54 -20
h6v-22h-205v22h10q36 0 48 11.5t12 51.5v214q0 85 -84 85q-69 0 -126 -85v-163q0 -84 6 -94q13 -20 54 -20h6v-22h-203v22h8q35 0 47 11.5t12 51.5v171q0 84 -6 95q-9 19 -53 19h-8v23q58 6 101 19l9 4h14z" />
    <glyph glyph-name="Ncaron" unicode="N&#x30c;" horiz-adv-x="707" 
d="M464 810h32l-118 -157h-58l-118 157h33l114 -96zM142 571h-2v-464q0 -47 24 -66.5t85 -19.5v-21h-233v21q67 4 84 24t17 93v331q0 93 -13 114t-75 21h-5v21h184l368 -489h2v373q0 28 -5 46t-17 28.5t-32.5 15.5t-51.5 5v21h226v-21q-58 -5 -78 -26q-19 -20 -19 -75v-516
h-20z" />
    <glyph glyph-name="ncaron" unicode="n&#x30c;" horiz-adv-x="526" 
d="M374 622h31l-117 -157h-59l-118 157h33l114 -96zM148 416q4 -17 8 -37.5t5 -46.5q69 84 153 84q91 0 116 -70q10 -25 10 -45v-165q0 -81 6 -94q12 -20 54 -20h6v-22h-205v22h10q36 0 48 11.5t12 51.5v214q0 85 -84 85q-69 0 -126 -85v-163q0 -84 6 -94q13 -20 54 -20h6
v-22h-203v22h8q35 0 47 11.5t12 51.5v171q0 84 -6 95q-9 19 -53 19h-8v23q58 6 101 19l9 4h14z" />
    <glyph glyph-name="napostrophe" unicode="&#x2bc;n" horiz-adv-x="650" 
d="M18 383v23q45 14 74.5 48t29.5 73q0 31 -20 31q-6 0 -9 -1l-7 -2q-1 0 -4 -1h-5q-20 0 -33.5 12t-13.5 31q0 49 48 49q31 0 51.5 -29.5t20.5 -70.5q0 -59 -36 -103.5t-96 -59.5zM272 416q4 -17 8 -37.5t5 -46.5q69 84 153 84q91 0 116 -70q10 -25 10 -45v-165
q0 -81 6 -94q12 -20 54 -20h6v-22h-205v22h10q36 0 48 11.5t12 51.5v214q0 85 -84 85q-69 0 -126 -85v-163q0 -84 6 -94q13 -20 54 -20h6v-22h-203v22h8q35 0 47 11.5t12 51.5v171q0 84 -6 95q-9 19 -53 19h-8v23q58 6 101 19l9 4h14z" />
    <glyph glyph-name="Omacron" unicode="O&#x304;" horiz-adv-x="766" 
d="M246 716h282v-42h-282v42zM159 313q0 -125 41 -201q18 -32 50 -57q58 -44 149 -44q108 0 168 77.5t60 217.5q0 151 -60 229t-175 78t-174 -77t-59 -223zM53 317q0 141 94 229q96 90 245 90q33 0 67 -5.5t65.5 -16.5t59 -26.5t50.5 -35.5q99 -88 99 -254q0 -133 -96 -221
q-95 -87 -239 -87q-155 0 -251 89q-94 89 -94 238z" />
    <glyph glyph-name="omacron" unicode="o&#x304;" horiz-adv-x="497" 
d="M97 517h282v-42h-282v42zM117 198q0 -178 131 -178q69 0 100.5 46t31.5 132q0 195 -132 195q-131 0 -131 -195zM35 201q0 92 61 153q62 62 152 62t152 -62t62 -153q0 -81 -61 -142q-60 -60 -153 -60q-92 0 -153 60q-60 61 -60 142z" />
    <glyph glyph-name="Obreve" unicode="O&#x306;" horiz-adv-x="766" 
d="M513 798q-2 -58 -29 -95q-31 -41 -88 -41q-70 0 -100 62q-16 31 -17 74l3 3h22q6 -38 30 -62q25 -25 62 -25t62 25q24 24 30 62h22zM159 313q0 -125 41 -201q18 -32 50 -57q58 -44 149 -44q108 0 168 77.5t60 217.5q0 151 -60 229t-175 78t-174 -77t-59 -223zM53 317
q0 141 94 229q96 90 245 90q33 0 67 -5.5t65.5 -16.5t59 -26.5t50.5 -35.5q99 -88 99 -254q0 -133 -96 -221q-95 -87 -239 -87q-155 0 -251 89q-94 89 -94 238z" />
    <glyph glyph-name="obreve" unicode="o&#x306;" horiz-adv-x="497" 
d="M373 627q-3 -64 -32 -106q-35 -46 -98 -46q-78 0 -112 70q-17 35 -19 82l4 4h24q7 -42 34 -69q28 -28 69 -28t69 28q27 27 33 69h25zM117 198q0 -178 131 -178q69 0 100.5 46t31.5 132q0 195 -132 195q-131 0 -131 -195zM35 201q0 92 61 153q62 62 152 62t152 -62
t62 -153q0 -81 -61 -142q-60 -60 -153 -60q-92 0 -153 60q-60 61 -60 142z" />
    <glyph glyph-name="Ohungarumlaut" unicode="O&#x30b;" horiz-adv-x="766" 
d="M159 313q0 -125 41 -201q18 -32 50 -57q58 -44 149 -44q108 0 168 77.5t60 217.5q0 151 -60 229t-175 78t-174 -77t-59 -223zM53 317q0 141 94 229q96 90 245 90q33 0 67 -5.5t65.5 -16.5t59 -26.5t50.5 -35.5q99 -88 99 -254q0 -133 -96 -221q-95 -87 -239 -87
q-155 0 -251 89q-94 89 -94 238zM243 664l131 131q20 20 31 27q17 4 19 4q6 0 16 -3q13 -8 14 -18q2 -17 -12.5 -27l-29.5 -20l-135 -94h-34zM377 664l130 131q20 20 31 27q17 4 19 4q6 0 16 -3q13 -8 14 -18q2 -17 -12 -27l-29 -20l-136 -94h-33z" />
    <glyph glyph-name="ohungarumlaut" unicode="o&#x30b;" horiz-adv-x="497" 
d="M90 465l131 132q20 19 31 26q17 4 19 4q6 0 16 -3q13 -8 14 -18q2 -17 -12.5 -27t-29.5 -19l-135 -95h-34zM224 465l130 132q20 19 31 26q17 4 19 4q6 0 16 -3q13 -8 14 -18q2 -17 -12 -27t-29 -19l-136 -95h-33zM117 198q0 -178 131 -178q69 0 100.5 46t31.5 132
q0 195 -132 195q-131 0 -131 -195zM35 201q0 92 61 153q62 62 152 62t152 -62t62 -153q0 -81 -61 -142q-60 -60 -153 -60q-92 0 -153 60q-60 61 -60 142z" />
    <glyph glyph-name="Racute" unicode="R&#x301;" horiz-adv-x="688" 
d="M281 657h-19l54 90q33 54 58 54q29 0 29 -27q0 -18 -30 -42l-9 -6zM224 323h42q104 3 137 48q26 35 26 94q0 97 -61 126q-37 18 -115 18h-21q-9 0 -19 -1v-285h11zM518 0q-23 15 -55 54q-30 35 -51 65l-31 45q-30 44 -54.5 74t-43.5 49q-16 14 -44 14h-26v-139
q0 -99 12 -120t67 -21h31v-21h-300v21h21q56 0 67 21q13 21 13 120v307q0 95 -12 114q-10 16 -33 20q-3 1 -14 1h-26h-11v21l90 4q35 1 68 3l73 4q152 -2 219 -57q52 -44 52 -106q0 -65 -47.5 -107t-130.5 -51v-2q18 -10 43 -34l33 -38l34 -42l32 -42q68 -90 116 -117
q31 -19 76 -19v-21h-168z" />
    <glyph glyph-name="racute" unicode="r&#x301;" horiz-adv-x="354" 
d="M105 465h-18l54 90q33 54 57 54q30 0 30 -27q0 -18 -31 -41zM140 416q14 -44 14 -102h2q18 45 54 73.5t75 28.5q26 0 46 -18.5t20 -42.5q0 -34 -32 -34q-25 0 -37 36q-8 24 -27 24q-24 0 -55 -34q-28 -31 -35 -64q-6 -23 -6 -74v-72q0 -84 7 -95q11 -20 52 -20h14v-22
h-212v22h10q36 0 47.5 12t11.5 51v165q0 83 -7 96q-10 19 -52 19h-10v22q35 5 113 27z" />
    <glyph glyph-name="Rcommaaccent" unicode="R&#x327;" horiz-adv-x="718" 
d="M294 -222v17q45 10 74.5 33.5t29.5 50.5q0 22 -20 22h-9l-7 -3h-4h-5q-20 0 -33.5 8.5t-13.5 21.5q0 34 48 34q31 0 51.5 -20t20.5 -50q0 -40 -36 -72t-96 -42zM234 337h44q108 3 143 50q27 37 27 98q0 102 -64 132q-38 19 -120 19h-22q-9 0 -20 -1v-298h12zM541 0
q-24 16 -58 56q-31 37 -53 68l-32 47q-32 46 -57.5 77.5t-45.5 51.5q-16 14 -45 14h-28v-145q0 -103 13 -125q12 -22 70 -22h32v-22h-313v22h22q58 0 70 22q13 22 13 125v321q0 99 -12 119q-11 16 -35 21q-3 1 -14 1h-27h-12v21l94 5q37 1 71 3l76 4q159 -2 229 -60
q54 -45 54 -110q0 -68 -49.5 -112t-136.5 -53v-2q19 -11 45 -36l35 -39.5t35 -43.5l34 -44q71 -94 121 -122q32 -20 79 -20v-22h-175z" />
    <glyph glyph-name="rcommaaccent" unicode="r&#x327;" horiz-adv-x="354" 
d="M51 -239v17q45 10 74.5 33.5t29.5 50.5q0 22 -20 22h-9l-7 -3h-4h-5q-20 0 -33.5 8.5t-13.5 21.5q0 34 48 34q31 0 51.5 -20t20.5 -50q0 -40 -36 -72t-96 -42zM140 416q14 -44 14 -102h2q18 45 54 73.5t75 28.5q26 0 46 -18.5t20 -42.5q0 -34 -32 -34q-25 0 -37 36
q-8 24 -27 24q-24 0 -55 -34q-28 -31 -35 -64q-6 -23 -6 -74v-72q0 -84 7 -95q11 -20 52 -20h14v-22h-212v22h10q36 0 47.5 12t11.5 51v165q0 83 -7 96q-10 19 -52 19h-10v22q35 5 113 27z" />
    <glyph glyph-name="Rcaron" unicode="R&#x30c;" horiz-adv-x="688" 
d="M224 323h42q104 3 137 48q26 35 26 94q0 97 -61 126q-37 18 -115 18h-21q-9 0 -19 -1v-285h11zM518 0q-23 15 -55 54q-30 35 -51 65l-31 45q-30 44 -54.5 74t-43.5 49q-16 14 -44 14h-26v-139q0 -99 12 -120t67 -21h31v-21h-300v21h21q56 0 67 21q13 21 13 120v307
q0 95 -12 114q-10 16 -33 20q-3 1 -14 1h-26h-11v21l90 4q35 1 68 3l73 4q152 -2 219 -57q52 -44 52 -106q0 -65 -47.5 -107t-130.5 -51v-2q18 -10 43 -34l33 -38l34 -42l32 -42q68 -90 116 -117q31 -19 76 -19v-21h-168zM407 810h32l-118 -157h-58l-118 157h33l114 -96z
" />
    <glyph glyph-name="rcaron" unicode="r&#x30c;" horiz-adv-x="354" 
d="M269 622h32l-118 -157h-58l-118 157h33l114 -96zM140 416q14 -44 14 -102h2q18 45 54 73.5t75 28.5q26 0 46 -18.5t20 -42.5q0 -34 -32 -34q-25 0 -37 36q-8 24 -27 24q-24 0 -55 -34q-28 -31 -35 -64q-6 -23 -6 -74v-72q0 -84 7 -95q11 -20 52 -20h14v-22h-212v22h10
q36 0 47.5 12t11.5 51v165q0 83 -7 96q-10 19 -52 19h-10v22q35 5 113 27z" />
    <glyph glyph-name="Sacute" unicode="S&#x301;" horiz-adv-x="511" 
d="M231 659h-18l54 89q33 55 57 55q30 0 30 -28q0 -18 -31 -41l-9 -6zM54 208h23q18 -96 66 -145q48 -52 120 -52q60 0 98 34q40 35 40 88q0 83 -127 137l-42 18q-107 44 -142 95q-30 44 -30 97q0 68 45 111q48 45 118 45q84 0 146 -66q23 28 24 55h20v-164h-20
q-18 72 -62 112.5t-103 40.5q-50 0 -79 -26t-29 -72q0 -52 55 -91q27 -18 94 -48q81 -36 114 -55q29 -18 49 -44q35 -46 35 -115q0 -75 -56 -125q-56 -48 -140 -48q-103 0 -171 77q-14 -22 -23 -60h-23v201z" />
    <glyph glyph-name="sacute" unicode="s&#x301;" horiz-adv-x="320" 
d="M160 465h-18l53 90q34 54 58 54q29 0 29 -27q0 -18 -30 -41zM32 131h19q33 -114 120 -114q31 0 51.5 20t20.5 51t-20 51q-10 10 -29 16.5t-48 20.5q-76 37 -99 77q-14 26 -14 54q0 23 8.5 43t23.5 34.5t35 23t44 8.5q47 0 83 -42q9 9 19 35h18v-124h-18
q-10 48 -38.5 78.5t-64.5 30.5q-28 0 -47 -17.5t-19 -42.5q0 -14 4.5 -25t15 -21.5t29 -21t45.5 -22.5q75 -34 102 -69q19 -19 19 -60q0 -52 -33.5 -85t-87.5 -33q-52 0 -99 44q-14 -15 -21 -40h-19v130z" />
    <glyph glyph-name="Scircumflex" unicode="S&#x302;" horiz-adv-x="511" 
d="M135 670h-33l118 134h58l118 -134h-32l-115 74zM54 208h23q18 -96 66 -145q48 -52 120 -52q60 0 98 34q40 35 40 88q0 83 -127 137l-42 18q-107 44 -142 95q-30 44 -30 97q0 68 45 111q48 45 118 45q84 0 146 -66q23 28 24 55h20v-164h-20q-18 72 -62 112.5t-103 40.5
q-50 0 -79 -26t-29 -72q0 -52 55 -91q27 -18 94 -48q81 -36 114 -55q29 -18 49 -44q35 -46 35 -115q0 -75 -56 -125q-56 -48 -140 -48q-103 0 -171 77q-14 -22 -23 -60h-23v201z" />
    <glyph glyph-name="scircumflex" unicode="s&#x302;" horiz-adv-x="324" 
d="M48 465h-33l118 158h58l118 -158h-32l-115 98zM32 131h19q33 -114 120 -114q31 0 51.5 20t20.5 51t-20 51q-10 10 -29 16.5t-48 20.5q-76 37 -99 77q-14 26 -14 54q0 23 8.5 43t23.5 34.5t35 23t44 8.5q47 0 83 -42q9 9 19 35h18v-124h-18q-10 48 -38.5 78.5t-64.5 30.5
q-28 0 -47 -17.5t-19 -42.5q0 -14 4.5 -25t15 -21.5t29 -21t45.5 -22.5q75 -34 102 -69q19 -19 19 -60q0 -52 -33.5 -85t-87.5 -33q-52 0 -99 44q-14 -15 -21 -40h-19v130z" />
    <glyph glyph-name="Scedilla" unicode="S&#x327;" horiz-adv-x="511" 
d="M54 208h23q18 -96 66 -145q48 -52 120 -52q60 0 98 34q40 35 40 88q0 83 -127 137l-42 18q-107 44 -142 95q-30 44 -30 97q0 68 45 111q48 45 118 45q84 0 146 -66q23 28 24 55h20v-164h-20q-18 72 -62 112.5t-103 40.5q-50 0 -79 -26t-29 -72q0 -52 55 -91
q27 -18 94 -48q81 -36 114 -55q29 -18 49 -44q35 -46 35 -115q0 -75 -56 -125q-42 -37 -101 -45l-31 -44q61 -22 61 -68q0 -30 -29 -55t-71 -32q-31 -4 -63 -4h-7v20q-2 0 10 1q97 7 97 58q0 38 -61 41l63 80h-8q-103 0 -171 77q-14 -22 -23 -60h-23v201z" />
    <glyph glyph-name="scedilla" unicode="s&#x327;" horiz-adv-x="324" 
d="M32 119h19q33 -102 120 -102q31 0 51.5 20t20.5 39q0 31 -20 51q-10 10 -29 22.5t-48 26.5q-76 37 -99 77q-14 26 -14 54q0 23 8.5 43t23.5 34.5t35 23t44 8.5q47 0 83 -42q9 9 19 35h18v-124h-18q-10 48 -38.5 78.5t-64.5 30.5q-28 0 -47 -17.5t-19 -42.5q0 -14 4.5 -25
t15 -21.5t29 -21t45.5 -22.5q75 -34 98 -68q23 -32 23 -73q0 -40 -34 -73q-24 -23 -58 -30l-30 -44q61 -22 61 -68q0 -30 -29 -55t-72 -31q-30 -5 -62 -5h-7v20q-2 0 10 1q97 7 97 58q0 38 -61 41l63 80q-51 0 -98 44q-14 -15 -21 -40h-19v118z" />
    <glyph glyph-name="Scaron" unicode="S&#x30c;" horiz-adv-x="511" 
d="M389 815l-118 -156h-59l-118 156h33l115 -96l114 96h33zM54 208h23q18 -96 66 -145q48 -52 120 -52q60 0 98 34q40 35 40 88q0 83 -127 137l-42 18q-107 44 -142 95q-30 44 -30 97q0 68 45 111q48 45 118 45q84 0 146 -66q23 28 24 55h20v-164h-20q-18 72 -62 112.5
t-103 40.5q-50 0 -79 -26t-29 -72q0 -52 55 -91q27 -18 94 -48q81 -36 114 -55q29 -18 49 -44q35 -46 35 -115q0 -75 -56 -125q-56 -48 -140 -48q-103 0 -171 77q-14 -22 -23 -60h-23v201z" />
    <glyph glyph-name="scaron" unicode="s&#x30c;" horiz-adv-x="325" 
d="M310 620l-118 -157h-58l-119 157h34l114 -96l115 96h32zM32 131h19q33 -114 120 -114q31 0 51.5 20t20.5 51t-20 51q-10 10 -29 16.5t-48 20.5q-76 37 -99 77q-14 26 -14 54q0 23 8.5 43t23.5 34.5t35 23t44 8.5q47 0 83 -42q9 9 19 35h18v-124h-18q-10 48 -38.5 78.5
t-64.5 30.5q-28 0 -47 -17.5t-19 -42.5q0 -14 4.5 -25t15 -21.5t29 -21t45.5 -22.5q75 -34 102 -69q19 -19 19 -60q0 -52 -33.5 -85t-87.5 -33q-52 0 -99 44q-14 -15 -21 -40h-19v130z" />
    <glyph glyph-name="Tcommaaccent" unicode="T&#x327;" horiz-adv-x="685" 
d="M25 494v158h633v-158h-16q-13 70 -37 102q-15 22 -50 30q-7 1 -22 1.5t-38 0.5h-105v-460q0 -102 12 -124q13 -22 71 -22h32v-22h-130l-31 -44q67 -24 67 -75q0 -33 -32 -60.5t-78 -34.5q-34 -5 -69 -5h-8v21q-2 0 11 1q107 9 107 65q0 42 -67 45l68 87h-162v22h33
q58 0 70 22q13 22 13 124v460h-135q-64 0 -87 -45q-19 -36 -28 -89h-22z" />
    <glyph glyph-name="tcommaaccent" unicode="t&#x327;" horiz-adv-x="295" 
d="M152 393v-237q0 -70 14 -96t49 -26q34 0 64 41l14 -9q-24 -49 -70 -62l-21 -30q64 -23 64 -72q0 -32 -30.5 -58.5t-75.5 -33.5q-32 -5 -66 -5h-8v21q-2 0 11 1q103 8 103 62q0 40 -65 43l52 67h-1q-65 0 -91 50q-14 30 -14 122v222h-61v23q95 4 116 129h16v-129h127v-23
h-127z" />
    <glyph glyph-name="Tcaron" unicode="T&#x30c;" horiz-adv-x="660" 
d="M445 815h32l-118 -156h-58l-118 156h33l114 -96zM24 475v150h609v-150h-16q-12 67 -35 98q-15 21 -48 29q-7 1 -21.5 1.5t-36.5 0.5h-101v-442q0 -99 12 -120t68 -21h31v-21h-312v21h32q56 0 67 21q13 21 13 120v442h-130q-62 0 -84 -43q-18 -35 -27 -86h-21z" />
    <glyph glyph-name="tcaron" unicode="t&#x30c;" horiz-adv-x="295" 
d="M251 735h32l-118 -156h-59l-117 156h32l115 -96zM152 393v-236q0 -70 14 -96t49 -26q34 0 64 41l14 -9q-33 -67 -107 -67q-65 0 -91 50q-14 30 -14 122v221h-61v23q95 4 116 129h16v-129h127v-23h-127z" />
    <glyph glyph-name="Utilde" unicode="U&#x303;" horiz-adv-x="727" 
d="M548 762q-8 -37 -33 -69q-28 -33 -67 -33q-29 0 -75 24t-65 24q-37 0 -55 -47h-22l-1 3q8 41 32 67q29 32 65 32q28 0 75.5 -23.5t66.5 -23.5q34 0 52 49h24l3 -3v0zM708 625v-21q-49 -4 -70.5 -25.5t-21.5 -70.5v-292q0 -107 -53 -158q-70 -68 -198 -68q-157 0 -217 90
q-33 49 -31 133v256q1 95 -11 114q-8 15 -32 20q-4 1 -14 1h-27h-14v21h285v-21h-12q-35 0 -40 -1q-23 -4 -33 -20q-11 -20 -11 -114v-252q0 -123 63 -165q47 -32 116 -32q71 0 127 34q56 36 70 90q8 31 8 69q0 1 0.5 19.5t0.5 35.5v212q0 75 -17 96q-17 24 -78 28v21h210z
" />
    <glyph glyph-name="utilde" unicode="u&#x303;" horiz-adv-x="537" 
d="M390 567q-9 -37 -33 -68q-28 -34 -67 -34q-29 0 -75 24t-65 24q-37 0 -55 -47h-22l-1 3q8 41 32 67q28 32 65 32q28 0 75.5 -23.5t66.5 -23.5q34 0 52 49h24zM453 156q0 -90 7 -100q11 -21 53 -21h4v-23h-10q-62 0 -104 -16h-5q-16 27 -16 96h-2q-62 -96 -162 -96
q-41 0 -75 21.5t-43 54.5q-7 23 -7 72v130q0 85 -8 98q-11 21 -55 21h-6v23h141v-276q0 -61 18 -85.5t63 -24.5q57 0 102 53q22 27 28 51q5 15 5 57v83q0 85 -8 98q-11 21 -55 21h-10v23h145v-260z" />
    <glyph glyph-name="Umacron" unicode="U&#x304;" horiz-adv-x="727" 
d="M235 716h282v-42h-282v42zM708 625v-21q-49 -4 -70.5 -25.5t-21.5 -70.5v-292q0 -107 -53 -158q-70 -68 -198 -68q-157 0 -217 90q-33 49 -31 133v256q1 95 -11 114q-8 15 -32 20q-4 1 -14 1h-27h-14v21h285v-21h-12q-35 0 -40 -1q-23 -4 -33 -20q-11 -20 -11 -114v-252
q0 -123 63 -165q47 -32 116 -32q71 0 127 34q56 36 70 90q8 31 8 69q0 1 0.5 19.5t0.5 35.5v212q0 75 -17 96q-17 24 -78 28v21h210z" />
    <glyph glyph-name="umacron" unicode="u&#x304;" horiz-adv-x="537" 
d="M88 517h282v-42h-282v42zM453 156q0 -90 7 -100q11 -21 53 -21h4v-23h-10q-62 0 -104 -16h-5q-16 27 -16 96h-2q-62 -96 -162 -96q-41 0 -75 21.5t-43 54.5q-7 23 -7 72v130q0 85 -8 98q-11 21 -55 21h-6v23h141v-276q0 -61 18 -85.5t63 -24.5q57 0 102 53q22 27 28 51
q5 15 5 57v83q0 85 -8 98q-11 21 -55 21h-10v23h145v-260z" />
    <glyph glyph-name="Ubreve" unicode="U&#x306;" horiz-adv-x="727" 
d="M516 808q-3 -65 -33 -106q-35 -46 -97 -46q-78 0 -112 70q-17 34 -19 82l4 4h24q7 -43 33 -70q29 -28 70 -28t69 28q26 27 33 70h25l3 -4v0zM708 625v-21q-49 -4 -70.5 -25.5t-21.5 -70.5v-292q0 -107 -53 -158q-70 -68 -198 -68q-157 0 -217 90q-33 49 -31 133v256
q1 95 -11 114q-8 15 -32 20q-4 1 -14 1h-27h-14v21h285v-21h-12q-35 0 -40 -1q-23 -4 -33 -20q-11 -20 -11 -114v-252q0 -123 63 -165q47 -32 116 -32q71 0 127 34q56 36 70 90q8 31 8 69q0 1 0.5 19.5t0.5 35.5v212q0 75 -17 96q-17 24 -78 28v21h210z" />
    <glyph glyph-name="ubreve" unicode="u&#x306;" horiz-adv-x="537" 
d="M380 627q-3 -64 -32 -106q-36 -46 -98 -46q-78 0 -112 70q-17 35 -19 82l4 4h24q7 -42 34 -69q28 -28 69 -28t69 28q27 27 33 69h25zM453 156q0 -90 7 -100q11 -21 53 -21h4v-23h-10q-62 0 -104 -16h-5q-16 27 -16 96h-2q-62 -96 -162 -96q-41 0 -75 21.5t-43 54.5
q-7 23 -7 72v130q0 85 -8 98q-11 21 -55 21h-6v23h141v-276q0 -61 18 -85.5t63 -24.5q57 0 102 53q22 27 28 51q5 15 5 57v83q0 85 -8 98q-11 21 -55 21h-10v23h145v-260z" />
    <glyph glyph-name="Uring" unicode="U&#x30a;" horiz-adv-x="727" 
d="M374 817q36 0 62.5 -26t26.5 -62q0 -35 -25 -59.5t-61 -24.5q-37 0 -62.5 24.5t-25.5 59.5q0 37 24.5 62.5t60.5 25.5zM375 792q-25 0 -42 -18.5t-17 -44.5q0 -24 17.5 -41.5t41.5 -17.5q26 0 43.5 16.5t17.5 40.5q0 27 -18 46t-43 19zM708 625v-21q-49 -4 -70.5 -25.5
t-21.5 -70.5v-292q0 -107 -53 -158q-70 -68 -198 -68q-157 0 -217 90q-33 49 -31 133v256q1 95 -11 114q-8 15 -32 20q-4 1 -14 1h-27h-14v21h285v-21h-12q-35 0 -40 -1q-23 -4 -33 -20q-11 -20 -11 -114v-252q0 -123 63 -165q47 -32 116 -32q71 0 127 34q56 36 70 90
q8 31 8 69q0 1 0.5 19.5t0.5 35.5v212q0 75 -17 96q-17 24 -78 28v21h210z" />
    <glyph glyph-name="uring" unicode="u&#x30a;" horiz-adv-x="537" 
d="M233 638q37 0 63 -26t26 -62q0 -35 -25 -60t-60 -25q-37 0 -63 25t-26 60q0 37 25 62.5t60 25.5zM234 612q-25 0 -42 -18t-17 -44q0 -25 17.5 -42t42.5 -17t42.5 16t17.5 40q0 28 -18 46.5t-43 18.5zM453 156q0 -90 7 -100q11 -21 53 -21h4v-23h-10q-62 0 -104 -16h-5
q-16 27 -16 96h-2q-62 -96 -162 -96q-41 0 -75 21.5t-43 54.5q-7 23 -7 72v130q0 85 -8 98q-11 21 -55 21h-6v23h141v-276q0 -61 18 -85.5t63 -24.5q57 0 102 53q22 27 28 51q5 15 5 57v83q0 85 -8 98q-11 21 -55 21h-10v23h145v-260z" />
    <glyph glyph-name="Uhungarumlaut" unicode="U&#x30b;" horiz-adv-x="727" 
d="M708 625v-21q-49 -4 -70.5 -25.5t-21.5 -70.5v-292q0 -107 -53 -158q-70 -68 -198 -68q-157 0 -217 90q-33 49 -31 133v256q1 95 -11 114q-8 15 -32 20q-4 1 -14 1h-27h-14v21h285v-21h-12q-35 0 -40 -1q-23 -4 -33 -20q-11 -20 -11 -114v-252q0 -123 63 -165
q47 -32 116 -32q71 0 127 34q56 36 70 90q8 31 8 69q0 1 0.5 19.5t0.5 35.5v212q0 75 -17 96q-17 24 -78 28v21h210zM242 645l131 131q20 20 31 27q17 4 19 4q6 0 16 -3q13 -8 14 -18q2 -17 -12.5 -27l-29.5 -20l-135 -94h-34zM376 645l130 131q20 20 31 27q17 4 19 4
q6 0 16 -3q13 -8 14 -18q2 -17 -12 -27l-29 -20l-136 -94h-33z" />
    <glyph glyph-name="uhungarumlaut" unicode="u&#x30b;" horiz-adv-x="537" 
d="M81 465l130 132q20 19 32 26q17 4 18 4q7 0 16 -3q14 -8 15 -18q1 -17 -13 -27t-29 -19l-136 -95h-33zM214 465l131 132q19 19 30 26q18 4 20 4q6 0 16 -3q13 -8 14 -18q2 -17 -12.5 -27t-29.5 -19l-135 -95h-34zM453 156q0 -90 7 -100q11 -21 53 -21h4v-23h-10
q-62 0 -104 -16h-5q-16 27 -16 96h-2q-62 -96 -162 -96q-41 0 -75 21.5t-43 54.5q-7 23 -7 72v130q0 85 -8 98q-11 21 -55 21h-6v23h141v-276q0 -61 18 -85.5t63 -24.5q57 0 102 53q22 27 28 51q5 15 5 57v83q0 85 -8 98q-11 21 -55 21h-10v23h145v-260z" />
    <glyph glyph-name="Uogonek" unicode="U&#x328;" horiz-adv-x="764" 
d="M509 -97q-62 -56 -112 -56q-26 0 -44.5 18.5t-18.5 46.5q0 48 45 77q-161 2 -224 95q-34 51 -32 140v268q1 100 -12 120q-8 16 -33 21q-5 1 -15 1h-43v22h299v-22h-12q-37 0 -42 -1q-25 -4 -35 -21q-12 -21 -12 -120v-264q0 -129 67 -173q49 -34 121 -34q75 0 134 36
q58 37 73 94q9 33 9 73q0 1 0.5 20.5t0.5 36.5v223q0 79 -18 101q-18 25 -82 29v22h220v-22q-51 -4 -73.5 -26.5t-22.5 -74.5v-306q0 -113 -56 -166q-64 -62 -172 -70q-39 -31 -39 -62q0 -17 12 -28.5t29 -11.5q37 0 72 34z" />
    <glyph glyph-name="uogonek" unicode="u&#x328;" horiz-adv-x="537" 
d="M453 156q0 -90 7 -100q11 -21 53 -21h4v-23h-10q-62 0 -104 -16h-2q-25 -24 -25 -50q0 -16 11.5 -27.5t27.5 -11.5q35 0 69 34l15 -20q-59 -53 -107 -53q-25 0 -42.5 18t-17.5 44q0 47 47 75h6q-3 30 -3 87h-2q-62 -96 -162 -96q-41 0 -75 21.5t-43 54.5q-7 23 -7 72v130
q0 85 -8 98q-11 21 -55 21h-6v23h141v-276q0 -61 18 -85.5t63 -24.5q57 0 102 53q22 27 28 51q5 15 5 57v83q0 85 -8 98q-11 21 -55 21h-10v23h145v-260z" />
    <glyph glyph-name="Wcircumflex" unicode="W&#x302;" horiz-adv-x="892" 
d="M361 640h-32l117 157h59l118 -157h-32l-115 97zM630 -14l-189 514h-2l-166 -514h-21l-165 533q-14 47 -30.5 65t-49.5 19l-7 1v21h234v-21q-1 -1 -5 -1q-36 -3 -48.5 -11t-12.5 -27q0 -15 8 -42l132 -396l-8 -3l162 501h26l183 -501h2l105 370q8 26 8 49q0 61 -65 61v21
h171v-21q-42 -4 -61 -33q-15 -26 -42 -115l-138 -470h-21z" />
    <glyph glyph-name="wcircumflex" unicode="w&#x302;" horiz-adv-x="703" 
d="M254 465h-33l118 158h58l118 -158h-32l-115 98zM476 -2l-124 316l-126 -316h-22l-140 350q-18 45 -57 45h-6v23h190v-23h-7q-48 0 -48 -27q0 -9 9 -32l103 -234l121 316h19l124 -319l102 248q6 15 6 20q0 26 -52 28v23h135v-23q-29 -2 -41 -11.5t-24 -37.5q-2 -5 -4 -13
t-7 -17l-129 -316h-22z" />
    <glyph glyph-name="Ycircumflex" unicode="Y&#x302;" horiz-adv-x="639" 
d="M220 661h-33l118 132h58l118 -132h-32l-115 72zM494 506q14 22 14 46q0 52 -69 52h-4v21h204v-21q-42 -8 -70 -34q-26 -25 -65 -91l-140 -234v-83q0 -99 11 -120q13 -21 68 -21h9v-21h-266v21h9q57 0 68 21q12 21 12 120v78l-182 297q-25 40 -42 53q-14 12 -51 14v21h253
v-21h-5q-66 0 -66 -32q0 -14 24 -52l149 -247z" />
    <glyph glyph-name="ycircumflex" unicode="y&#x302;" horiz-adv-x="481" 
d="M123 465h-33l118 158h58l118 -158h-32l-115 98zM384 343q8 15 8 25q0 23 -57 25v23h146v-23q-33 -2 -49 -18t-39 -73l-185 -445q-27 -62 -46 -86t-46 -24q-32 0 -32 30q0 32 53 58q29 13 39 24q10 7 21 34l40 99l-156 333q-21 45 -34 56q-15 11 -46 12v23h191v-23
q-51 -2 -51 -21q0 -8 10 -28l123 -264z" />
    <glyph glyph-name="Ydieresis" unicode="Y&#x308;" horiz-adv-x="635" 
d="M494 506q14 22 14 46q0 52 -69 52h-4v21h204v-21q-42 -8 -70 -34q-26 -25 -65 -91l-140 -234v-83q0 -99 11 -120q13 -21 68 -21h9v-21h-266v21h9q57 0 68 21q12 21 12 120v78l-182 297q-25 40 -42 53q-14 12 -51 14v21h253v-21h-5q-66 0 -66 -32q0 -14 24 -52l149 -247z
M239 745q15 0 25.5 -10.5t10.5 -24.5q0 -16 -10 -28t-25 -12q-16 0 -27 11.5t-11 27.5q0 15 11 25.5t26 10.5zM407 744q15 0 25.5 -11t10.5 -26t-10.5 -26t-24.5 -11q-16 0 -27.5 11.5t-11.5 26.5t11 25.5t27 10.5z" />
    <glyph glyph-name="Zacute" unicode="Z&#x301;" horiz-adv-x="600" 
d="M231 663l54 89q32 55 57 55q30 0 30 -27q0 -17 -31 -42l-91 -75h-19zM28 16l404 588h-194q-65 0 -83 -6q-17 -5 -36 -27q-29 -38 -45 -90h-20l20 144h464v-21l-398 -583h190q65 0 83 3q46 7 71 39q27 34 50 98h21l-21 -161h-506v16z" />
    <glyph glyph-name="zacute" unicode="&#x7a;&#x301;" horiz-adv-x="404" 
d="M141 465l53 90q33 55 58 55q29 0 29 -27q0 -18 -30 -42l-91 -76h-19zM27 16l276 377h-151q-40 0 -56 -15q-17 -15 -36 -71l-2 -6h-18l6 115h348v-19l-274 -374h113h34q15 0 20 1q31 4 48 23q25 28 47 85h19l-12 -132h-362v16z" />
    <glyph glyph-name="Zdotaccent" unicode="Z&#x307;" horiz-adv-x="599" 
d="M28 16l404 588h-194q-65 0 -83 -6q-17 -5 -36 -27q-29 -38 -45 -90h-20l20 144h464v-21l-398 -583h190q65 0 83 3q46 7 71 39q27 34 50 98h21l-21 -161h-506v16zM302 674q-21 0 -36.5 14.5t-15.5 36.5q0 20 15.5 35.5t36.5 15.5t36 -15t15 -36q0 -22 -15.5 -36.5
t-35.5 -14.5z" />
    <glyph glyph-name="zdotaccent" unicode="&#x7a;&#x307;" horiz-adv-x="404" 
d="M207 465q-21 0 -36.5 15t-15.5 37q0 20 15.5 35t36.5 15t35.5 -14.5t14.5 -35.5q0 -22 -15 -37t-35 -15zM27 16l276 377h-151q-40 0 -56 -15q-17 -15 -36 -71l-2 -6h-18l6 115h348v-19l-274 -374h113h34q15 0 20 1q31 4 48 23q25 28 47 85h19l-12 -132h-362v16z" />
    <glyph glyph-name="Zcaron" unicode="Z&#x30c;" horiz-adv-x="600" 
d="M439 822h32l-118 -157h-59l-117 157h32l115 -96zM28 16l404 588h-194q-65 0 -83 -6q-17 -5 -36 -27q-29 -38 -45 -90h-20l20 144h464v-21l-398 -583h190q65 0 83 3q46 7 71 39q27 34 50 98h21l-21 -161h-506v16z" />
    <glyph glyph-name="zcaron" unicode="&#x7a;&#x30c;" horiz-adv-x="404" 
d="M335 622h32l-118 -157h-59l-117 157h32l115 -96zM27 16l276 377h-151q-40 0 -56 -15q-17 -15 -36 -71l-2 -6h-18l6 115h348v-19l-274 -374h113h34q15 0 20 1q31 4 48 23q25 28 47 85h19l-12 -132h-362v16z" />
    <glyph glyph-name="uni01D7" unicode="U&#x308;&#x301;" horiz-adv-x="727" 
d="M313 746q15 0 25.5 -10.5t10.5 -24.5q0 -16 -10 -28t-26 -12t-27 11.5t-11 27.5q0 15 11 25.5t27 10.5zM480 745q16 0 26.5 -11t10.5 -26t-10.5 -26t-25.5 -11q-16 0 -27.5 11.5t-11.5 26.5t11 25.5t27 10.5zM708 625v-21q-49 -4 -70.5 -25.5t-21.5 -70.5v-292
q0 -107 -53 -158q-70 -68 -198 -68q-157 0 -217 90q-33 49 -31 133v256q1 95 -11 114q-8 15 -32 20q-4 1 -14 1h-27h-14v21h285v-21h-12q-35 0 -40 -1q-23 -4 -33 -20q-11 -20 -11 -114v-252q0 -123 63 -165q47 -32 116 -32q71 0 127 34q56 36 70 90q8 31 8 69q0 1 0.5 19.5
t0.5 35.5v212q0 75 -17 96q-17 24 -78 28v21h210zM387 721h-18l53 90q33 54 58 54q29 0 29 -27q0 -18 -30 -41z" />
    <glyph glyph-name="uni01D8" unicode="u&#x308;&#x301;" horiz-adv-x="537" 
d="M153 540q15 0 25.5 -10.5t10.5 -24.5q0 -16 -10 -28t-25 -12q-16 0 -27 11.5t-11 27.5q0 15 11 25.5t26 10.5zM321 539q15 0 25.5 -11t10.5 -26t-10.5 -26t-24.5 -11q-16 0 -27.5 11.5t-11.5 26.5t11 25.5t27 10.5zM453 156q0 -90 7 -100q11 -21 53 -21h4v-23h-10
q-62 0 -104 -16h-5q-16 27 -16 96h-2q-62 -96 -162 -96q-41 0 -75 21.5t-43 54.5q-7 23 -7 72v130q0 85 -8 98q-11 21 -55 21h-6v23h141v-276q0 -61 18 -85.5t63 -24.5q57 0 102 53q22 27 28 51q5 15 5 57v83q0 85 -8 98q-11 21 -55 21h-10v23h145v-260zM233 517h-18l53 90
q33 54 58 54q29 0 29 -27q0 -18 -30 -41z" />
    <glyph glyph-name="uni01DB" unicode="U&#x308;&#x300;" horiz-adv-x="727" 
d="M313 746q15 0 25.5 -10.5t10.5 -24.5q0 -16 -10 -28t-26 -12t-27 11.5t-11 27.5q0 15 11 25.5t27 10.5zM480 745q16 0 26.5 -11t10.5 -26t-10.5 -26t-25.5 -11q-16 0 -27.5 11.5t-11.5 26.5t11 25.5t27 10.5zM708 625v-21q-49 -4 -70.5 -25.5t-21.5 -70.5v-292
q0 -107 -53 -158q-70 -68 -198 -68q-157 0 -217 90q-33 49 -31 133v256q1 95 -11 114q-8 15 -32 20q-4 1 -14 1h-27h-14v21h285v-21h-12q-35 0 -40 -1q-23 -4 -33 -20q-11 -20 -11 -114v-252q0 -123 63 -165q47 -32 116 -32q71 0 127 34q56 36 70 90q8 31 8 69q0 1 0.5 19.5
t0.5 35.5v212q0 75 -17 96q-17 24 -78 28v21h210zM320 794q-30 24 -30 41q0 27 30 27q25 0 57 -54l53 -90h-18z" />
    <glyph glyph-name="uni01DC" unicode="u&#x308;&#x300;" horiz-adv-x="537" 
d="M153 540q15 0 25.5 -10.5t10.5 -24.5q0 -16 -10 -28t-25 -12q-16 0 -27 11.5t-11 27.5q0 15 11 25.5t26 10.5zM321 539q15 0 25.5 -11t10.5 -26t-10.5 -26t-24.5 -11q-16 0 -27.5 11.5t-11.5 26.5t11 25.5t27 10.5zM453 156q0 -90 7 -100q11 -21 53 -21h4v-23h-10
q-62 0 -104 -16h-5q-16 27 -16 96h-2q-62 -96 -162 -96q-41 0 -75 21.5t-43 54.5q-7 23 -7 72v130q0 85 -8 98q-11 21 -55 21h-6v23h141v-276q0 -61 18 -85.5t63 -24.5q57 0 102 53q22 27 28 51q5 15 5 57v83q0 85 -8 98q-11 21 -55 21h-10v23h145v-260zM158 601
q-30 24 -30 41q0 27 30 27q25 0 57 -54l53 -90h-18z" />
    <glyph glyph-name="uni01E2" unicode="&#xc6;&#x304;" horiz-adv-x="891" 
d="M355 565q20 35 18 46q-4 15 -66 15h-26v29h299q26 -5 70 -3q52 3 69 3q91 2 125 -5q-13 -54 -18 -143h-30q0 64 -3 77q-3 18 -25 23q-7 2 -37 5q-22 2 -101 2q-38 0 -95 -7q-5 -29 -5 -78v-177q22 0 65 -1q35 -1 51 -1q71 0 87 13.5t17 67.5h31v-218h-31q0 63 -13 79
q-17 19 -84 19q-22 0 -123 -4v-264q19 0 68 -2q43 -2 68 -2q126 0 140 26q4 14 10 43l9 48h31q-6 -50 -8 -86q0 -8 -3 -37q-2 -22 -2 -33q-39 -6 -139 -4q-20 0 -76 3q-48 1 -77 1q-68 0 -155 -4v27q51 7 51 60v139q-59 5 -109 5q-53 0 -109 -5q-11 -1 -68 -119
q-2 -5 -16 -28q-10 -16 -10 -24q0 -11 26 -21q19 -7 42 -7h11v-27q-58 4 -106 4q-47 0 -106 -4v27q31 0 49 15q13 11 32 44zM447 617l-119 -206l-77 -144h196v350zM400 733h282v-42h-282v42z" />
    <glyph glyph-name="uni01E3" unicode="&#xe6;&#x304;" horiz-adv-x="625" 
d="M169 517h282v-42h-282v42zM267 238q-1 128 -97 128q-18 0 -40 -4q-28 -8 -33 -20q-1 -2 -14 -33l-5 -13l-21 5v54q28 18 68.5 39.5t72.5 21.5q78 0 118 -62q70 62 131 62q71 0 114 -42t43 -116q0 -17 -3 -36q-5 -8 -46 -13q-33 -3 -66 -3h-157q0 -76 35 -113
q37 -50 109 -50q47 0 110 39l6 -8l-15 -31q-25 -20 -63.5 -32.5t-69.5 -12.5q-112 0 -161 94l-100 -84q-50 -10 -48 -10q-45 0 -75 26q-35 30 -35 79q0 46 23 71q19 21 67.5 36t105.5 22zM267 209q-55 -7 -78 -11q-43 -11 -72 -28q-20 -18 -20 -48q0 -68 73 -68q51 0 97 64
v91zM531 241q6 145 -96 145q-96 0 -103 -144q21 -5 70 -4z" />
    <glyph glyph-name="Gcaron" unicode="G&#x30c;" horiz-adv-x="721" 
d="M483 815h32l-118 -157h-58l-118 157h33l114 -96zM706 267v-23h-8q-55 0 -68 -20q-11 -22 -11 -120v-66q-5 1 -9 1.5t-8 0.5q-38 0 -107 -26q-71 -24 -134 -24q-134 0 -223 87.5t-89 222.5q0 34 7 69t19.5 67t30 60.5t39.5 51.5q84 88 224 88q123 0 203 -92q7 17 12 34
t6 36h23v-209h-23q-6 48 -25 86.5t-47 65.5t-65 41.5t-80 14.5q-30 0 -57.5 -8t-51.5 -22t-43.5 -34t-32.5 -44q-33 -68 -33 -189q0 -170 68 -241q57 -64 147 -64q54 0 94.5 20.5t54.5 55.5q10 25 10 62q0 50 -4 61q-9 30 -46 33q-4 1 -12 1h-16h-15v23h270z" />
    <glyph glyph-name="gcaron" unicode="g&#x30c;" horiz-adv-x="442" 
d="M335 622h32l-118 -157h-59l-117 157h32l115 -96zM123 259q0 -122 92 -122q90 0 90 127q0 129 -91 129t-91 -134zM230 35q125 -7 167 -46q36 -35 36 -87q0 -70 -53 -108.5t-152 -38.5q-89 0 -145 35q-55 34 -55 89q0 31 16.5 49.5t43.5 18.5q4 0 15 -3q-31 -34 -31 -72
q0 -43 43 -70t115 -27t113 27t41 75q0 39 -27 62q-19 16 -45 22q-13 2 -36 4t-55 4q-98 4 -136 25q-31 16 -31 53q0 66 89 81q-93 54 -93 139q0 62 47 106q46 43 115 43q81 0 131 -51q41 51 85 51q20 0 34 -12t14 -29q0 -32 -29 -32q-16 0 -28 19q-11 20 -23 20
q-17 0 -41 -30q26 -41 26 -85q0 -48 -26 -84.5t-71 -53.5q-34 -13 -87 -14q-104 -5 -104 -42q0 -18 22 -25q11 -4 31.5 -6.5t51.5 -4.5z" />
    <glyph glyph-name="uni01F8" unicode="N&#x300;" horiz-adv-x="708" 
d="M142 571h-2v-464q0 -47 24 -66.5t85 -19.5v-21h-233v21q67 4 84 24t17 93v331q0 93 -13 114t-75 21h-5v21h184l368 -489h2v373q0 28 -5 46t-17 28.5t-32.5 15.5t-51.5 5v21h226v-21q-58 -5 -78 -26q-19 -20 -19 -75v-516h-20zM300 729q-30 24 -30 41q0 27 30 27
q26 0 57 -54l54 -90h-19z" />
    <glyph glyph-name="uni01F9" unicode="n&#x300;" horiz-adv-x="500" 
d="M197 541q-30 24 -30 41q0 27 30 27q26 0 57 -54l54 -90h-18zM148 416q4 -17 8 -37.5t5 -46.5q69 84 153 84q91 0 116 -70q10 -25 10 -45v-165q0 -81 6 -94q12 -20 54 -20h6v-22h-205v22h10q36 0 48 11.5t12 51.5v214q0 85 -84 85q-69 0 -126 -85v-163q0 -84 6 -94
q13 -20 54 -20h6v-22h-203v22h8q35 0 47 11.5t12 51.5v171q0 84 -6 95q-9 19 -53 19h-8v23q58 6 101 19l9 4h14z" />
    <glyph glyph-name="Aringacute" unicode="&#xc5;&#x301;" horiz-adv-x="650" 
d="M312 796h-13l38 62q23 39 40 39q21 0 21 -19q0 -13 -21 -29zM311 772q25 0 44 -18t19 -43q0 -24 -17.5 -41.5t-42.5 -17.5q-26 0 -44 17.5t-18 41.5q0 26 17.5 43.5t41.5 17.5zM312 755q-17 0 -29 -13t-12 -31q0 -17 12 -29t30 -12q17 0 29 11.5t12 27.5q0 20 -12 33
t-30 13zM289 517l-110 -266h220zM170 230l-35 -84q-17 -42 -17 -68q0 -25 18 -41t46 -16h4v-21h-186v21q49 8 72 42l10 16.5t8 17.5l8 18.5t12 30.5q6 13 23 54l181 434h18l229 -542q15 -39 32 -54q15 -13 53 -17v-21h-247v21h26q52 0 52 34q0 8 -11 34l-58 141h-238z" />
    <glyph glyph-name="aringacute" unicode="&#xe5;&#x301;" horiz-adv-x="467" 
d="M207 642l53 89q32 55 58 55q29 0 29 -28q0 -16 -30 -41l-91 -75h-19zM214 621q19 0 35 -7.5t28.5 -19t19.5 -27.5t7 -34q0 -17 -6.5 -32.5t-18.5 -27.5t-27.5 -18.5t-33.5 -6.5t-34.5 6.5t-28 18.5t-19 27.5t-7.5 32.5q0 19 7 34.5t18.5 27.5t27 19t32.5 7zM215 595
q-25 0 -41.5 -17.5t-16.5 -44.5q0 -25 17 -42t42 -17q26 0 43 16.5t17 39.5q0 28 -17.5 46.5t-43.5 18.5zM244 222q-125 -51 -125 -120q0 -70 60 -70q43 0 119 62v150zM458 81q-5 -81 -82 -81q-65 0 -78 68q-99 -68 -161 -68q-42 0 -70 23t-28 58q0 52 67 95q48 31 116 61
l76 30v20q0 61 -20 84.5t-72 23.5q-73 0 -80 -44l-2 -11q-9 -44 -42 -44q-28 0 -28 29q0 35 47 63q48 28 113 28q121 0 147 -75q7 -17 7 -65v-189q0 -54 32 -54q31 0 40 48h18z" />
    <glyph glyph-name="AEacute" unicode="&#xc6;&#x301;" horiz-adv-x="891" 
d="M355 565q20 35 18 46q-4 15 -66 15h-26v29h299q26 -5 70 -3q52 3 69 3q91 2 125 -5q-13 -54 -18 -143h-30q0 64 -3 77q-3 18 -25 23q-7 2 -37 5q-22 2 -101 2q-38 0 -95 -7q-5 -29 -5 -78v-177q22 0 65 -1q35 -1 51 -1q71 0 87 13.5t17 67.5h31v-218h-31q0 63 -13 79
q-17 19 -84 19q-22 0 -123 -4v-264q19 0 68 -2q43 -2 68 -2q126 0 140 26q4 14 10 43l9 48h31q-6 -50 -8 -86q0 -8 -3 -37q-2 -22 -2 -33q-39 -6 -139 -4q-20 0 -76 3q-48 1 -77 1q-68 0 -155 -4v27q51 7 51 60v139q-59 5 -109 5q-53 0 -109 -5q-11 -1 -68 -119
q-2 -5 -16 -28q-10 -16 -10 -24q0 -11 26 -21q19 -7 42 -7h11v-27q-58 4 -106 4q-47 0 -106 -4v27q31 0 49 15q13 11 32 44zM447 617l-119 -206l-77 -144h196v350zM528 678h-18l54 90q33 54 57 54q30 0 30 -27q0 -18 -31 -41z" />
    <glyph glyph-name="aeacute" unicode="&#xe6;&#x301;" horiz-adv-x="625" 
d="M346 465h-18l53 90q34 54 58 54q29 0 29 -27q0 -18 -30 -41zM267 238q-1 128 -97 128q-18 0 -40 -4q-28 -8 -33 -20q-1 -2 -14 -33l-5 -13l-21 5v54q28 18 68.5 39.5t72.5 21.5q78 0 118 -62q70 62 131 62q71 0 114 -42t43 -116q0 -17 -3 -36q-5 -8 -46 -13
q-33 -3 -66 -3h-157q0 -76 35 -113q37 -50 109 -50q47 0 110 39l6 -8l-15 -31q-25 -20 -63.5 -32.5t-69.5 -12.5q-112 0 -161 94l-100 -84q-50 -10 -48 -10q-45 0 -75 26q-35 30 -35 79q0 46 23 71q19 21 67.5 36t105.5 22zM267 209q-55 -7 -78 -11q-43 -11 -72 -28
q-20 -18 -20 -48q0 -68 73 -68q51 0 97 64v91zM531 241q6 145 -96 145q-96 0 -103 -144q21 -5 70 -4z" />
    <glyph glyph-name="Oslashacute" unicode="&#xd8;&#x301;" horiz-adv-x="776" 
d="M567 535q-5 7 -20 30l-263 -531q48 -23 115 -23q108 0 168 77.5t60 217.5q0 151 -60 229zM503 589q-47 24 -111 24q-115 0 -174 -77t-59 -223q0 -125 41 -201q15 -28 42 -50zM583 636l-20 -39q11 -5 20 -10q28 -15 51 -35q99 -88 99 -254q0 -133 -96 -221
q-95 -87 -239 -87q-70 0 -127 17l-11 -17h-55l19 35q-43 21 -77 54q-94 89 -94 238q0 141 94 229q96 90 245 90q33 0 67 -6q30 -5 58 -14l9 20h57zM405 669h-18l54 90q33 54 57 54q30 0 30 -27q0 -18 -31 -41z" />
    <glyph glyph-name="oslashacute" unicode="&#xf8;&#x301;" horiz-adv-x="473" 
d="M233 465h-19l54 90q33 54 58 54q29 0 29 -27q0 -18 -30 -41zM365 469h60l-51 -95q13 -10 25 -22q62 -62 62 -152q0 -79 -61 -140q-59 -60 -153 -60q-41 0 -77 13l-42 -76h-59l52 98q-13 11 -27 25q-59 61 -59 140q0 91 60 152q63 64 152 64q43 0 82 -17zM117 198
q0 -75 27 -123l170 299q-28 18 -67 18q-130 0 -130 -194zM247 21q69 0 100 45.5t31 131.5q0 87 -27 136l-168 -298q28 -15 64 -15z" />
    <glyph glyph-name="Scommaaccent" unicode="S&#x326;" horiz-adv-x="511" 
d="M54 208h23q18 -96 66 -145q48 -52 120 -52q60 0 98 34q40 35 40 88q0 83 -127 137l-42 18q-107 44 -142 95q-30 44 -30 97q0 68 45 111q48 45 118 45q84 0 146 -66q23 28 24 55h20v-164h-20q-18 72 -62 112.5t-103 40.5q-50 0 -79 -26t-29 -72q0 -52 55 -91
q27 -18 94 -48q81 -36 114 -55q29 -18 49 -44q35 -46 35 -115q0 -75 -56 -125q-56 -48 -140 -48q-103 0 -171 77q-14 -22 -23 -60h-23v201zM208 -239v17q45 10 74.5 33.5t29.5 50.5q0 22 -20 22h-9l-7 -3h-4h-5q-20 0 -33.5 8.5t-13.5 21.5q0 34 48 34q31 0 51.5 -20
t20.5 -50q0 -40 -36 -72t-96 -42z" />
    <glyph glyph-name="scommaaccent" unicode="s&#x326;" horiz-adv-x="324" 
d="M103 -239v17q45 10 74.5 33.5t29.5 50.5q0 22 -20 22h-9l-7 -3h-4h-5q-20 0 -33.5 8.5t-13.5 21.5q0 34 48 34q31 0 51.5 -20t20.5 -50q0 -40 -36 -72t-96 -42zM32 131h19q33 -114 120 -114q31 0 51.5 20t20.5 51t-20 51q-10 10 -29 16.5t-48 20.5q-76 37 -99 77
q-14 26 -14 54q0 23 8.5 43t23.5 34.5t35 23t44 8.5q47 0 83 -42q9 9 19 35h18v-124h-18q-10 48 -38.5 78.5t-64.5 30.5q-28 0 -47 -17.5t-19 -42.5q0 -14 4.5 -25t15 -21.5t29 -21t45.5 -22.5q75 -34 102 -69q19 -19 19 -60q0 -52 -33.5 -85t-87.5 -33q-52 0 -99 44
q-14 -15 -21 -40h-19v130z" />
    <glyph glyph-name="uni021A" unicode="T&#x326;" horiz-adv-x="685" 
d="M25 494v158h633v-158h-16q-13 70 -37 102q-15 22 -50 30q-7 1 -22 1.5t-38 0.5h-105v-460q0 -102 12 -124q13 -22 71 -22h32v-22h-324v22h33q58 0 70 22q13 22 13 124v460h-135q-64 0 -87 -45q-19 -36 -28 -89h-22zM275 -238v18q46 11 77 35t31 52q0 23 -21 23h-9l-8 -3
h-4h-5q-21 0 -35 9t-14 22q0 36 50 36q32 0 53.5 -21t21.5 -52q0 -42 -37.5 -75t-99.5 -44z" />
    <glyph glyph-name="uni021B" unicode="t&#x326;" horiz-adv-x="295" 
d="M105 -239v17q45 10 74.5 33.5t29.5 50.5q0 22 -20 22h-9l-7 -3h-4h-5q-20 0 -33.5 8.5t-13.5 21.5q0 34 48 34q31 0 51.5 -20t20.5 -50q0 -40 -36 -72t-96 -42zM152 393v-236q0 -70 14 -96t49 -26q34 0 64 41l14 -9q-33 -67 -107 -67q-65 0 -91 50q-14 30 -14 122v221
h-61v23q95 4 116 129h16v-129h127v-23h-127z" />
    <glyph glyph-name="uni0232" unicode="Y&#x304;" horiz-adv-x="639" 
d="M494 506q14 22 14 46q0 52 -69 52h-4v21h204v-21q-42 -8 -70 -34q-26 -25 -65 -91l-140 -234v-83q0 -99 11 -120q13 -21 68 -21h9v-21h-266v21h9q57 0 68 21q12 21 12 120v78l-182 297q-25 40 -42 53q-14 12 -51 14v21h253v-21h-5q-66 0 -66 -32q0 -14 24 -52l149 -247z
M197 713h282v-42h-282v42z" />
    <glyph glyph-name="uni0233" unicode="y&#x304;" horiz-adv-x="481" 
d="M91 507h283v-42h-283v42zM384 343q8 15 8 25q0 23 -57 25v23h146v-23q-33 -2 -49 -18t-39 -73l-185 -445q-27 -62 -46 -86t-46 -24q-32 0 -32 30q0 32 53 58q29 13 39 24q10 7 21 34l40 99l-156 333q-21 45 -34 56q-15 11 -46 12v23h191v-23q-51 -2 -51 -21q0 -8 10 -28
l123 -264z" />
    <glyph glyph-name="dieresistonos" unicode="&#xa8;&#x301;" horiz-adv-x="314" 
d="M126 557q14 43 25.5 85.5t24.5 85.5q6 19 31 22q47 0 50 -37q0 -8 -4 -18l-101 -146l-26 8v0zM291 535q0 -19 -14.5 -32.5t-32.5 -13.5q-19 0 -33.5 13.5t-14.5 32.5t15 33.5t33 14.5t32.5 -14.5t14.5 -33.5zM9 535q0 19 14.5 33.5t32.5 14.5q19 0 33 -14.5t14 -33.5
t-14 -32.5t-33 -13.5t-33 13.5t-14 32.5z" />
    <glyph glyph-name="Alphatonos" unicode="&#x391;&#x301;" horiz-adv-x="716" 
d="M443 321l-75 215l-87 -215h162zM376 680l294 -680h-100l-94 247h-231l-104 -247h-99l316 680h18zM151 662q6 20 31 22q47 0 49 -37q1 -6 -3 -17l-101 -147l-25 8l49 171v0z" />
    <glyph glyph-name="Epsilontonos" unicode="&#x395;&#x301;" horiz-adv-x="715" 
d="M198 658q0 26 28 28q13 0 36 -3q26 -3 36 -3h346q16 0 16 -30t-28 -48q-8 -7 -36 7q-30 15 -38 14h-259v-231h267q15 0 16 -44q1 -19 -7 -30q-3 -6 -12 -7h-265v-249h275l69 24q13 -1 22 -18q6 -12 6 -29q0 -39 -26 -39h-448q7 69 9 211q2 74 -3 223q-2 75 -3 131t-1 93z
M49 662l-49 -171l26 -8l100 147q5 11 4 17q-3 37 -49 37q-26 -2 -32 -22z" />
    <glyph glyph-name="Etatonos" unicode="&#x397;&#x301;" horiz-adv-x="843" 
d="M291 682v-299h399v299h93v-682h-93v312h-399v-312h-92v682h92zM49 662q6 20 32 22q46 0 49 -37q1 -6 -4 -17l-100 -147l-26 8l49 171v0z" />
    <glyph glyph-name="Iotatonos" unicode="&#x399;&#x301;" horiz-adv-x="433" 
d="M255 0v688h83v-688h-83zM48 662l-48 -171l25 -8l100 147q5 11 4 17q-3 37 -49 37q-26 -2 -32 -22z" />
    <glyph glyph-name="Omicrontonos" unicode="&#x39f;&#x301;" horiz-adv-x="900" 
d="M250 338q-2 -127 64 -196.5t193 -70.5q127 -2 194 70q63 67 65 196q0 138 -58 208q-64 74 -201 76q-136 1 -199 -75q-56 -67 -58 -208zM506 693q151 1 251 -102q99 -100 99 -252q0 -140 -105 -240q-102 -99 -244 -101q-147 -1 -247 96q-98 97 -100 244q-1 154 95 254
q97 100 251 101zM49 662l-49 -171l26 -8l100 147q5 11 4 17q-3 37 -50 37q-25 -2 -31 -22z" />
    <glyph glyph-name="Upsilontonos" unicode="&#x3a5;&#x301;" horiz-adv-x="884" 
d="M49 662l-49 -171l26 -8l100 147q5 11 4 17q-3 37 -50 37q-25 -2 -31 -22zM727 686h111l-289 -355v-331h-96v331l-290 355h112l225 -294z" />
    <glyph glyph-name="Omegatonos" unicode="&#x3a9;&#x301;" horiz-adv-x="1044" 
d="M336 0q-179 23 -179 271v26q0 118 63 271q47 115 87 117q27 1 51 -24q-18 -29 -33.5 -62.5t-30.5 -72.5q-16 -42 -25.5 -78t-13.5 -65q-5 -36 -7 -63.5t-2 -46.5q-1 -94 21 -138q29 -59 57 -65q13 -4 23 -6t17 -3q37 0 96 28q66 31 66 62v234q0 11 9 15q5 4 36 7
q42 0 44 -22v-234q0 -37 51 -61q62 -28 113 -29h-7q48 7 65 18q20 12 42 56q7 12 10.5 27.5t4.5 34.5q1 8 1 28v49v37q-1 3 -3 22t-7 54q-8 71 -39 144l-63 130q0 4 22 17q2 2 30 7q42 0 93 -132q20 -55 32.5 -98.5t15.5 -75.5q4 -36 6 -63t2 -46q0 -81 -33 -160
q-41 -96 -111 -104q-18 -2 -32.5 -4t-27.5 -3q-52 0 -114 25q-69 31 -92 71q-6 -19 -76 -57q-65 -38 -143 -38h-19zM49 662l-49 -171l26 -8l100 147q5 11 4 17q-3 37 -50 37q-25 -2 -31 -22z" />
    <glyph glyph-name="iotadieresistonos" unicode="&#x3b9;&#x308;&#x301;" horiz-adv-x="283" 
d="M160 92q6 -20 29 -35l12.5 -10t13.5 -12q0 -22 -33 -35q-24 -7 -49 -7q-36 -2 -45 73q-2 18 -3 44.5t-1 61.5v50q0 -3 0 9q0 13 1 41q0 28 -1 49t-3 37q-4 10 -8 24.5l-9 33.5q0 10 15 16q2 0 23 5q14 3 21 3q11 0 19 -8l5.5 -9t4.5 -9q3 -4 5 -50q1 -13 1 -31v-41v-161
q0 -29 2 -39zM110 557q14 43 25.5 85.5t24.5 85.5q6 19 30 22q48 0 51 -37q0 -8 -4 -18l-101 -146l-26 8v0zM274 535q0 -19 -14 -32.5t-32 -13.5q-20 0 -34 13.5t-14 32.5t14.5 33.5t33.5 14.5q18 0 32 -14.5t14 -33.5zM-7 535q0 19 14 33.5t33 14.5t33 -14.5t14 -33.5
t-14 -32.5t-33 -13.5t-33 13.5t-14 32.5z" />
    <glyph glyph-name="Iotadieresis" unicode="&#x399;&#x308;" horiz-adv-x="314" 
d="M67 768q17 0 29.5 -12.5t12.5 -29.5q0 -18 -12.5 -30.5t-29.5 -12.5q-18 0 -30.5 12.5t-12.5 30.5q0 17 12.5 29.5t30.5 12.5zM114 688h83v-687h-83v687zM246 768q17 0 30 -12.5t13 -29.5q0 -18 -13 -30.5t-30 -12.5q-18 0 -30 12.5t-12 30.5q0 17 12 29.5t30 12.5z" />
    <glyph glyph-name="Upsilondieresis" unicode="&#x3a5;&#x308;" horiz-adv-x="752" 
d="M209 737q0 19 15.5 34.5t34.5 15.5q20 0 35.5 -15.5t15.5 -34.5q0 -20 -15.5 -35t-35.5 -15q-19 0 -34.5 15t-15.5 35zM508 737q0 -20 -14.5 -35t-35.5 -15q-20 0 -34.5 15t-14.5 35q0 19 14.5 34.5t34.5 15.5q21 0 35.5 -15.5t14.5 -34.5zM605 686h111l-289 -355v-331
h-96v331l-290 355h112l225 -294z" />
    <glyph glyph-name="alphatonos" unicode="&#x3b1;&#x301;" horiz-adv-x="608" 
d="M135 208q4 -76 50 -118q4 -4 11 -9t17 -9q26 -9 35 -9q149 0 154 174q2 43 -27 84q-37 54 -101 55q-23 0 -66 -16q-25 -10 -39 -27q-31 -39 -34 -125zM498 0q-13 5 -29 29q-8 12 -35 25q-5 3 -20 4q-8 0 -55 -34q-35 -24 -103 -24q-198 0 -200 226q-2 103 59 160
q58 54 162 56q74 1 110 -27q40 -29 47 -29q3 0 19 9q4 3 11 9.5l18 17.5l29 17q4 3 25 3q24 0 28 -31q0 -5 -7 -11q-33 -16 -58 -47q-21 -27 -21 -127q-1 -50 21 -99t59 -81q4 -3 4 -6q0 -10 -19 -25q-26 -20 -45 -15zM301 662q6 20 32 22q46 0 49 -37q1 -6 -4 -17
l-100 -147l-25 8l48 171v0z" />
    <glyph glyph-name="epsilontonos" unicode="&#x3b5;&#x301;" horiz-adv-x="374" 
d="M84 220q-1 11 -20 52q-15 34 -15 69q0 57 55 83q43 18 106 18h41q26 0 37 -5q21 -11 28 -17q10 -10 12 -29q1 -19 -15 -30q-5 -2 -12 -3q-7 3 -30 16q-21 11 -47 13q-44 0 -58 -4q-32 -8 -47 -43q-5 -17 -6 -32q-1 -22 7 -39q9 -21 31 -21h137q19 0 21 -24q1 -17 -8 -23
q-2 -1 -5.5 -2t-9.5 -3h-143q-13 0 -22 -23q-8 -20 -8 -34q0 -40 26 -60q6 -6 21 -13q10 -2 25.5 -2.5t39.5 -1.5q33 -1 49 7q10 7 16.5 12l11.5 9h8q21 0 23 -32q1 -19 -25 -37l-3 -1q-28 -17 -45 -20h-52q-62 0 -105 20q-52 26 -54 84q-1 33 10 60q3 12 25 56zM223 662
q6 20 32 22q46 0 49 -37q1 -6 -4 -17l-100 -147l-25 8l48 171v0z" />
    <glyph glyph-name="etatonos" unicode="&#x3b7;&#x301;" horiz-adv-x="531" 
d="M286 441q61 0 107 -17q61 -26 65 -77q1 -10 2 -30.5t3 -49.5q2 -58 3 -129.5t1 -157.5v-129q0 -9 -10 -14q-6 -4 -32 -7q-39 0 -38 21l7 255q1 33 1.5 72t0.5 85v77q0 24 -44 39q-34 13 -63 13q-25 1 -71 -17q-53 -19 -51 -39q1 -8 2 -21t2 -34q2 -38 2.5 -86t1.5 -107
l1 -84q0 -4 -11 -10q-5 -1 -35 -2q-15 -1 -29 2q-11 4 -11 12l8 360q2 13 -16 21q-7 4 -14 5.5t-15 2.5q-9 0 -35 -16q0 4 -3 17q24 42 51 45q10 0 37 -15q25 -15 44 -13q13 1 29 5l38 10q44 13 72 13zM320 662q6 20 32 22q46 0 49 -37q1 -6 -4 -17l-100 -147l-25 8l48 171
v0z" />
    <glyph glyph-name="iotatonos" unicode="&#x3b9;&#x301;" horiz-adv-x="246" 
d="M156 92q6 -20 29 -35l12.5 -10t13.5 -12q0 -22 -33 -35q-24 -7 -49 -7q-36 -2 -45 73q-2 18 -3 44.5t-1 61.5v50q0 -3 0 9q0 13 1 41q0 28 -1 49t-3 37q-4 10 -8 24.5l-9 33.5q0 10 15 16q2 0 23 5q14 3 21 3q11 0 19 -8l5.5 -9t4.5 -9q3 -4 5 -50q1 -13 1 -31v-41v-161
q0 -29 2 -39zM120 662q6 20 32 22q46 0 49 -37q1 -6 -4 -17l-100 -147l-25 8l48 171v0z" />
    <glyph glyph-name="upsilondieresistonos" unicode="&#x3c5;&#x308;&#x301;" horiz-adv-x="493" 
d="M198 3q-61 0 -93 64q-17 37 -29 118l-16 125q-5 38 -21 51q-20 18 -21 23q-1 3 -1 8q0 13 11 27q15 18 48 18q20 0 42 -22q7 -7 17 -126q5 -68 8 -105t5 -44q10 -62 36 -72q23 -9 41 -10q3 -1 8 -1q7 0 16 -1q55 -3 79 31q18 22 26 86q6 38 9 126q1 32 3 53t4 31
q11 53 51 55q23 0 40.5 -13t18.5 -35q1 -15 -22 -27q-12 -7 -17 -21q-6 -23 -19 -146q-5 -43 -11.5 -74.5t-15.5 -50.5q-31 -68 -97 -68h-100zM227 557q13 43 24.5 85.5t24.5 85.5q6 19 31 22q47 0 50 -37q0 -8 -4 -18l-101 -146l-25 8v0zM391 535q0 -19 -14.5 -32.5
t-32.5 -13.5q-19 0 -33.5 13.5t-14.5 32.5t15 33.5t33 14.5t32.5 -14.5t14.5 -33.5zM109 535q0 19 14.5 33.5t32.5 14.5q19 0 33 -14.5t14 -33.5t-14 -32.5t-33 -13.5t-33 13.5t-14 32.5z" />
    <glyph glyph-name="iotadieresis" unicode="&#x3b9;&#x308;" horiz-adv-x="244" 
d="M212 575q18 0 30 -12.5t12 -30.5t-12.5 -30.5t-29.5 -12.5q-18 0 -30.5 12.5t-12.5 30.5q0 17 12.5 30t30.5 13zM31 575q18 0 30.5 -12.5t12.5 -30.5t-12.5 -30.5t-30.5 -12.5t-30.5 12.5t-12.5 30.5t12.5 30.5t30.5 12.5zM160 92q6 -20 29 -35l12.5 -10t13.5 -12
q0 -22 -33 -35q-24 -7 -49 -7q-36 -2 -45 73q-2 18 -3 44.5t-1 61.5v50q0 -3 0 9q0 13 1 41q0 28 -1 49t-3 37q-4 10 -8 24.5l-9 33.5q0 10 15 16q2 0 23 5q14 3 21 3q11 0 19 -8l5.5 -9t4.5 -9q3 -4 5 -50q1 -13 1 -31v-41v-161q0 -29 2 -39z" />
    <glyph glyph-name="upsilondieresis" unicode="&#x3c5;&#x308;" horiz-adv-x="493" 
d="M103 539q0 19 15 34.5t34 15.5q20 0 35 -15.5t15 -34.5q0 -20 -15 -35t-35 -15q-19 0 -34 15t-15 35zM401 539q0 -20 -15 -35t-34 -15q-20 0 -35.5 15t-15.5 35q0 19 15.5 34.5t35.5 15.5q19 0 34 -15.5t15 -34.5zM198 3q-61 0 -93 64q-17 35 -29 118l-16 125
q-5 38 -21 51q-19 18 -21 23q-1 2 -1 8q0 13 11 27q15 18 48 18q20 0 42 -22q7 -6 17 -126q5 -68 8 -105t5 -44q11 -63 36 -72q11 -5 21 -7t20 -3q2 -1 8 -1h8q3 0 8 -1q56 -3 79 31q18 21 26 86q6 37 9 126q1 32 3 53t4 31q11 54 51 55q23 0 40.5 -13t18.5 -35
q1 -15 -22 -27q-13 -8 -17 -21q-7 -24 -19 -146q-5 -43 -11.5 -74.5t-15.5 -50.5q-30 -68 -97 -68h-100v0z" />
    <glyph glyph-name="omicrontonos" unicode="&#x3bf;&#x301;" horiz-adv-x="534" 
d="M105 221q-1 -64 53 -115q50 -47 116 -47t115 48q49 50 51 116q1 62 -51 112q-53 49 -117 51q-64 1 -115 -50q-50 -49 -52 -115zM271 441q95 2 166 -59q72 -63 74 -157q0 -96 -69 -161q-67 -65 -163 -65t-166 59q-73 62 -73 158q-1 95 67 159q67 64 164 66zM295 662
q6 20 32 22q46 0 49 -37q1 -6 -4 -17l-100 -147l-25 8l48 171v0z" />
    <glyph glyph-name="upsilontonos" unicode="&#x3c5;&#x301;" horiz-adv-x="493" 
d="M198 3q-61 0 -93 64q-17 37 -29 118l-16 125q-5 38 -21 51q-20 18 -21 23q-1 3 -1 8q0 13 11 27q15 18 48 18q20 0 42 -22q7 -7 17 -126q5 -68 8 -105t5 -44q10 -62 36 -72q23 -9 41 -10q3 -1 8 -1q7 0 16 -1q55 -3 79 31q18 22 26 86q6 38 9 126q1 32 3 53t4 31
q11 53 51 55q23 0 40.5 -13t18.5 -35q1 -15 -22 -27q-12 -7 -17 -21q-6 -23 -19 -146q-5 -43 -11.5 -74.5t-15.5 -50.5q-31 -68 -97 -68h-100zM277 662q6 20 32 22q46 0 49 -37q1 -6 -4 -17l-100 -147l-25 8l48 171v0z" />
    <glyph glyph-name="omegatonos" unicode="&#x3c9;&#x301;" horiz-adv-x="825" 
d="M450 234q0 -7 -1 -11v-10q0 -93 25 -123q8 -4 41 -22q29 -16 61 -16q10 0 19.5 0.5t17.5 1.5q25 3 50 33q25 31 30 53q2 6 4 20t4 35q0 10 1 13q0 76 -43 114q-31 27 -116 53q-25 17 -25 30q0 11 23 16q14 3 38 3q99 0 153 -67q51 -61 51 -161q0 -117 -53 -167
q-53 -47 -169 -48q-29 0 -71 21q-11 7 -30 18l-45 26l-30.5 -18t-50.5 -28q-18 -9 -39.5 -13.5t-45.5 -5.5q-206 -2 -207 215q0 102 50 162q54 63 155 66q10 0 20.5 -1t23.5 -3q17 -3 17 -15q1 -11 -25 -30q-77 -24 -114 -55q-50 -43 -45 -112v-32q4 -45 39 -89
q23 -28 55 -31q5 -1 11 -2t14 -2q33 0 59 12q15 3 46 21q27 30 27 135v14q0 4 10 7q4 0 10 0.5t15 1.5q40 0 40 -9zM429 662q6 20 32 22q46 0 49 -37q1 -6 -4 -17l-100 -147l-25 8l48 171v0z" />
    <glyph glyph-name="afii10023" unicode="&#x415;&#x308;" horiz-adv-x="611" 
d="M209 626v-262h145q57 0 76 17q26 23 28 79h19v-230h-19q-6 48 -13 62q-9 17 -29 27t-62 10h-145v-219q0 -44 4 -53.5t13.5 -15t37.5 -5.5h112q56 0 81.5 8t48.5 31q31 30 62 91h20l-57 -166h-510v18h23q23 0 44 11q16 8 21.5 23.5t5.5 64.5v430q0 63 -12 78
q-18 19 -59 19h-23v18h510l7 -145h-19q-10 52 -22.5 71.5t-37.5 30.5q-19 7 -68 7h-182zM393 834q22 0 37.5 -15.5t15.5 -37.5t-15.5 -37.5t-37.5 -15.5t-37.5 15.5t-15.5 37.5t15.5 37.5t37.5 15.5zM221 834q22 0 37.5 -15.5t15.5 -37.5t-15.5 -37.5t-37.5 -15.5
t-37.5 15.5t-15.5 37.5t15.5 37.5t37.5 15.5z" />
    <glyph glyph-name="afii10052" unicode="&#x413;&#x301;" horiz-adv-x="545" 
d="M518 662v-146h-15q-2 43 -19 70t-42 34t-71 7h-175v-513q0 -62 16 -78.5t73 -18.5v-17h-268v17q59 2 74.5 18.5t15.5 78.5v434q0 62 -15.5 78t-74.5 18v18h501zM374 845l-136 -158h-15l48 158h103z" />
    <glyph glyph-name="afii10056" unicode="&#x406;&#x308;" horiz-adv-x="333" 
d="M309 18v-18h-284v18h23q41 0 60 24q12 16 12 75v428q0 50 -7 66q-5 13 -20 21q-21 12 -45 12h-23v18h284v-18h-24q-41 0 -59 -24q-13 -16 -13 -75v-428q0 -50 7 -66q5 -12 20 -21q21 -12 45 -12h24zM252 834q22 0 37.5 -15.5t15.5 -37.5t-15.5 -37.5t-37.5 -15.5
t-37.5 15.5t-15.5 37.5t15.5 37.5t37.5 15.5zM80 834q23 0 38 -15.5t15 -37.5t-15.5 -37.5t-36.5 -15.5q-22 0 -38 15.5t-16 37.5t15.5 37.5t37.5 15.5z" />
    <glyph glyph-name="afii10061" unicode="&#x41a;&#x301;" horiz-adv-x="667" 
d="M664 18v-18h-171q-28 44 -117.5 167.5t-109 137t-58.5 13.5v-197q0 -66 16.5 -83.5t78.5 -19.5v-18h-285v18q61 2 78.5 19.5t17.5 83.5v421q0 65 -17 82.5t-79 19.5v18h285v-18q-62 -2 -78.5 -19.5t-16.5 -82.5v-185q53 0 73.5 7t46 30t40.5 46.5t38 85.5q22 58 36 80.5
t45 39t73 16.5q75 0 75 -53q0 -18 -15 -32t-34 -14q-13 0 -45 16q-29 14 -40 14q-16 0 -27 -16.5t-36 -83.5q-46 -117 -119 -150q44 -8 123 -122q83 -120 122.5 -160.5t99.5 -42.5zM441 877l-144 -168h-17l52 168h109z" />
    <glyph glyph-name="afii10062" unicode="&#x423;&#x306;" horiz-adv-x="708" 
d="M516 881q14 0 25 -13t11 -30q0 -44 -46 -75t-141 -31q-98 0 -143 31t-45 75q0 17 11 30t27 13t27.5 -12.5t32.5 -54.5q29 -61 90 -61q60 0 90 61q21 43 32 55t29 12zM13 662h268v-18q-71 -3 -71 -38q0 -25 53 -116l144 -254l106 254q33 80 33 107q0 38 -62 47v18h208v-18
q-73 -9 -111 -100l-127 -300q-49 -116 -80 -165t-67 -71.5t-76 -22.5q-33 0 -56.5 14.5t-23.5 39.5q0 18 12.5 30t33.5 12q20 0 49 -17q19 -10 28 -10q39 0 87 80l-240 422q-26 45 -48.5 63.5t-59.5 24.5v18z" />
    <glyph glyph-name="afii10027" unicode="&#x418;&#x306;" horiz-adv-x="722" 
d="M512 881q15 0 26 -13t11 -30q0 -44 -45 -75t-143 -31t-142.5 31t-44.5 75q0 17 10.5 30t26.5 13q17 0 28 -12.5t32 -54.5q30 -61 90 -61t90 61q21 43 32 55t29 12zM515 553q0 59 -19.5 75t-78.5 16v18h287v-18q-61 -2 -78.5 -19.5t-17.5 -82.5v-421q0 -66 17.5 -83.5
t78.5 -19.5v-18h-287v18q63 2 80.5 20t17.5 83v379l-307 -393q0 -43 5 -57t24 -22.5t67 -9.5v-18h-286v18q62 2 79 19.5t17 83.5v421q0 65 -17 82.5t-79 19.5v18h286v-18q-62 -2 -79 -19.5t-17 -82.5v-382z" />
    <glyph glyph-name="afii10075" unicode="&#x438;&#x306;" horiz-adv-x="535" 
d="M107 626q0 18 9.5 28.5t24.5 10.5q32 0 57 -61q14 -34 32.5 -42.5t36.5 -8.5q30 0 46 13t29 47q21 51 51 51q14 0 24.5 -10.5t10.5 -26.5q0 -37 -49.5 -69.5t-110.5 -32.5q-81 0 -121 29.5t-40 71.5zM171 138l193 223q-1 38 -14 52.5t-45 15.5v18h208v-18q-33 0 -44 -6.5
t-17.5 -16.5t-6.5 -64v-237q0 -52 5.5 -62t17 -17.5t45.5 -7.5v-18h-217v18q41 0 54.5 15t13.5 72v210l-193 -224q1 -41 11.5 -56.5t46.5 -16.5v-18h-207v18q44 0 56 16t12 71v237q0 53 -5 62.5t-16.5 17t-46.5 7.5v18h217v-18q-33 0 -44 -6.5t-17.5 -16.5t-6.5 -64v-204z
" />
    <glyph glyph-name="afii10071" unicode="&#x435;&#x308;" horiz-adv-x="430" 
d="M312 628q22 0 37 -15.5t15 -37.5t-15 -37.5t-37 -15.5t-38 15.5t-16 37.5t16 37.5t38 15.5zM139 628q23 0 38 -15.5t15 -37.5t-15.5 -37.5t-36.5 -15.5q-22 0 -37.5 15.5t-15.5 37.5t15 37.5t37 15.5zM100 276q0 -94 47 -147q45 -55 107 -55q41 0 71.5 23t51.5 79l15 -10
q-10 -63 -56 -114.5t-117 -51.5q-75 0 -129 59.5t-54 158.5q0 109 55.5 169t138.5 60q71 0 116.5 -46.5t45.5 -124.5h-292zM100 303h195q-1 40 -9 56q-12 26 -34.5 41t-48.5 15q-37 0 -67 -30.5t-36 -81.5z" />
    <glyph glyph-name="afii10100" unicode="&#x433;&#x301;" horiz-adv-x="410" 
d="M386 447l18 -122h-22q-18 61 -37 76t-79 15h-95v-311q0 -52 5.5 -62t17 -17.5t45.5 -7.5v-18h-224v18q48 1 61.5 15t13.5 72v237q0 48 -5 61.5t-18.5 19t-51.5 6.5v18h371zM314 679l-144 -169h-16l51 169h109z" />
    <glyph glyph-name="afii10104" unicode="&#x456;&#x308;" horiz-adv-x="278" 
d="M185 447v-346q0 -42 6.5 -56t18.5 -20.5t43 -6.5v-18h-217v18q33 0 44 6t17.5 21t6.5 56v159q0 73 -4 95q-3 15 -10.5 21.5t-20.5 6.5t-33 -8l-7 18l135 54h21zM226 628q22 0 37.5 -15.5t15.5 -37.5t-15.5 -37.5t-37.5 -15.5t-37.5 15.5t-15.5 37.5t15.5 37.5t37.5 15.5z
M54 628q22 0 37.5 -15.5t15.5 -37.5t-15.5 -37.5t-37.5 -15.5t-37.5 15.5t-15.5 37.5t15.5 37.5t37.5 15.5z" />
    <glyph glyph-name="afii10109" unicode="&#x43a;&#x301;" horiz-adv-x="486" 
d="M480 0h-132q-61 89 -111 183q-12 22 -21.5 32.5t-26.5 10.5q-5 0 -18 -1v-120q0 -48 5.5 -61.5t20 -19.5t49.5 -6v-18h-224v18q44 0 56 16t12 71v237q0 53 -5 62.5t-16.5 17t-46.5 7.5v18h224v-18q-40 0 -49.5 -6t-17.5 -14.5t-8 -66.5v-88q11 -1 15 -1q30 0 56 17t47 66
q19 52 31.5 70t34.5 29.5t46 11.5q27 0 42.5 -13t15.5 -33q0 -17 -11 -29t-31 -12q-11 0 -27 6q-21 7 -32 7q-22 0 -37 -39q-16 -38 -24 -51t-30 -34q15 -5 33 -23t66 -103q39 -68 58 -86t56 -19v-18zM353 679l-145 -169h-16l51 169h110z" />
    <glyph glyph-name="afii10110" unicode="&#x443;&#x306;" horiz-adv-x="500" 
d="M101 626q0 18 9.5 28.5t24.5 10.5q32 0 56 -61q15 -34 33 -42.5t36 -8.5q31 0 46.5 13t28.5 47q21 51 51 51q15 0 25 -10.5t10 -26.5q0 -37 -49.5 -69.5t-110.5 -32.5q-81 0 -120.5 29.5t-39.5 71.5zM6 447h208v-18h-10q-43 0 -43 -34q0 -19 15 -52l109 -225l99 243
q10 24 10 41q0 27 -45 27v18h145v-18q-25 -3 -38 -16t-28 -51l-182 -446q-26 -65 -68.5 -98.5t-80.5 -33.5q-28 0 -48 15.5t-20 39.5q0 45 52 45q16 0 40 -9q21 -9 27 -9q37 0 66 74l32 78l-161 337q-31 66 -79 74v18z" />
    <glyph glyph-name="uni1E07" unicode="b&#x331;" horiz-adv-x="521" 
d="M115 -85h282v-42h-282v42zM147 158q0 -69 37 -103q36 -33 82 -33q66 0 102 53.5t36 137.5q0 82 -34.5 129.5t-94.5 47.5q-67 0 -128 -64v-168zM77 0v519q0 67 -3 78q-9 32 -55 32h-6v22h4q30 0 88 11l16 4t16 6h10v-317q67 61 143 61q83 0 139 -60q56 -61 56 -149
q0 -83 -56 -145t-142 -62q-95 0 -140 73q-30 -30 -51 -73h-19z" />
    <glyph glyph-name="uni1E0C" unicode="D&#x323;" horiz-adv-x="760" 
d="M227 201q0 -46 0.5 -75t1.5 -40q1 -22 11 -38q15 -25 90 -25q42 0 75 4.5t59 15t45.5 26.5t36.5 39q57 81 57 210q0 71 -16 129t-46.5 100.5t-75 67t-101.5 29.5q-7 1 -21 1h-33q-26 0 -47 -0.5t-36 -1.5v-442zM213 666q61 3 103 3q187 0 285 -83q108 -92 108 -256
q0 -131 -59.5 -212t-173.5 -106q-56 -12 -94 -12h-362v22h28q59 0 71 22q13 22 13 128v320q0 99 -12 120q-11 17 -35 21q-5 1 -42 1h-20v23zM382 -187q-21 0 -36.5 14.5t-15.5 36.5q0 20 15.5 35.5t36.5 15.5t36 -15t15 -36q0 -22 -15.5 -36.5t-35.5 -14.5z" />
    <glyph glyph-name="uni1E0D" unicode="d&#x323;" horiz-adv-x="521" 
d="M261 -187q-21 0 -36.5 14.5t-15.5 36.5q0 20 15.5 35.5t36.5 15.5t36 -15t15 -36q0 -22 -15.5 -36.5t-35.5 -14.5zM376 329q-68 56 -130 56q-129 0 -129 -182q0 -76 35 -126t96 -50q74 0 128 70v232zM376 514q0 82 -7 95q-11 20 -53 20h-10v22q61 1 129 21h11v-524
q0 -86 6 -96q10 -19 53 -19h7v-21l-7 -1q-65 0 -119 -12q-6 28 -6 61v10q-74 -71 -156 -71q-72 0 -129 58q-59 62 -59 145q0 91 56 153q57 61 142 61q77 0 142 -59v157z" />
    <glyph glyph-name="uni1E0E" unicode="E&#x331;" horiz-adv-x="717" 
d="M214 189q0 -43 0.5 -70.5t1.5 -37.5q1 -20 11 -36q14 -24 85 -24q39 0 70 4.5t55.5 14.5t43 25t34.5 37q54 76 54 198q0 67 -15 122t-44 95t-71 63t-96 27q-6 1 -19 1h-32q-24 0 -43.5 -0.5t-34.5 -1.5v-417zM201 628q57 3 97 3q177 0 269 -78q102 -87 102 -241
q0 -124 -56 -200.5t-164 -100.5q-53 -11 -89 -11h-341v21h26q56 0 67 21q13 21 13 120v302q0 94 -12 113q-10 16 -33 20q-4 1 -39 1h-20v22zM200 -85h282v-42h-282v42z" />
    <glyph glyph-name="uni1E0F" unicode="e&#x331;" horiz-adv-x="492" 
d="M115 -85h282v-42h-282v42zM376 329q-68 56 -130 56q-129 0 -129 -182q0 -76 35 -126t96 -50q74 0 128 70v232zM376 514q0 82 -7 95q-11 20 -53 20h-10v22q61 1 129 21h11v-524q0 -86 6 -96q10 -19 53 -19h7v-21l-7 -1q-65 0 -119 -12q-6 28 -6 61v10q-74 -71 -156 -71
q-72 0 -129 58q-59 62 -59 145q0 91 56 153q57 61 142 61q77 0 142 -59v157z" />
    <glyph glyph-name="uni1E14" unicode="E&#x304;&#x300;" horiz-adv-x="576" 
d="M426 724v-42h-281v42h281zM561 194l-14 -194h-517v21h12q57 0 69.5 21t12.5 120v307q0 96 -12 115q-10 20 -62 20h-8v21h448l14 -156h-22q-19 79 -47 105q-33 30 -97 30h-125v-263h66q61 0 77 15q18 16 18 71v8h22v-214h-22v8q0 58 -18 74q-16 16 -74 16h-69v-147
q0 -116 17 -134q15 -17 75 -17h46q81 0 122 41q44 45 66 132h22zM238 805q-30 24 -30 41q0 27 30 27q25 0 57 -54l53 -90h-18z" />
    <glyph glyph-name="uni1E15" unicode="e&#x304;&#x300;" horiz-adv-x="414" 
d="M80 517h282v-42h-282v42zM160 611q-30 24 -30 41q0 27 30 27q25 0 57 -54l53 -90h-18zM314 284q1 5 1 10v10q0 42 -23.5 66.5t-63.5 24.5q-89 0 -105 -111h191zM121 265l-1 -9q-1 -5 -1 -13v-21q0 -115 46 -162q35 -35 85 -35q88 0 126 80h23q-16 -48 -60.5 -76.5
t-102.5 -28.5q-85 0 -142 60t-57 136q0 95 55 157q55 63 137 63q73 0 120 -43q49 -42 50 -108h-278z" />
    <glyph glyph-name="uni1E16" unicode="E&#x304;&#x301;" horiz-adv-x="576" 
d="M426 724v-42h-281v42h281zM561 194l-14 -194h-517v21h12q57 0 69.5 21t12.5 120v307q0 96 -12 115q-10 20 -62 20h-8v21h448l14 -156h-22q-19 79 -47 105q-33 30 -97 30h-125v-263h66q61 0 77 15q18 16 18 71v8h22v-214h-22v8q0 58 -18 74q-16 16 -74 16h-69v-147
q0 -116 17 -134q15 -17 75 -17h46q81 0 122 41q44 45 66 132h22zM259 729h-19l54 90q33 54 57 54q30 0 30 -27q0 -18 -31 -41z" />
    <glyph glyph-name="uni1E17" unicode="e&#x304;&#x301;" horiz-adv-x="414" 
d="M80 517h282v-42h-282v42zM196 535h-19l54 90q33 54 57 54q30 0 30 -27q0 -18 -31 -41zM314 284q1 5 1 10v10q0 42 -23.5 66.5t-63.5 24.5q-89 0 -105 -111h191zM121 265l-1 -9q-1 -5 -1 -13v-21q0 -115 46 -162q35 -35 85 -35q88 0 126 80h23q-16 -48 -60.5 -76.5
t-102.5 -28.5q-85 0 -142 60t-57 136q0 95 55 157q55 63 137 63q73 0 120 -43q49 -42 50 -108h-278z" />
    <glyph glyph-name="uni1E20" unicode="G&#x304;" horiz-adv-x="771" 
d="M748 283v-24h-8q-59 0 -72 -22q-12 -23 -12 -127v-70q-5 1 -9 1.5t-9 0.5q-40 0 -113 -27q-76 -26 -142 -26q-143 0 -237 93t-94 236q0 36 7 73t20.5 71t32 64.5t41.5 54.5q90 93 238 93q130 0 215 -97q8 17 13 35.5t7 38.5h24v-222h-24q-7 51 -27 92t-50 69.5t-69 44
t-85 15.5q-31 0 -60.5 -8.5t-55 -23.5t-46 -36t-33.5 -47q-36 -72 -36 -200q0 -180 72 -256q61 -67 156 -67q57 0 100 21.5t58 58.5q11 27 11 66q0 53 -4 65q-10 31 -49 35q-5 1 -13 1h-17h-16v24h286zM236 796h299v-45h-299v45z" />
    <glyph glyph-name="uni1E21" unicode="g&#x304;" horiz-adv-x="469" 
d="M85 520h299v-45h-299v45zM123 259q0 -122 92 -122q90 0 90 127q0 129 -91 129t-91 -134zM230 35q125 -7 167 -46q36 -35 36 -87q0 -70 -53 -108.5t-152 -38.5q-89 0 -145 35q-55 34 -55 89q0 31 16.5 49.5t43.5 18.5q4 0 15 -3q-31 -34 -31 -72q0 -43 43 -70t115 -27
t113 27t41 75q0 39 -27 62q-19 16 -45 22q-13 2 -36 4t-55 4q-98 4 -136 25q-31 16 -31 53q0 66 89 81q-93 54 -93 139q0 62 47 106q46 43 115 43q81 0 131 -51q41 51 85 51q20 0 34 -12t14 -29q0 -32 -29 -32q-16 0 -28 19q-11 20 -23 20q-17 0 -41 -30q26 -41 26 -85
q0 -48 -26 -84.5t-71 -53.5q-34 -13 -87 -14q-104 -5 -104 -42q0 -18 22 -25q11 -4 31.5 -6.5t51.5 -4.5z" />
    <glyph glyph-name="uni1E24" unicode="H&#x327;" horiz-adv-x="757" 
d="M215 313v-151q0 -99 12 -120t67 -21h17v-21h-282v21h16q57 0 68.5 21t11.5 120v307q0 96 -11 114q-10 16 -33 20q-4 1 -14 1h-26h-12v21h282v-21h-12h-27q-9 0 -14 -1q-21 -4 -31 -20q-12 -20 -12 -114v-124h327v124q0 95 -12 114q-10 16 -33 20q-4 1 -39 1h-18v21h285
v-21h-10h-27q-9 0 -14 -1q-23 -4 -31 -20q-12 -21 -12 -114v-307q0 -99 12 -120t67 -21h15v-21h-285v21h22q56 0 67 21q13 21 13 120v151h-327zM375 -187q20 0 35.5 14.5t15.5 36.5q0 21 -15 36t-36 15t-36.5 -15.5t-15.5 -35.5q0 -22 15.5 -36.5t36.5 -14.5z" />
    <glyph glyph-name="uni1E25" unicode="h&#x327;" horiz-adv-x="525" 
d="M253 -187q20 0 35.5 14.5t15.5 36.5q0 21 -15 36t-36 15t-36.5 -15.5t-15.5 -35.5q0 -22 15.5 -36.5t36.5 -14.5zM163 334h2q58 82 143 82q63 0 99 -33q24 -21 32 -63q3 -20 3 -72v-111q0 -82 7 -95q11 -20 53 -20h8v-22h-207v22h10q36 0 47.5 12t11.5 51v172q0 37 -4 62
t-14.5 40t-28 21t-44.5 6q-73 0 -118 -88v-161q0 -82 7 -95q11 -20 53 -20h3v-22h-203v22h11q36 0 47.5 12t11.5 51v451q0 50 -5 65q-10 28 -54 28h-7v22h5q17 0 39 3t50 8l16 4t16 6h10v-338z" />
    <glyph glyph-name="uni1E2A" unicode="H&#x32e;" horiz-adv-x="757" 
d="M215 313v-151q0 -99 12 -120t67 -21h17v-21h-282v21h16q57 0 68.5 21t11.5 120v307q0 96 -11 114q-10 16 -33 20q-4 1 -14 1h-26h-12v21h282v-21h-12h-27q-9 0 -14 -1q-21 -4 -31 -20q-12 -20 -12 -114v-124h327v124q0 95 -12 114q-10 16 -33 20q-4 1 -39 1h-18v21h285
v-21h-10h-27q-9 0 -14 -1q-23 -4 -31 -20q-12 -21 -12 -114v-307q0 -99 12 -120t67 -21h15v-21h-285v21h22q56 0 67 21q13 21 13 120v151h-327zM506 -52l-4 4h-25q-6 -43 -32 -70q-29 -27 -69 -27q-42 0 -70 27q-26 27 -33 70h-25l-4 -4q2 -48 19 -82q34 -70 113 -70
q62 0 97 46q30 41 33 106z" />
    <glyph glyph-name="uni1E2B" unicode="h&#x32e;" horiz-adv-x="525" 
d="M383 -52l-4 4h-25q-6 -43 -32 -70q-29 -27 -69 -27q-42 0 -70 27q-26 27 -33 70h-25l-4 -4q2 -48 19 -82q34 -70 113 -70q62 0 97 46q30 41 33 106zM163 334h2q58 82 143 82q63 0 99 -33q24 -21 32 -63q3 -20 3 -72v-111q0 -82 7 -95q11 -20 53 -20h8v-22h-207v22h10
q36 0 47.5 12t11.5 51v172q0 37 -4 62t-14.5 40t-28 21t-44.5 6q-73 0 -118 -88v-161q0 -82 7 -95q11 -20 53 -20h3v-22h-203v22h11q36 0 47.5 12t11.5 51v451q0 50 -5 65q-10 28 -54 28h-7v22h5q17 0 39 3t50 8l16 4t16 6h10v-338z" />
    <glyph glyph-name="uni1E2E" unicode="I&#x308;&#x301;" horiz-adv-x="331" 
d="M85 747q15 0 26 -10.5t11 -24.5q0 -16 -10.5 -28t-25.5 -12q-16 0 -27 11.5t-11 27.5q0 15 11 25.5t26 10.5zM253 746q15 0 26 -11t11 -26t-10.5 -26t-25.5 -11q-16 0 -27.5 11.5t-11.5 26.5t11 25.5t27 10.5zM24 625h287v-21h-15h-26t-14 -1q-22 -4 -32 -20
q-12 -20 -12 -114v-307q0 -99 12 -120t68 -21h19v-21h-287v21h18q56 0 67 21q13 21 13 120v307q0 96 -11 114q-10 16 -33 20q-3 1 -14 1h-26h-14v21zM150 740l53 90q33 54 58 54q29 0 29 -27q0 -17 -30 -41l-91 -76h-19z" />
    <glyph glyph-name="uni1E2F" unicode="i&#x308;&#x301;" horiz-adv-x="251" 
d="M48 540q15 0 26 -10.5t11 -24.5q0 -16 -10.5 -28t-25.5 -12q-16 0 -27 11.5t-11 27.5q0 15 11 25.5t26 10.5zM216 539q15 0 26 -11t11 -26t-10.5 -26t-25.5 -11q-16 0 -27.5 11.5t-11.5 26.5t11 25.5t27 10.5zM160 136q0 -81 7 -94q10 -19 51 -19h11v-23h-214v23h16
q36 0 47.5 11t11.5 50v172q0 77 -10 94q-9 16 -52 16h-13v23q42 5 75 10.5t59 16.5h11v-280zM102 543l53 90q33 54 58 54q29 0 29 -27q0 -17 -30 -41l-91 -76h-19z" />
    <glyph glyph-name="uni1E32" unicode="K&#x323;" horiz-adv-x="737" 
d="M407 479q66 59 66 84q0 38 -66 41v21h235v-21q-70 -2 -153 -80l-163 -150l283 -287q20 -19 36 -32t29 -20q26 -14 63 -14v-21h-324v21h12q78 0 78 30q0 21 -66 87l-177 178l-44 -40v-114q0 -99 12 -120t67 -21h13v-21h-282v21h20q56 0 67 21q12 21 12 120v307
q0 95 -11 114q-10 16 -33 20q-5 1 -39 1h-7v21h277v-21h-12h-27q-10 0 -14 -1q-22 -4 -32 -20q-11 -19 -11 -114v-162zM375 -187q20 0 35.5 14.5t15.5 36.5q0 21 -15 36t-36 15t-36.5 -15.5t-15.5 -35.5q0 -22 15.5 -36.5t36.5 -14.5z" />
    <glyph glyph-name="uni1E33" unicode="k&#x323;" horiz-adv-x="432" 
d="M401 377v-21q-44 -2 -112 -63q-3 -1 -8 -5.5l-12 -10.5q-10 -7 -21 -18l-29 -22l135 -158l21 -23t16 -14q23 -21 46 -21v-21h-188v21q47 1 47 20q0 8 -9 21q-4 2 -22 24l-97 112l-19 -14v-55q0 -80 6 -89q10 -19 46 -19h3v-21h-192v21h14q37 0 47 13q9 9 9 46v427
q0 47 -5 61q-10 25 -49 25h-7v21h5q28 0 82 11q8 1 15.5 3t15.5 6h10v-426l39 29q97 69 97 98q0 19 -36 21v21h152zM228 -187q20 0 35.5 14.5t15.5 36.5q0 21 -15 36t-36 15t-36.5 -15.5t-15.5 -35.5q0 -22 15.5 -36.5t36.5 -14.5z" />
    <glyph glyph-name="uni1E34" unicode="K&#x331;" horiz-adv-x="781" 
d="M431 507q70 63 70 90q0 40 -70 43v22h249v-22q-74 -2 -162 -84l-173 -160l301 -304q21 -20 38 -34t31 -21q27 -14 66 -15v-22h-343v22h13q82 0 82 32q0 22 -70 92l-187 189l-47 -42v-121q0 -106 12 -128q13 -22 72 -22h13v-22h-298v22h21q59 0 71 22q13 22 13 128v325
q0 101 -12 121q-11 17 -35 21q-5 1 -42 1h-7v22h293v-22h-12h-28t-15 -1q-24 -4 -35 -21q-11 -20 -11 -121v-172zM260 -85h282v-42h-282v42z" />
    <glyph glyph-name="uni1E35" unicode="k&#x331;" horiz-adv-x="459" 
d="M417 416v-23q-46 -2 -116 -70q-4 -1 -9 -6l-12 -12q-11 -7 -22 -19l-30 -25l140 -174q13 -14 22 -25t17 -15q24 -24 47 -24v-23h-195v23q49 1 49 22q0 9 -10 23q-4 2 -22 27l-101 124l-20 -17v-60q0 -88 6 -98q11 -21 48 -21h3v-23h-200v23h15q39 0 49 15q9 10 9 50v459
q0 37 -5 52q-10 27 -51 27h-7v24h5q29 0 85 11q9 2 16.5 4t16.5 6h10v-442l41 32q100 77 100 108q0 22 -37 24v23h158zM97 -85h282v-42h-282v42z" />
    <glyph glyph-name="uni1E50" unicode="O&#x304;&#x300;" horiz-adv-x="799" 
d="M246 716h282v-42h-282v42zM159 313q0 -125 41 -201q18 -32 50 -57q58 -44 149 -44q108 0 168 77.5t60 217.5q0 151 -60 229t-175 78t-174 -77t-59 -223zM53 317q0 141 94 229q96 90 245 90q33 0 67 -5.5t65.5 -16.5t59 -26.5t50.5 -35.5q99 -88 99 -254q0 -133 -96 -221
q-95 -87 -239 -87q-155 0 -251 89q-94 89 -94 238zM344 800q-31 25 -31 42q0 27 31 27q25 0 57 -55l53 -89h-18z" />
    <glyph glyph-name="uni1E51" unicode="o&#x304;&#x300;" horiz-adv-x="497" 
d="M97 517h282v-42h-282v42zM199 616q-31 25 -31 42q0 27 31 27q25 0 57 -55l53 -89h-18zM117 198q0 -178 131 -178q69 0 100.5 46t31.5 132q0 195 -132 195q-131 0 -131 -195zM35 201q0 92 61 153q62 62 152 62t152 -62t62 -153q0 -81 -61 -142q-60 -60 -153 -60
q-92 0 -153 60q-60 61 -60 142z" />
    <glyph glyph-name="uni1E52" unicode="O&#x304;&#x301;" horiz-adv-x="799" 
d="M246 716h282v-42h-282v42zM159 313q0 -125 41 -201q18 -32 50 -57q58 -44 149 -44q108 0 168 77.5t60 217.5q0 151 -60 229t-175 78t-174 -77t-59 -223zM53 317q0 141 94 229q96 90 245 90q33 0 67 -5.5t65.5 -16.5t59 -26.5t50.5 -35.5q99 -88 99 -254q0 -133 -96 -221
q-95 -87 -239 -87q-155 0 -251 89q-94 89 -94 238zM369 725h-19l54 90q33 54 58 54q29 0 29 -27q0 -18 -30 -42l-9 -6z" />
    <glyph glyph-name="uni1E53" unicode="o&#x304;&#x301;" horiz-adv-x="497" 
d="M225 541h-19l54 90q33 54 58 54q29 0 29 -27q0 -18 -30 -42l-9 -6zM97 517h282v-42h-282v42zM117 198q0 -178 131 -178q69 0 100.5 46t31.5 132q0 195 -132 195q-131 0 -131 -195zM35 201q0 92 61 153q62 62 152 62t152 -62t62 -153q0 -81 -61 -142q-60 -60 -153 -60
q-92 0 -153 60q-60 61 -60 142z" />
    <glyph glyph-name="uni1E62" unicode="S&#x323;" horiz-adv-x="542" 
d="M57 220h25q19 -101 69 -154q52 -54 128 -54q63 0 104 36q42 37 42 93q0 88 -134 145l-45 19q-113 47 -151 101q-32 47 -32 103q0 72 49 118q50 47 124 47q89 0 155 -70q24 30 25 58h22v-173h-22q-19 76 -65.5 119t-109.5 43q-52 0 -83 -28t-31 -76q0 -55 59 -96
q28 -20 99 -51q86 -38 121 -59q31 -19 52 -46q37 -49 37 -122q0 -80 -59 -133q-59 -51 -149 -51q-109 0 -181 82q-15 -23 -24 -64h-25v213zM271 -187q-21 0 -36.5 14.5t-15.5 36.5q0 20 15.5 35.5t36.5 15.5t36 -15t15 -36q0 -22 -15.5 -36.5t-35.5 -14.5z" />
    <glyph glyph-name="uni1E63" unicode="s&#x323;" horiz-adv-x="324" 
d="M165 -187q-21 0 -36.5 14.5t-15.5 36.5q0 20 15.5 35.5t36.5 15.5t36 -15t15 -36q0 -22 -15.5 -36.5t-35.5 -14.5zM32 131h19q33 -114 120 -114q31 0 51.5 20t20.5 51t-20 51q-10 10 -29 16.5t-48 20.5q-76 37 -99 77q-14 26 -14 54q0 23 8.5 43t23.5 34.5t35 23t44 8.5
q47 0 83 -42q9 9 19 35h18v-124h-18q-10 48 -38.5 78.5t-64.5 30.5q-28 0 -47 -17.5t-19 -42.5q0 -14 4.5 -25t15 -21.5t29 -21t45.5 -22.5q75 -34 102 -69q19 -19 19 -60q0 -52 -33.5 -85t-87.5 -33q-52 0 -99 44q-14 -15 -21 -40h-19v130z" />
    <glyph glyph-name="uni1E6C" unicode="T&#x323;" horiz-adv-x="688" 
d="M25 496v156h636v-156h-17q-12 70 -36 102q-16 22 -51 30q-7 2 -22 2.5t-38 0.5h-106v-462q0 -103 13 -125t71 -22h32v-22h-325v22h33q59 0 70 22q14 22 14 125v462h-136q-65 0 -88 -45q-19 -37 -28 -90h-22zM344 -187q-21 0 -36.5 14.5t-15.5 36.5q0 20 15.5 35.5
t36.5 15.5t36 -15t15 -36q0 -22 -15.5 -36.5t-35.5 -14.5z" />
    <glyph glyph-name="uni1E6D" unicode="t&#x323;" horiz-adv-x="295" 
d="M163 -187q-21 0 -36.5 14.5t-15.5 36.5q0 20 15.5 35.5t36.5 15.5t36 -15t15 -36q0 -22 -15.5 -36.5t-35.5 -14.5zM152 393v-236q0 -70 14 -96t49 -26q34 0 64 41l14 -9q-33 -67 -107 -67q-65 0 -91 50q-14 30 -14 122v221h-61v23q95 4 116 129h16v-129h127v-23h-127z
" />
    <glyph glyph-name="uni1E6E" unicode="T&#x331;" horiz-adv-x="659" 
d="M24 475v150h609v-150h-16q-12 67 -35 98q-15 21 -48 29q-7 1 -21.5 1.5t-36.5 0.5h-101v-442q0 -99 12 -120t68 -21h31v-21h-312v21h32q56 0 67 21q13 21 13 120v442h-130q-62 0 -84 -43q-18 -35 -27 -86h-21zM190 -85h282v-42h-282v42z" />
    <glyph glyph-name="uni1E6F" unicode="t&#x331;" horiz-adv-x="295" 
d="M-2 -85h282v-42h-282v42zM152 393v-236q0 -70 14 -96t49 -26q34 0 64 41l14 -9q-33 -67 -107 -67q-65 0 -91 50q-14 30 -14 122v221h-61v23q95 4 116 129h16v-129h127v-23h-127z" />
    <glyph glyph-name="uni1E71" unicode="t&#x32d;" horiz-adv-x="272" 
d="M-15 -300l132 243h39l131 -243h-43l-107 195l-111 -195h-41zM152 393v-236q0 -70 14 -96t49 -26q34 0 64 41l14 -9q-33 -67 -107 -67q-65 0 -91 50q-14 30 -14 122v221h-61v23q95 4 116 129h16v-129h127v-23h-127z" />
    <glyph glyph-name="Wgrave" unicode="W&#x300;" horiz-adv-x="895" 
d="M630 -14l-189 514h-2l-166 -514h-21l-165 533q-14 47 -30.5 65t-49.5 19l-7 1v21h234v-21q-1 -1 -5 -1q-36 -3 -48.5 -11t-12.5 -27q0 -15 8 -42l132 -396l-8 -3l162 501h26l183 -501h2l105 370q8 26 8 49q0 61 -65 61v21h171v-21q-42 -4 -61 -33q-15 -26 -42 -115
l-138 -470h-21zM422 729q-30 24 -30 41q0 27 30 27q26 0 57 -54l54 -90h-19z" />
    <glyph glyph-name="wgrave" unicode="w&#x300;" horiz-adv-x="703" 
d="M286 541q-30 24 -30 41q0 27 30 27q26 0 57 -54l54 -90h-19zM476 -2l-124 316l-126 -316h-22l-140 350q-18 45 -57 45h-6v23h190v-23h-7q-48 0 -48 -27q0 -9 9 -32l103 -234l121 316h19l124 -319l102 248q6 15 6 20q0 26 -52 28v23h135v-23q-29 -2 -41 -11.5t-24 -37.5
q-2 -5 -4 -13t-7 -17l-129 -316h-22z" />
    <glyph glyph-name="Wacute" unicode="W&#x301;" horiz-adv-x="895" 
d="M630 -14l-189 514h-2l-166 -514h-21l-165 533q-14 47 -30.5 65t-49.5 19l-7 1v21h234v-21q-1 -1 -5 -1q-36 -3 -48.5 -11t-12.5 -27q0 -15 8 -42l132 -396l-8 -3l162 501h26l183 -501h2l105 370q8 26 8 49q0 61 -65 61v21h171v-21q-42 -4 -61 -33q-15 -26 -42 -115
l-138 -470h-21zM436 653h-18l54 90q33 54 57 54q30 0 30 -27q0 -18 -31 -41z" />
    <glyph glyph-name="wacute" unicode="w&#x301;" horiz-adv-x="703" 
d="M314 465h-18l54 90q33 54 57 54q30 0 30 -27q0 -18 -31 -41zM476 -2l-124 316l-126 -316h-22l-140 350q-18 45 -57 45h-6v23h190v-23h-7q-48 0 -48 -27q0 -9 9 -32l103 -234l121 316h19l124 -319l102 248q6 15 6 20q0 26 -52 28v23h135v-23q-29 -2 -41 -11.5t-24 -37.5
q-2 -5 -4 -13t-7 -17l-129 -316h-22z" />
    <glyph glyph-name="Wdieresis" unicode="W&#x308;" horiz-adv-x="895" 
d="M630 -14l-189 514h-2l-166 -514h-21l-165 533q-14 47 -30.5 65t-49.5 19l-7 1v21h234v-21q-1 -1 -5 -1q-36 -3 -48.5 -11t-12.5 -27q0 -15 8 -42l132 -396l-8 -3l162 501h26l183 -501h2l105 370q8 26 8 49q0 61 -65 61v21h171v-21q-42 -4 -61 -33q-15 -26 -42 -115
l-138 -470h-21zM392 728q15 0 25.5 -10.5t10.5 -24.5q0 -16 -10 -28t-25 -12q-16 0 -27 11.5t-11 27.5q0 15 11 25.5t26 10.5zM560 727q15 0 25.5 -11t10.5 -26t-10.5 -26t-24.5 -11q-16 0 -27.5 11.5t-11.5 26.5t11 25.5t27 10.5z" />
    <glyph glyph-name="wdieresis" unicode="w&#x308;" horiz-adv-x="703" 
d="M257 540q15 0 25.5 -10.5t10.5 -24.5q0 -16 -10 -28t-25 -12q-16 0 -27 11.5t-11 27.5q0 15 11 25.5t26 10.5zM425 539q15 0 25.5 -11t10.5 -26t-10.5 -26t-24.5 -11q-16 0 -27.5 11.5t-11.5 26.5t11 25.5t27 10.5zM476 -2l-124 316l-126 -316h-22l-140 350
q-18 45 -57 45h-6v23h190v-23h-7q-48 0 -48 -27q0 -9 9 -32l103 -234l121 316h19l124 -319l102 248q6 15 6 20q0 26 -52 28v23h135v-23q-29 -2 -41 -11.5t-24 -37.5q-2 -5 -4 -13t-7 -17l-129 -316h-22z" />
    <glyph glyph-name="uni1E92" unicode="Z&#x323;" horiz-adv-x="635" 
d="M30 17l428 623h-206q-69 0 -88 -6q-18 -5 -38 -29q-31 -40 -48 -95h-21l21 152h492v-22l-422 -618h202q68 0 88 4q49 7 75 40q29 37 53 105h22l-22 -171h-536v17zM318 -187q-21 0 -36.5 14.5t-15.5 36.5q0 20 15.5 35.5t36.5 15.5t36 -15t15 -36q0 -22 -15.5 -36.5
t-35.5 -14.5z" />
    <glyph glyph-name="uni1E93" unicode="&#x7a;&#x323;" horiz-adv-x="437" 
d="M27 16l276 377h-151q-40 0 -56 -15q-17 -15 -36 -71l-2 -6h-18l6 115h348v-19l-274 -374h113h34q15 0 20 1q31 4 48 23q25 28 47 85h19l-12 -132h-362v16zM219 -187q-21 0 -36.5 14.5t-15.5 36.5q0 20 15.5 35.5t36.5 15.5t36 -15t15 -36q0 -22 -15.5 -36.5t-35.5 -14.5z
" />
    <glyph glyph-name="uni1E94" unicode="Z&#x331;" horiz-adv-x="635" 
d="M30 17l428 623h-206q-69 0 -88 -6q-18 -5 -38 -29q-31 -40 -48 -95h-21l21 152h492v-22l-422 -618h202q68 0 88 4q49 7 75 40q29 37 53 105h22l-22 -171h-536v17zM171 -85h282v-42h-282v42z" />
    <glyph glyph-name="uni1E95" unicode="&#x7a;&#x331;" horiz-adv-x="437" 
d="M27 16l276 377h-151q-40 0 -56 -15q-17 -15 -36 -71l-2 -6h-18l6 115h348v-19l-274 -374h113h34q15 0 20 1q31 4 48 23q25 28 47 85h19l-12 -132h-362v16zM77 -85h282v-42h-282v42z" />
    <glyph glyph-name="uni1E96" unicode="h&#x331;" horiz-adv-x="525" 
d="M115 -85h282v-42h-282v42zM163 334h2q58 82 143 82q63 0 99 -33q24 -21 32 -63q3 -20 3 -72v-111q0 -82 7 -95q11 -20 53 -20h8v-22h-207v22h10q36 0 47.5 12t11.5 51v172q0 37 -4 62t-14.5 40t-28 21t-44.5 6q-73 0 -118 -88v-161q0 -82 7 -95q11 -20 53 -20h3v-22h-203
v22h11q36 0 47.5 12t11.5 51v451q0 50 -5 65q-10 28 -54 28h-7v22h5q17 0 39 3t50 8l16 4t16 6h10v-338z" />
    <glyph glyph-name="uni1EA0" unicode="A&#x323;" horiz-adv-x="667" 
d="M302 540l-115 -278h230zM177 240l-36 -88q-18 -43 -18 -71q0 -26 19 -42.5t48 -16.5h4v-22h-194v22q51 8 75 44l10.5 17t8.5 18q3 8 8.5 20t12.5 31l24 57l189 453h19l239 -566q15 -41 33 -56q16 -14 55 -18v-22h-257v22h27q54 0 54 35q0 9 -11 36l-61 147h-249z
M350 -207q-21 0 -36.5 14.5t-15.5 36.5q0 20 15.5 35.5t36.5 15.5t36 -15t15 -36q0 -22 -15.5 -36.5t-35.5 -14.5z" />
    <glyph glyph-name="uni1EA1" unicode="a&#x323;" horiz-adv-x="467" 
d="M230 -207q-21 0 -36.5 14.5t-15.5 36.5q0 20 15.5 35.5t36.5 15.5t36 -15t15 -36q0 -22 -15.5 -36.5t-35.5 -14.5zM244 222q-125 -51 -125 -120q0 -70 60 -70q43 0 119 62v150zM458 81q-5 -81 -82 -81q-65 0 -78 68q-99 -68 -161 -68q-42 0 -70 23t-28 58q0 52 67 95
q48 31 116 61l76 30v20q0 61 -20 84.5t-72 23.5q-73 0 -80 -44l-2 -11q-9 -44 -42 -44q-28 0 -28 29q0 35 47 63q48 28 113 28q121 0 147 -75q7 -17 7 -65v-189q0 -54 32 -54q31 0 40 48h18z" />
    <glyph glyph-name="uni1EB8" unicode="E&#x323;" horiz-adv-x="607" 
d="M592 206l-14 -206h-548v22h13q60 0 73 22t13 128v325q0 102 -12 122q-11 21 -66 21h-8v22h474l15 -165h-23q-20 84 -50 111q-35 32 -103 32h-132v-278h70q65 0 82 16q18 16 18 75v8h23v-227h-23v9q0 61 -18 78q-17 17 -79 17h-73v-156q0 -123 18 -142q16 -18 79 -18h49
q86 0 129 43q47 49 70 141h23zM318 -207q-21 0 -36.5 14.5t-15.5 36.5q0 20 15.5 35.5t36.5 15.5t36 -15t15 -36q0 -22 -15.5 -36.5t-35.5 -14.5z" />
    <glyph glyph-name="uni1EB9" unicode="e&#x323;" horiz-adv-x="414" 
d="M233 -207q-21 0 -36.5 14.5t-15.5 36.5q0 20 15.5 35.5t36.5 15.5t36 -15t15 -36q0 -22 -15.5 -36.5t-35.5 -14.5zM314 284q1 5 1 10v10q0 42 -23.5 66.5t-63.5 24.5q-89 0 -105 -111h191zM121 265l-1 -9q-1 -5 -1 -13v-21q0 -115 46 -162q35 -35 85 -35q88 0 126 80h23
q-16 -48 -60.5 -76.5t-102.5 -28.5q-85 0 -142 60t-57 136q0 95 55 157q55 63 137 63q73 0 120 -43q49 -42 50 -108h-278z" />
    <glyph glyph-name="uni1EC6" unicode="E&#x302;&#x323;" horiz-adv-x="576" 
d="M188 658h-33l117 157h59l118 -157h-32l-115 97zM561 194l-14 -194h-517v21h12q57 0 69.5 21t12.5 120v307q0 96 -12 115q-10 20 -62 20h-8v21h448l14 -156h-22q-19 79 -47 105q-33 30 -97 30h-125v-263h66q61 0 77 15q18 16 18 71v8h22v-214h-22v8q0 58 -18 74
q-16 16 -74 16h-69v-147q0 -116 17 -134q15 -17 75 -17h46q81 0 122 41q44 45 66 132h22zM318 -207q-21 0 -36.5 14.5t-15.5 36.5q0 20 15.5 35.5t36.5 15.5t36 -15t15 -36q0 -22 -15.5 -36.5t-35.5 -14.5z" />
    <glyph glyph-name="uni1EC7" unicode="e&#x302;&#x323;" horiz-adv-x="414" 
d="M117 465h-33l118 158h58l118 -158h-32l-115 98zM314 284q1 5 1 10v10q0 42 -23.5 66.5t-63.5 24.5q-89 0 -105 -111h191zM121 265l-1 -9q-1 -5 -1 -13v-21q0 -115 46 -162q35 -35 85 -35q88 0 126 80h23q-16 -48 -60.5 -76.5t-102.5 -28.5q-85 0 -142 60t-57 136
q0 95 55 157q55 63 137 63q73 0 120 -43q49 -42 50 -108h-278zM232 -207q-21 0 -36.5 14.5t-15.5 36.5q0 20 15.5 35.5t36.5 15.5t36 -15t15 -36q0 -22 -15.5 -36.5t-35.5 -14.5z" />
    <glyph glyph-name="uni1ECA" unicode="I&#x323;" horiz-adv-x="354" 
d="M26 662h303v-22h-15h-28q-10 0 -15 -1q-23 -4 -34 -21q-12 -21 -12 -121v-325q0 -106 12 -128q13 -22 72 -22h20v-22h-303v22h19q59 0 71 22q13 22 13 128v325q0 102 -11 121q-11 17 -35 21q-4 1 -15 1h-28h-14v22zM186 -207q-21 0 -36.5 14.5t-15.5 36.5q0 20 15.5 35.5
t36.5 15.5t36 -15t15 -36q0 -22 -15.5 -36.5t-35.5 -14.5z" />
    <glyph glyph-name="uni1ECB" unicode="i&#x323;" horiz-adv-x="248" 
d="M66 618q0 21 14 36t37 15q19 0 34.5 -15t15.5 -36t-15.5 -36.5t-34.5 -15.5q-21 0 -36 15.5t-15 36.5zM160 136q0 -81 7 -94q10 -19 51 -19h11v-23h-214v23h16q36 0 47.5 11t11.5 50v172q0 77 -10 94q-9 16 -52 16h-13v23q42 5 75 10.5t59 16.5h11v-280zM118 -207
q-21 0 -36.5 14.5t-15.5 36.5q0 20 15.5 35.5t36.5 15.5t36 -15t15 -36q0 -22 -15.5 -36.5t-35.5 -14.5z" />
    <glyph glyph-name="uni1ECC" unicode="O&#x323;" horiz-adv-x="799" 
d="M164 327q0 -131 43 -210q19 -33 52 -60q61 -46 156 -46q112 0 175 81t63 227q0 158 -63 239.5t-183 81.5t-181.5 -80.5t-61.5 -232.5zM53 331q0 147 98 239q101 94 256 94q35 0 70.5 -6t68 -17t61.5 -27.5t53 -37.5q103 -92 103 -265q0 -139 -100 -231q-99 -90 -249 -90
q-162 0 -263 92q-98 93 -98 249zM414 -207q-21 0 -36.5 14.5t-15.5 36.5q0 20 15.5 35.5t36.5 15.5t36 -15t15 -36q0 -22 -15.5 -36.5t-35.5 -14.5z" />
    <glyph glyph-name="uni1ECD" unicode="o&#x323;" horiz-adv-x="497" 
d="M249 -207q-21 0 -36.5 14.5t-15.5 36.5q0 20 15.5 35.5t36.5 15.5t36 -15t15 -36q0 -22 -15.5 -36.5t-35.5 -14.5zM117 198q0 -178 131 -178q69 0 100.5 46t31.5 132q0 195 -132 195q-131 0 -131 -195zM35 201q0 92 61 153q62 62 152 62t152 -62t62 -153q0 -81 -61 -142
q-60 -60 -153 -60q-92 0 -153 60q-60 61 -60 142z" />
    <glyph glyph-name="uni1EE4" unicode="U&#x323;" horiz-adv-x="764" 
d="M743 656v-22q-51 -4 -73.5 -26.5t-22.5 -74.5v-306q0 -113 -56 -166q-73 -72 -208 -72q-165 0 -228 95q-34 51 -32 140v268q1 100 -12 120q-8 16 -33 21q-5 1 -15 1h-28h-15v22h299v-22h-12q-37 0 -42 -1q-25 -4 -35 -21q-12 -21 -12 -120v-264q0 -129 67 -173
q49 -34 121 -34q75 0 134 36q58 37 73 94q9 33 9 73q0 1 0.5 20.5t0.5 36.5v223q0 79 -18 101q-18 25 -82 29v22h220zM406 -207q-21 0 -36.5 14.5t-15.5 36.5q0 20 15.5 35.5t36.5 15.5t36 -15t15 -36q0 -22 -15.5 -36.5t-35.5 -14.5z" />
    <glyph glyph-name="uni1EE5" unicode="u&#x323;" horiz-adv-x="537" 
d="M258 -207q-21 0 -36.5 14.5t-15.5 36.5q0 20 15.5 35.5t36.5 15.5t36 -15t15 -36q0 -22 -15.5 -36.5t-35.5 -14.5zM453 156q0 -90 7 -100q11 -21 53 -21h4v-23h-10q-62 0 -104 -16h-5q-16 27 -16 96h-2q-62 -96 -162 -96q-41 0 -75 21.5t-43 54.5q-7 23 -7 72v130
q0 85 -8 98q-11 21 -55 21h-6v23h141v-276q0 -61 18 -85.5t63 -24.5q57 0 102 53q22 27 28 51q5 15 5 57v83q0 85 -8 98q-11 21 -55 21h-10v23h145v-260z" />
    <glyph glyph-name="Ygrave" unicode="Y&#x300;" horiz-adv-x="639" 
d="M494 506q14 22 14 46q0 52 -69 52h-4v21h204v-21q-42 -8 -70 -34q-26 -25 -65 -91l-140 -234v-83q0 -99 11 -120q13 -21 68 -21h9v-21h-266v21h9q57 0 68 21q12 21 12 120v78l-182 297q-25 40 -42 53q-14 12 -51 14v21h253v-21h-5q-66 0 -66 -32q0 -14 24 -52l149 -247z
M296 729q-30 24 -30 41q0 27 30 27q26 0 57 -54l54 -90h-19z" />
    <glyph glyph-name="ygrave" unicode="y&#x300;" horiz-adv-x="432" 
d="M344 310q7 14 7 23q0 21 -51 23v21h132v-21q-30 -2 -44 -16q-15 -15 -36 -67l-168 -404q-24 -56 -41.5 -78t-41.5 -22q-30 0 -30 27q0 30 48 53q27 12 37 22q8 7 18 31l36 90l-141 302q-19 41 -31 51q-14 10 -42 11v21h173v-21q-46 -2 -46 -19q0 -7 9 -26l112 -240z
M180 541q-30 24 -30 41q0 27 30 27q26 0 57 -54l54 -90h-19z" />
    <glyph glyph-name="uni1EF4" unicode="Y&#x323;" horiz-adv-x="677" 
d="M524 536q15 24 15 49q0 55 -73 55h-5v22h216v-22q-44 -8 -74 -36q-27 -26 -69 -96l-148 -248v-88q0 -106 12 -128q13 -22 72 -22h9v-22h-282v22h10q60 0 72 22q13 22 13 128v82l-193 315q-27 43 -45 57q-15 12 -54 14v22h268v-22h-5q-70 0 -70 -34q0 -15 25 -55l159 -261
zM341 -207q-21 0 -36.5 14.5t-15.5 36.5q0 20 15.5 35.5t36.5 15.5t36 -15t15 -36q0 -22 -15.5 -36.5t-35.5 -14.5z" />
    <glyph glyph-name="uni1EF5" unicode="y&#x323;" horiz-adv-x="481" 
d="M384 343q8 15 8 25q0 23 -57 25v23h146v-23q-33 -2 -49 -18t-39 -73l-185 -445q-27 -62 -46 -86t-46 -24q-32 0 -32 30q0 32 53 58q29 13 39 24q10 7 21 34l40 99l-156 333q-21 45 -34 56q-15 11 -46 12v23h191v-23q-51 -2 -51 -21q0 -8 10 -28l123 -264zM277 -282
q-21 0 -36.5 14.5t-15.5 36.5q0 20 15.5 35.5t36.5 15.5t36 -15t15 -36q0 -22 -15.5 -36.5t-35.5 -14.5z" />
    <glyph glyph-name="uni1F00" unicode="&#x3b1;&#x313;" horiz-adv-x="608" 
d="M135 208q4 -76 50 -118q4 -4 11 -9t17 -9q26 -9 35 -9q149 0 154 174q2 43 -27 84q-37 54 -101 55q-23 0 -66 -16q-25 -10 -39 -27q-31 -39 -34 -125zM498 0q-13 5 -29 29q-8 12 -35 25q-5 3 -20 4q-8 0 -55 -34q-35 -24 -103 -24q-198 0 -200 226q-2 103 59 160
q58 54 162 56q74 1 110 -27q40 -29 47 -29q3 0 19 9q4 3 11 9.5l18 17.5l29 17q4 3 25 3q24 0 28 -31q0 -5 -7 -11q-33 -16 -58 -47q-21 -27 -21 -127q-1 -50 21 -99t59 -81q4 -3 4 -6q0 -10 -19 -25q-26 -20 -45 -15zM239 647q3 40 47 40q31 0 48 -35q8 -17 8 -43v-13
t-1 -19q-2 -11 -6 -22t-9 -21q-5 -11 -17 -16l-16 -6q-13 -5 -17 -5q-19 2 -22 8q-5 12 -5 18q5 -2 27 14l17.5 19t11.5 14q7 8 -16 29q-3 3 -31 16q-19 7 -19 22z" />
    <glyph glyph-name="uni1F01" unicode="&#x3b1;&#x314;" horiz-adv-x="608" 
d="M135 208q4 -76 50 -118q4 -4 11 -9t17 -9q26 -9 35 -9q149 0 154 174q2 43 -27 84q-37 54 -101 55q-23 0 -66 -16q-25 -10 -39 -27q-31 -39 -34 -125zM498 0q-13 5 -29 29q-8 12 -35 25q-5 3 -20 4q-8 0 -55 -34q-35 -24 -103 -24q-198 0 -200 226q-2 103 59 160
q58 54 162 56q74 1 110 -27q40 -29 47 -29q3 0 19 9q4 3 11 9.5l18 17.5l29 17q4 3 25 3q24 0 28 -31q0 -5 -7 -11q-33 -16 -58 -47q-21 -27 -21 -127q-1 -50 21 -99t59 -81q4 -3 4 -6q0 -10 -19 -25q-26 -20 -45 -15zM299 625q-24 -8 -31 -16q-23 -21 -16 -29
q5 -7 12.5 -15l16.5 -18q11 -11 27 -14q0 -7 -5 -18q-5 -6 -23 -8q-4 0 -16 5l-16 6q-11 5 -17 16q-11 20 -15 43q-1 5 -1 13t-1 19q-1 50 31 69q13 9 26 9q42 0 47 -40q0 -17 -19 -22z" />
    <glyph glyph-name="uni1F02" unicode="&#x3b1;&#x313;&#x300;" horiz-adv-x="608" 
d="M135 208q4 -76 50 -118q4 -4 11 -9t17 -9q26 -9 35 -9q149 0 154 174q2 43 -27 84q-37 54 -101 55q-23 0 -66 -16q-25 -10 -39 -27q-31 -39 -34 -125zM498 0q-13 5 -29 29q-8 12 -35 25q-5 3 -20 4q-8 0 -55 -34q-35 -24 -103 -24q-198 0 -200 226q-2 103 59 160
q58 54 162 56q74 1 110 -27q40 -29 47 -29q3 0 19 9q4 3 11 9.5l18 17.5l29 17q4 3 25 3q24 0 28 -31q0 -5 -7 -11q-33 -16 -58 -47q-21 -27 -21 -127q-1 -50 21 -99t59 -81q4 -3 4 -6q0 -10 -19 -25q-26 -20 -45 -15zM117 647q3 40 48 40q30 0 47 -35q9 -17 9 -43v-13
t-1 -19q-2 -11 -6.5 -22t-9.5 -21q-5 -11 -17 -16l-16 -6q-13 -5 -17 -5q-18 2 -22 8q-5 12 -5 18q6 -2 27 14q11 11 18 19t11 14q7 8 -16 29q-2 3 -30 16q-20 7 -20 22zM276 636q-5 9 -4 17q3 36 49 36q26 -1 31 -21l49 -172l-24 -7z" />
    <glyph glyph-name="uni1F03" unicode="&#x3b1;&#x314;&#x300;" horiz-adv-x="608" 
d="M135 208q4 -76 50 -118q4 -4 11 -9t17 -9q26 -9 35 -9q149 0 154 174q2 43 -27 84q-37 54 -101 55q-23 0 -66 -16q-25 -10 -39 -27q-31 -39 -34 -125zM498 0q-13 5 -29 29q-8 12 -35 25q-5 3 -20 4q-8 0 -55 -34q-35 -24 -103 -24q-198 0 -200 226q-2 103 59 160
q58 54 162 56q74 1 110 -27q40 -29 47 -29q3 0 19 9q4 3 11 9.5l18 17.5l29 17q4 3 25 3q24 0 28 -31q0 -5 -7 -11q-33 -16 -58 -47q-21 -27 -21 -127q-1 -50 21 -99t59 -81q4 -3 4 -6q0 -10 -19 -25q-26 -20 -45 -15zM284 636q-4 9 -3 17q3 36 49 36q25 -1 31 -21l49 -172
l-25 -7zM208 625q-22 -8 -32 -16q-22 -21 -16 -28.5l13 -15.5l16 -18q11 -11 28 -14q0 -7 -5 -18q-4 -6 -24 -8q-3 0 -15 5l-16 6q-12 5 -17 16q-12 23 -16 43q-1 5 -1 13t-1 19q0 50 32 69q13 9 25 9q43 0 48 -40q0 -17 -19 -22z" />
    <glyph glyph-name="uni1F04" unicode="&#x3b1;&#x313;&#x301;" horiz-adv-x="608" 
d="M135 208q4 -76 50 -118q4 -4 11 -9t17 -9q26 -9 35 -9q149 0 154 174q2 43 -27 84q-37 54 -101 55q-23 0 -66 -16q-25 -10 -39 -27q-31 -39 -34 -125zM498 0q-13 5 -29 29q-8 12 -35 25q-5 3 -20 4q-8 0 -55 -34q-35 -24 -103 -24q-198 0 -200 226q-2 103 59 160
q58 54 162 56q74 1 110 -27q40 -29 47 -29q3 0 19 9q4 3 11 9.5l18 17.5l29 17q4 3 25 3q24 0 28 -31q0 -5 -7 -11q-33 -16 -58 -47q-21 -27 -21 -127q-1 -50 21 -99t59 -81q4 -3 4 -6q0 -10 -19 -25q-26 -20 -45 -15zM149 647q4 40 48 40q30 0 47 -35q9 -17 9 -43v-13
t-1 -19q-2 -11 -6 -22t-9 -21q-6 -11 -17 -16l-16 -6q-13 -5 -17 -5q-19 2 -23 8q-5 12 -5 18q6 -2 28 14l17 19l12 14q6 8 -16 29q-3 3 -31 16q-20 7 -20 22zM346 668q5 20 29 21q47 0 50 -36q1 -10 -3 -17l-101 -147l-26 7z" />
    <glyph glyph-name="uni1F05" unicode="&#x3b1;&#x314;&#x301;" horiz-adv-x="608" 
d="M135 208q4 -76 50 -118q4 -4 11 -9t17 -9q26 -9 35 -9q149 0 154 174q2 43 -27 84q-37 54 -101 55q-23 0 -66 -16q-25 -10 -39 -27q-31 -39 -34 -125zM498 0q-13 5 -29 29q-8 12 -35 25q-5 3 -20 4q-8 0 -55 -34q-35 -24 -103 -24q-198 0 -200 226q-2 103 59 160
q58 54 162 56q74 1 110 -27q40 -29 47 -29q3 0 19 9q4 3 11 9.5l18 17.5l29 17q4 3 25 3q24 0 28 -31q0 -5 -7 -11q-33 -16 -58 -47q-21 -27 -21 -127q-1 -50 21 -99t59 -81q4 -3 4 -6q0 -10 -19 -25q-26 -20 -45 -15zM389 668q5 20 31 21q46 0 48 -36q1 -10 -3 -17
l-101 -147l-24 7zM270 625q-23 -8 -32 -16q-22 -21 -16.5 -28.5t12.5 -15.5t17 -18q11 -11 29 -14q0 -7 -6 -18q-4 -6 -24 -8q-4 0 -16 5l-15 6q-12 5 -17 16q-12 23 -16 43q-1 5 -1 13t-1 19q0 50 32 69q12 9 24 9q44 0 49 -40q0 -17 -19 -22z" />
    <glyph glyph-name="uni1F06" unicode="&#x3b1;&#x313;&#x342;" horiz-adv-x="608" 
d="M135 208q4 -76 50 -118q4 -4 11 -9t17 -9q26 -9 35 -9q149 0 154 174q2 43 -27 84q-37 54 -101 55q-23 0 -66 -16q-25 -10 -39 -27q-31 -39 -34 -125zM498 0q-13 5 -29 29q-8 12 -35 25q-5 3 -20 4q-8 0 -55 -34q-35 -24 -103 -24q-198 0 -200 226q-2 103 59 160
q58 54 162 56q74 1 110 -27q40 -29 47 -29q3 0 19 9q4 3 11 9.5l18 17.5l29 17q4 3 25 3q24 0 28 -31q0 -5 -7 -11q-33 -16 -58 -47q-21 -27 -21 -127q-1 -50 21 -99t59 -81q4 -3 4 -6q0 -10 -19 -25q-26 -20 -45 -15zM250 591q4 30 48 30q18 0 25 -7q7 -2 23 -17
q8 -19 8 -53v-9q0 -5 -1 -13q-2 -4 -6.5 -10t-9.5 -16q-4 -10 -17 -16l-16 -4q-12 -7 -16 -7q-18 3 -22 10q-6 9 -6 16q6 -1 27 15q10 4 24 17q2 3 1 16q0 11 -6 17q-9 9 -35 15q-21 8 -21 16zM480 673q-9 -26 -37 -44q-30 -19 -57 -19q-19 0 -69 30q-7 3 -16.5 6t-21.5 8
q-10 6 -21 6q-54 0 -76 -48l-20 33q25 63 97 66q20 0 64 -26q48 -30 63 -31q24 0 45.5 14.5t30.5 36.5z" />
    <glyph glyph-name="uni1F07" unicode="&#x3b1;&#x314;&#x342;" horiz-adv-x="608" 
d="M135 208q4 -76 50 -118q4 -4 11 -9t17 -9q26 -9 35 -9q149 0 154 174q2 43 -27 84q-37 54 -101 55q-23 0 -66 -16q-25 -10 -39 -27q-31 -39 -34 -125zM498 0q-13 5 -29 29q-8 12 -35 25q-5 3 -20 4q-8 0 -55 -34q-35 -24 -103 -24q-198 0 -200 226q-2 103 59 160
q58 54 162 56q74 1 110 -27q40 -29 47 -29q3 0 19 9q4 3 11 9.5l18 17.5l29 17q4 3 25 3q24 0 28 -31q0 -5 -7 -11q-33 -16 -58 -47q-21 -27 -21 -127q-1 -50 21 -99t59 -81q4 -3 4 -6q0 -10 -19 -25q-26 -20 -45 -15zM307 575q-25 -6 -35 -15q-5 -5 -6 -17q-3 -17 11 -22
q7 -3 14 -11q10 -12 27 -15q0 -7 -6 -16q-3 -7 -22 -10q-4 0 -16 7l-16 4q-10 6 -17 16q-6 5 -15 26q-1 5 -1 11t-1 11q0 34 8 53q3 4 23 17q12 9 26 9q24 0 35 -14q6 -4 12 -18q0 -8 -21 -16zM448 673q-10 -26 -39 -44q-29 -19 -56 -19q-19 0 -69 30q-7 3 -16.5 6t-22.5 8
q-10 6 -20 6q-54 0 -77 -48l-19 33q24 63 97 66q19 0 64 -26q48 -30 63 -31q24 0 45.5 14.5t30.5 36.5z" />
    <glyph glyph-name="uni1F08" unicode="&#x391;&#x313;" horiz-adv-x="716" 
d="M443 321l-75 215l-87 -215h162zM376 680l294 -680h-100l-94 247h-231l-104 -247h-99l316 680h18zM97 647q4 40 48 40q30 0 47 -35q9 -17 9 -43v-13t-1 -19q-2 -11 -6.5 -22l-8.5 -21q-6 -11 -17 -16l-16 -6q-13 -5 -17 -5q-19 2 -23 8q-5 12 -5 18q6 -2 28 14l17 19
l12 14q6 8 -16 29q-3 3 -31 16q-20 7 -20 22z" />
    <glyph glyph-name="uni1F09" unicode="&#x391;&#x314;" horiz-adv-x="716" 
d="M443 321l-75 215l-87 -215h162zM376 680l294 -680h-100l-94 247h-231l-104 -247h-99l316 680h18zM137 625q-24 -8 -31 -16q-23 -21 -16 -29q5 -7 12.5 -15l16.5 -18q11 -11 27 -14q0 -7 -5 -18q-5 -6 -23 -8q-4 0 -16 5l-16 6q-11 5 -17 16q-11 20 -15 43q-1 5 -1 13
t-1 19q-1 50 31 69q13 9 26 9q42 0 47 -40q0 -17 -19 -22z" />
    <glyph glyph-name="uni1F0A" unicode="&#x391;&#x313;&#x300;" horiz-adv-x="814" 
d="M541 321l-75 215l-87 -215h162zM474 680l294 -680h-100l-94 247h-231l-104 -247h-100l317 680h18zM0 647q4 40 49 40q29 0 47 -35q8 -17 8 -43v-13t-1 -19q-2 -11 -6 -22t-9 -21q-6 -11 -17 -16l-16 -6q-13 -5 -17 -5q-19 2 -23 8q-4 12 -4 18q5 -2 27 14q11 11 18 19
t11 14q7 8 -16 29q-2 3 -31 16q-20 7 -20 22zM160 636q-5 9 -4 17q3 36 49 36q26 -1 31 -21l49 -172l-24 -7z" />
    <glyph glyph-name="uni1F0B" unicode="&#x391;&#x314;&#x300;" horiz-adv-x="803" 
d="M531 321l-75 215l-87 -215h162zM464 680l293 -680h-100l-94 247h-230l-105 -247h-99l317 680h18zM162 636q-5 9 -4 17q3 36 49 36q25 -1 31 -21l49 -172l-24 -7zM85 625q-22 -8 -32 -16q-21 -21 -15.5 -28.5t12.5 -15.5l16 -18q12 -11 29 -14q0 -7 -6 -18q-4 -6 -24 -8
q-3 0 -15 5l-15 6q-13 5 -17 16q-13 23 -17 43v13t-1 19q0 50 32 69q12 9 24 9q44 0 49 -40q0 -17 -20 -22z" />
    <glyph glyph-name="uni1F0C" unicode="&#x391;&#x313;&#x301;" horiz-adv-x="747" 
d="M0 648q5 39 48 39q29 0 46 -34q9 -19 9 -44q-1 -5 -1 -13q0 -7 -1 -18q-4 -23 -15 -44q-5 -11 -17 -16l-15 -6q-13 -5 -16 -5q-19 2 -23 8q-6 11 -6 18q6 -1 28 15q19 20 29 32q7 8 -16 29q-3 3 -30 16q-20 9 -20 23zM165 668q6 20 31 22q46 0 48 -36q0 -11 -3 -18
l-99 -147l-25 7zM475 321l-75 215l-87 -215h162zM408 680l293 -680h-100l-94 247h-230l-105 -247h-99l317 680h18z" />
    <glyph glyph-name="uni1F0D" unicode="&#x391;&#x314;&#x301;" horiz-adv-x="780" 
d="M507 321l-75 215l-87 -215h162zM440 680l294 -680h-100l-94 247h-231l-104 -247h-100l317 680h18zM205 668q5 20 31 21q46 0 48 -36q1 -10 -3 -17l-101 -147l-24 7zM86 625q-23 -8 -32 -16q-22 -21 -16.5 -28.5t13 -15.5l16.5 -18q12 -11 29 -14q0 -7 -6 -18
q-4 -6 -24 -8q-4 0 -16 5l-15 6q-12 5 -17 16q-12 23 -16 43q-1 5 -1 13t-1 19q0 50 32 69q12 9 25 9q43 0 48 -40q0 -17 -19 -22z" />
    <glyph glyph-name="uni1F0E" unicode="&#x391;&#x313;&#x342;" horiz-adv-x="781" 
d="M508 321l-75 215l-87 -215h162zM441 680l294 -680h-100l-94 247h-231l-104 -247h-100l317 680h18zM89 591q4 30 47 30q19 0 26 -7q6 -2 22 -17q8 -19 8 -53v-9q0 -5 -1 -13q-2 -4 -6.5 -10t-8.5 -16q-5 -10 -17 -16l-16 -4q-13 -7 -17 -7q-18 3 -22 10q-6 9 -6 16
q6 -1 27 15q10 4 24 17q3 3 2 16q-1 11 -6 17q-10 9 -36 15q-20 8 -20 16zM319 673q-9 -26 -38 -44q-30 -19 -56 -19q-19 0 -69 30q-8 3 -17.5 6t-21.5 8q-10 6 -21 6q-54 0 -76 -48l-20 33q25 63 97 66q20 0 65 -26q47 -30 63 -31q23 0 45 14.5t30 36.5z" />
    <glyph glyph-name="uni1F0F" unicode="&#x391;&#x314;&#x342;" horiz-adv-x="770" 
d="M497 321l-75 215l-87 -215h162zM430 680l294 -680h-100l-94 247h-231l-104 -247h-100l317 680h18zM178 575q-25 -6 -35 -15q-5 -5 -6 -17q-2 -17 11 -22q7 -3 14 -11q10 -12 27 -15q0 -7 -6 -16q-3 -7 -22 -10q-4 0 -16 7l-16 4q-10 6 -17 16q-6 5 -15 26q-1 5 -1 11
t-1 11q0 34 8 53q3 4 23 17q12 9 26 9q24 0 35 -14q6 -4 12 -18q0 -8 -21 -16zM319 673q-10 -26 -38 -44q-30 -19 -57 -19q-19 0 -69 30q-7 3 -16.5 6t-22.5 8q-10 6 -20 6q-54 0 -77 -48l-19 33q24 63 97 66q19 0 64 -26q48 -30 63 -31q24 0 45.5 14.5t30.5 36.5z" />
    <glyph glyph-name="uni1F10" unicode="&#x3b5;&#x313;" horiz-adv-x="374" 
d="M84 220q-1 11 -20 52q-15 34 -15 69q0 57 55 83q43 18 106 18h41q26 0 37 -5q21 -11 28 -17q10 -10 12 -29q1 -19 -15 -30q-5 -2 -12 -3q-7 3 -30 16q-21 11 -47 13q-44 0 -58 -4q-32 -8 -47 -43q-5 -17 -6 -32q-1 -22 7 -39q9 -21 31 -21h137q19 0 21 -24q1 -17 -8 -23
q-2 -1 -5.5 -2t-9.5 -3h-143q-13 0 -22 -23q-8 -20 -8 -34q0 -40 26 -60q6 -6 21 -13q10 -2 25.5 -2.5t39.5 -1.5q33 -1 49 7q10 7 16.5 12l11.5 9h8q21 0 23 -32q1 -19 -25 -37l-3 -1q-28 -17 -45 -20h-52q-62 0 -105 20q-52 26 -54 84q-1 33 10 60q3 12 25 56zM140 647
q3 40 47 40q31 0 48 -35q8 -17 8 -43v-13t-1 -19q-2 -11 -6 -22t-9 -21q-5 -11 -17 -16l-16 -6q-13 -5 -17 -5q-19 2 -22 8q-5 12 -5 18q5 -2 27 14l17.5 19t11.5 14q7 8 -16 29q-3 3 -31 16q-19 7 -19 22z" />
    <glyph glyph-name="uni1F11" unicode="&#x3b5;&#x314;" horiz-adv-x="374" 
d="M84 220q-1 11 -20 52q-15 34 -15 69q0 57 55 83q43 18 106 18h41q26 0 37 -5q21 -11 28 -17q10 -10 12 -29q1 -19 -15 -30q-5 -2 -12 -3q-7 3 -30 16q-21 11 -47 13q-44 0 -58 -4q-32 -8 -47 -43q-5 -17 -6 -32q-1 -22 7 -39q9 -21 31 -21h137q19 0 21 -24q1 -17 -8 -23
q-2 -1 -5.5 -2t-9.5 -3h-143q-13 0 -22 -23q-8 -20 -8 -34q0 -40 26 -60q6 -6 21 -13q10 -2 25.5 -2.5t39.5 -1.5q33 -1 49 7q10 7 16.5 12l11.5 9h8q21 0 23 -32q1 -19 -25 -37l-3 -1q-28 -17 -45 -20h-52q-62 0 -105 20q-52 26 -54 84q-1 33 10 60q3 12 25 56zM231 625
q-24 -8 -31 -16q-23 -21 -16 -29q5 -7 12.5 -15l16.5 -18q11 -11 27 -14q0 -7 -5 -18q-5 -6 -23 -8q-4 0 -16 5l-16 6q-11 5 -17 16q-11 20 -15 43q-1 5 -1 13t-1 19q-1 50 31 69q13 9 26 9q42 0 47 -40q0 -17 -19 -22z" />
    <glyph glyph-name="uni1F12" unicode="&#x3b5;&#x313;&#x300;" horiz-adv-x="374" 
d="M84 220q-1 11 -20 52q-15 34 -15 69q0 57 55 83q43 18 106 18h41q26 0 37 -5q21 -11 28 -17q10 -10 12 -29q1 -19 -15 -30q-5 -2 -12 -3q-7 3 -30 16q-21 11 -47 13q-44 0 -58 -4q-32 -8 -47 -43q-5 -17 -6 -32q-1 -22 7 -39q9 -21 31 -21h137q19 0 21 -24q1 -17 -8 -23
q-2 -1 -5.5 -2t-9.5 -3h-143q-13 0 -22 -23q-8 -20 -8 -34q0 -40 26 -60q6 -6 21 -13q10 -2 25.5 -2.5t39.5 -1.5q33 -1 49 7q10 7 16.5 12l11.5 9h8q21 0 23 -32q1 -19 -25 -37l-3 -1q-28 -17 -45 -20h-52q-62 0 -105 20q-52 26 -54 84q-1 33 10 60q3 12 25 56zM45 647
q3 40 48 40q30 0 47 -35q9 -17 9 -43v-13t-1 -19q-2 -11 -6.5 -22t-9.5 -21q-5 -11 -17 -16l-16 -6q-13 -5 -17 -5q-18 2 -22 8q-5 12 -5 18q6 -2 27 14q11 11 18 19t11 14q7 8 -16 29q-2 3 -30 16q-20 7 -20 22zM204 636q-5 9 -4 17q3 36 49 36q26 -1 31 -21l49 -172
l-24 -7z" />
    <glyph glyph-name="uni1F13" unicode="&#x3b5;&#x314;&#x300;" horiz-adv-x="374" 
d="M84 220q-1 11 -20 52q-15 34 -15 69q0 57 55 83q43 18 106 18h41q26 0 37 -5q21 -11 28 -17q10 -10 12 -29q1 -19 -15 -30q-5 -2 -12 -3q-7 3 -30 16q-21 11 -47 13q-44 0 -58 -4q-32 -8 -47 -43q-5 -17 -6 -32q-1 -22 7 -39q9 -21 31 -21h137q19 0 21 -24q1 -17 -8 -23
q-2 -1 -5.5 -2t-9.5 -3h-143q-13 0 -22 -23q-8 -20 -8 -34q0 -40 26 -60q6 -6 21 -13q10 -2 25.5 -2.5t39.5 -1.5q33 -1 49 7q10 7 16.5 12l11.5 9h8q21 0 23 -32q1 -19 -25 -37l-3 -1q-28 -17 -45 -20h-52q-62 0 -105 20q-52 26 -54 84q-1 33 10 60q3 12 25 56zM214 636
q-4 9 -3 17q3 36 49 36q25 -1 31 -21l49 -172l-25 -7zM138 625q-22 -8 -32 -16q-22 -21 -16 -28.5l13 -15.5l16 -18q11 -11 28 -14q0 -7 -5 -18q-4 -6 -24 -8q-3 0 -15 5l-16 6q-12 5 -17 16q-12 23 -16 43q-1 5 -1 13t-1 19q0 50 32 69q13 9 25 9q43 0 48 -40
q0 -17 -19 -22z" />
    <glyph glyph-name="uni1F14" unicode="&#x3b5;&#x313;&#x301;" horiz-adv-x="374" 
d="M84 220q-1 11 -20 52q-15 34 -15 69q0 57 55 83q43 18 106 18h41q26 0 37 -5q21 -11 28 -17q10 -10 12 -29q1 -19 -15 -30q-5 -2 -12 -3q-7 3 -30 16q-21 11 -47 13q-44 0 -58 -4q-32 -8 -47 -43q-5 -17 -6 -32q-1 -22 7 -39q9 -21 31 -21h137q19 0 21 -24q1 -17 -8 -23
q-2 -1 -5.5 -2t-9.5 -3h-143q-13 0 -22 -23q-8 -20 -8 -34q0 -40 26 -60q6 -6 21 -13q10 -2 25.5 -2.5t39.5 -1.5q33 -1 49 7q10 7 16.5 12l11.5 9h8q21 0 23 -32q1 -19 -25 -37l-3 -1q-28 -17 -45 -20h-52q-62 0 -105 20q-52 26 -54 84q-1 33 10 60q3 12 25 56zM76 647
q4 40 48 40q30 0 47 -35q9 -17 9 -43v-13t-1 -19q-2 -11 -6 -22t-9 -21q-6 -11 -17 -16l-16 -6q-13 -5 -17 -5q-19 2 -23 8q-5 12 -5 18q6 -2 28 14l17 19l12 14q6 8 -16 29q-3 3 -31 16q-20 7 -20 22zM273 668q5 20 29 21q47 0 50 -36q1 -10 -3 -17l-101 -147l-26 7z" />
    <glyph glyph-name="uni1F15" unicode="&#x3b5;&#x314;&#x301;" horiz-adv-x="374" 
d="M84 220q-1 11 -20 52q-15 34 -15 69q0 57 55 83q43 18 106 18h41q26 0 37 -5q21 -11 28 -17q10 -10 12 -29q1 -19 -15 -30q-5 -2 -12 -3q-7 3 -30 16q-21 11 -47 13q-44 0 -58 -4q-32 -8 -47 -43q-5 -17 -6 -32q-1 -22 7 -39q9 -21 31 -21h137q19 0 21 -24q1 -17 -8 -23
q-2 -1 -5.5 -2t-9.5 -3h-143q-13 0 -22 -23q-8 -20 -8 -34q0 -40 26 -60q6 -6 21 -13q10 -2 25.5 -2.5t39.5 -1.5q33 -1 49 7q10 7 16.5 12l11.5 9h8q21 0 23 -32q1 -19 -25 -37l-3 -1q-28 -17 -45 -20h-52q-62 0 -105 20q-52 26 -54 84q-1 33 10 60q3 12 25 56zM296 668
q5 20 31 21q46 0 48 -36q1 -10 -3 -17l-101 -147l-24 7zM177 625q-23 -8 -32 -16q-22 -21 -16.5 -28.5t12.5 -15.5t17 -18q11 -11 29 -14q0 -7 -6 -18q-4 -6 -24 -8q-4 0 -16 5l-15 6q-12 5 -17 16q-12 23 -16 43q-1 5 -1 13t-1 19q0 50 32 69q12 9 24 9q44 0 49 -40
q0 -17 -19 -22z" />
    <glyph glyph-name="uni1F18" unicode="&#x395;&#x313;" horiz-adv-x="703" 
d="M186 658q0 26 28 28q13 0 36 -3q25 -3 36 -3h346q16 0 16 -30t-28 -48q-9 -7 -36 7q-30 15 -39 14h-258v-231h267q15 0 16 -44q1 -19 -7 -30q-3 -6 -12 -7h-265v-249h275l69 24q13 -1 22 -18q6 -12 6 -29q0 -39 -26 -39h-448q6 69 8 211q2 74 -3 223q-1 75 -2 131t-1 93z
M0 647q3 40 48 40q30 0 47 -35q9 -17 9 -43v-13t-1 -19q-2 -11 -6.5 -22t-9.5 -21q-5 -11 -16 -16l-16 -6q-13 -5 -17 -5q-19 2 -23 8q-5 12 -5 18q6 -2 28 14l17 19l12 14q6 8 -16 29q-3 3 -31 16q-20 7 -20 22z" />
    <glyph glyph-name="uni1F19" unicode="&#x395;&#x314;" horiz-adv-x="677" 
d="M160 658q0 26 28 28q13 0 36 -3q26 -3 36 -3h346q16 0 16 -30t-28 -48q-8 -7 -36 7q-30 15 -38 14h-259v-231h267q15 0 16 -44q1 -19 -7 -30q-3 -6 -12 -7h-265v-249h275l69 24q13 -1 22 -18q6 -12 6 -29q0 -39 -26 -39h-448q7 69 9 211q2 74 -3 223q-2 75 -3 131t-1 93z
M86 625q-24 -8 -32 -16q-22 -21 -16 -29q5 -7 12.5 -15l16.5 -18q12 -11 28 -14q0 -7 -6 -18q-4 -6 -23 -8q-3 0 -16 5l-16 6q-11 5 -16 16q-11 20 -15 43q-1 5 -1 13t-1 19q-1 50 31 69q12 9 25 9q43 0 47 -40q0 -17 -18 -22z" />
    <glyph glyph-name="uni1F1A" unicode="&#x395;&#x313;&#x300;" horiz-adv-x="866" 
d="M348 658q0 26 28 28q14 0 37 -3q25 -3 35 -3h346q17 0 17 -30t-29 -48q-8 -7 -35 7q-31 15 -39 14h-259v-231h267q15 0 16 -44q1 -19 -6 -30q-3 -6 -13 -7h-265v-249h276l68 24q13 -1 22 -18q7 -12 7 -29q0 -39 -27 -39h-447q6 69 8 211q2 74 -3 223q-2 75 -3 131t-1 93z
M0 647q4 40 49 40q30 0 47 -35q8 -17 8 -43v-13t-1 -19t-5.5 -22t-9.5 -21q-6 -11 -17 -16l-16 -6q-13 -5 -17 -5q-19 2 -22 8q-5 12 -5 18q6 -2 27 14q11 11 18 19t11 14q7 8 -16 29q-2 3 -31 16q-20 7 -20 22zM160 636q-5 9 -4 17q3 36 49 36q26 -1 31 -21l49 -172l-24 -7
z" />
    <glyph glyph-name="uni1F1B" unicode="&#x395;&#x314;&#x300;" horiz-adv-x="864" 
d="M346 658q0 26 29 28q13 0 36 -3q25 -3 35 -3h347q16 0 16 -30t-29 -48q-8 -7 -35 7q-30 15 -39 14h-259v-231h268q15 0 16 -44q1 -19 -7 -30q-3 -6 -12 -7h-266v-249h276l69 24q12 -1 22 -18q6 -12 6 -29q0 -39 -26 -39h-448q6 69 8 211q2 74 -3 223q-2 75 -3 131t-1 93z
M162 636q-5 9 -4 17q3 36 49 36q26 -1 31 -21l49 -172l-24 -7zM86 625q-23 -8 -33 -16q-21 -21 -15.5 -28.5t12.5 -15.5t17 -18q11 -11 28 -14q0 -7 -5 -18q-4 -6 -24 -8q-4 0 -16 5l-15 6q-13 5 -17 16q-12 23 -16 43q-1 5 -1 13t-1 19q0 50 32 69q12 9 24 9q44 0 49 -40
q0 -17 -19 -22z" />
    <glyph glyph-name="uni1F1C" unicode="&#x395;&#x313;&#x301;" horiz-adv-x="863" 
d="M345 658q0 26 29 28q13 0 36 -3q25 -3 35 -3h346q17 0 17 -30t-29 -48q-8 -7 -35 7q-31 15 -39 14h-259v-231h267q15 0 16 -44q1 -19 -6 -30q-3 -6 -13 -7h-265v-249h276l69 24q12 -1 22 -18q6 -12 6 -29q0 -39 -27 -39h-447q6 69 8 211q2 74 -3 223q-2 75 -3 131t-1 93z
M0 647q4 40 48 40q31 0 48 -35q8 -17 8 -43v-13t-1 -19q-2 -11 -6 -22t-9 -21q-5 -11 -17 -16l-16 -6q-13 -5 -17 -5q-19 2 -22 8q-5 12 -5 18q6 -2 27 14l17 19l12 14q7 8 -16 29q-3 3 -31 16q-20 7 -20 22zM197 668q5 20 30 21q46 0 49 -36q1 -10 -3 -17l-101 -147l-26 7z
" />
    <glyph glyph-name="uni1F1D" unicode="&#x395;&#x314;&#x301;" horiz-adv-x="885" 
d="M367 658q0 26 29 28q13 0 36 -3q25 -3 35 -3h347q16 0 16 -30t-29 -48q-8 -7 -35 7q-31 15 -39 14h-259v-231h267q16 0 17 -44q1 -19 -7 -30q-3 -6 -12 -7h-266v-249h276l69 24q12 -1 22 -18q6 -12 6 -29q0 -39 -26 -39h-448q6 69 8 211q2 74 -3 223q-2 75 -3 131t-1 93z
M205 668q5 20 30 21q47 0 49 -36q1 -10 -3 -17l-101 -147l-25 7zM86 625q-23 -8 -32 -16q-22 -21 -16.5 -28.5t12.5 -15.5t17 -18q11 -11 28 -14q0 -7 -5 -18q-4 -6 -24 -8q-4 0 -16 5l-15 6q-12 5 -17 16q-12 23 -16 43q-1 5 -1 13t-1 19q0 50 32 69q12 9 24 9q44 0 49 -40
q0 -17 -19 -22z" />
    <glyph glyph-name="uni1F20" unicode="&#x3b7;&#x313;" horiz-adv-x="531" 
d="M286 441q61 0 107 -17q61 -26 65 -77q1 -10 2 -30.5t3 -49.5q2 -58 3 -129.5t1 -157.5v-129q0 -9 -10 -14q-6 -4 -32 -7q-39 0 -38 21l7 255q1 33 1.5 72t0.5 85v77q0 24 -44 39q-34 13 -63 13q-25 1 -71 -17q-53 -19 -51 -39q1 -8 2 -21t2 -34q2 -38 2.5 -86t1.5 -107
l1 -84q0 -4 -11 -10q-5 -1 -35 -2q-15 -1 -29 2q-11 4 -11 12l8 360q2 13 -16 21q-7 4 -14 5.5t-15 2.5q-9 0 -35 -16q0 4 -3 17q24 42 51 45q10 0 37 -15q25 -15 44 -13q13 1 29 5l38 10q44 13 72 13zM181 647q3 40 47 40q31 0 48 -35q8 -17 8 -43v-13t-1 -19
q-2 -11 -6 -22t-9 -21q-5 -11 -17 -16l-16 -6q-13 -5 -17 -5q-19 2 -22 8q-5 12 -5 18q5 -2 27 14l17.5 19t11.5 14q7 8 -16 29q-3 3 -31 16q-19 7 -19 22z" />
    <glyph glyph-name="uni1F21" unicode="&#x3b7;&#x314;" horiz-adv-x="531" 
d="M286 441q61 0 107 -17q61 -26 65 -77q1 -10 2 -30.5t3 -49.5q2 -58 3 -129.5t1 -157.5v-129q0 -9 -10 -14q-6 -4 -32 -7q-39 0 -38 21l7 255q1 33 1.5 72t0.5 85v77q0 24 -44 39q-34 13 -63 13q-25 1 -71 -17q-53 -19 -51 -39q1 -8 2 -21t2 -34q2 -38 2.5 -86t1.5 -107
l1 -84q0 -4 -11 -10q-5 -1 -35 -2q-15 -1 -29 2q-11 4 -11 12l8 360q2 13 -16 21q-7 4 -14 5.5t-15 2.5q-9 0 -35 -16q0 4 -3 17q24 42 51 45q10 0 37 -15q25 -15 44 -13q13 1 29 5l38 10q44 13 72 13zM333 624q-24 -8 -31 -16q-23 -21 -16 -29q5 -7 12.5 -15l16.5 -18
q11 -11 27 -14q0 -7 -5 -18q-5 -6 -23 -8q-4 0 -16 5l-16 6q-11 5 -17 16q-11 20 -15 43q-1 5 -1 13t-1 19q-1 50 31 69q13 9 26 9q42 0 47 -40q0 -17 -19 -22z" />
    <glyph glyph-name="uni1F22" unicode="&#x3b7;&#x313;&#x300;" horiz-adv-x="531" 
d="M286 441q61 0 107 -17q61 -26 65 -77q1 -10 2 -30.5t3 -49.5q2 -58 3 -129.5t1 -157.5v-129q0 -9 -10 -14q-6 -4 -32 -7q-39 0 -38 21l7 255q1 33 1.5 72t0.5 85v77q0 24 -44 39q-34 13 -63 13q-25 1 -71 -17q-53 -19 -51 -39q1 -8 2 -21t2 -34q2 -38 2.5 -86t1.5 -107
l1 -84q0 -4 -11 -10q-5 -1 -35 -2q-15 -1 -29 2q-11 4 -11 12l8 360q2 13 -16 21q-7 4 -14 5.5t-15 2.5q-9 0 -35 -16q0 4 -3 17q24 42 51 45q10 0 37 -15q25 -15 44 -13q13 1 29 5l38 10q44 13 72 13zM116 647q3 40 48 40q30 0 47 -35q9 -17 9 -43v-13t-1 -19
q-2 -11 -6.5 -22t-9.5 -21q-5 -11 -17 -16l-16 -6q-13 -5 -17 -5q-18 2 -22 8q-5 12 -5 18q6 -2 27 14q11 11 18 19t11 14q7 8 -16 29q-2 3 -30 16q-20 7 -20 22zM275 636q-5 9 -4 17q3 36 49 36q26 -1 31 -21l49 -172l-24 -7z" />
    <glyph glyph-name="uni1F23" unicode="&#x3b7;&#x314;&#x300;" horiz-adv-x="531" 
d="M286 441q61 0 107 -17q61 -26 65 -77q1 -10 2 -30.5t3 -49.5q2 -58 3 -129.5t1 -157.5v-129q0 -9 -10 -14q-6 -4 -32 -7q-39 0 -38 21l7 255q1 33 1.5 72t0.5 85v77q0 24 -44 39q-34 13 -63 13q-25 1 -71 -17q-53 -19 -51 -39q1 -8 2 -21t2 -34q2 -38 2.5 -86t1.5 -107
l1 -84q0 -4 -11 -10q-5 -1 -35 -2q-15 -1 -29 2q-11 4 -11 12l8 360q2 13 -16 21q-7 4 -14 5.5t-15 2.5q-9 0 -35 -16q0 4 -3 17q24 42 51 45q10 0 37 -15q25 -15 44 -13q13 1 29 5l38 10q44 13 72 13zM274 636q-4 9 -3 17q3 36 49 36q25 -1 31 -21l49 -172l-25 -7zM198 625
q-22 -8 -32 -16q-22 -21 -16 -28.5l13 -15.5l16 -18q11 -11 28 -14q0 -7 -5 -18q-4 -6 -24 -8q-3 0 -15 5l-16 6q-12 5 -17 16q-12 23 -16 43q-1 5 -1 13t-1 19q0 50 32 69q13 9 25 9q43 0 48 -40q0 -17 -19 -22z" />
    <glyph glyph-name="uni1F24" unicode="&#x3b7;&#x313;&#x301;" horiz-adv-x="531" 
d="M286 441q61 0 107 -17q61 -26 65 -77q1 -10 2 -30.5t3 -49.5q2 -58 3 -129.5t1 -157.5v-129q0 -9 -10 -14q-6 -4 -32 -7q-39 0 -38 21l7 255q1 33 1.5 72t0.5 85v77q0 24 -44 39q-34 13 -63 13q-25 1 -71 -17q-53 -19 -51 -39q1 -8 2 -21t2 -34q2 -38 2.5 -86t1.5 -107
l1 -84q0 -4 -11 -10q-5 -1 -35 -2q-15 -1 -29 2q-11 4 -11 12l8 360q2 13 -16 21q-7 4 -14 5.5t-15 2.5q-9 0 -35 -16q0 4 -3 17q24 42 51 45q10 0 37 -15q25 -15 44 -13q13 1 29 5l38 10q44 13 72 13zM152 647q4 40 48 40q30 0 47 -35q9 -17 9 -43v-13t-1 -19
q-2 -11 -6 -22t-9 -21q-6 -11 -17 -16l-16 -6q-13 -5 -17 -5q-19 2 -23 8q-5 12 -5 18q6 -2 28 14l17 19l12 14q6 8 -16 29q-3 3 -31 16q-20 7 -20 22zM349 668q5 20 29 21q47 0 50 -36q1 -10 -3 -17l-101 -147l-26 7z" />
    <glyph glyph-name="uni1F25" unicode="&#x3b7;&#x314;&#x301;" horiz-adv-x="531" 
d="M286 441q61 0 107 -17q61 -26 65 -77q1 -10 2 -30.5t3 -49.5q2 -58 3 -129.5t1 -157.5v-129q0 -9 -10 -14q-6 -4 -32 -7q-39 0 -38 21l7 255q1 33 1.5 72t0.5 85v77q0 24 -44 39q-34 13 -63 13q-25 1 -71 -17q-53 -19 -51 -39q1 -8 2 -21t2 -34q2 -38 2.5 -86t1.5 -107
l1 -84q0 -4 -11 -10q-5 -1 -35 -2q-15 -1 -29 2q-11 4 -11 12l8 360q2 13 -16 21q-7 4 -14 5.5t-15 2.5q-9 0 -35 -16q0 4 -3 17q24 42 51 45q10 0 37 -15q25 -15 44 -13q13 1 29 5l38 10q44 13 72 13zM349 668q5 20 31 21q46 0 48 -36q1 -10 -3 -17l-101 -147l-24 7z
M230 625q-23 -8 -32 -16q-22 -21 -16.5 -28.5t12.5 -15.5t17 -18q11 -11 29 -14q0 -7 -6 -18q-4 -6 -24 -8q-4 0 -16 5l-15 6q-12 5 -17 16q-12 23 -16 43q-1 5 -1 13t-1 19q0 50 32 69q12 9 24 9q44 0 49 -40q0 -17 -19 -22z" />
    <glyph glyph-name="uni1F26" unicode="&#x3b7;&#x313;&#x342;" horiz-adv-x="531" 
d="M286 441q61 0 107 -17q61 -26 65 -77q1 -10 2 -30.5t3 -49.5q2 -58 3 -129.5t1 -157.5v-129q0 -9 -10 -14q-6 -4 -32 -7q-39 0 -38 21l7 255q1 33 1.5 72t0.5 85v77q0 24 -44 39q-34 13 -63 13q-25 1 -71 -17q-53 -19 -51 -39q1 -8 2 -21t2 -34q2 -38 2.5 -86t1.5 -107
l1 -84q0 -4 -11 -10q-5 -1 -35 -2q-15 -1 -29 2q-11 4 -11 12l8 360q2 13 -16 21q-7 4 -14 5.5t-15 2.5q-9 0 -35 -16q0 4 -3 17q24 42 51 45q10 0 37 -15q25 -15 44 -13q13 1 29 5l38 10q44 13 72 13zM201 593q4 30 48 30q18 0 25 -7q7 -2 23 -17q8 -19 8 -53v-9
q0 -5 -1 -13q-2 -4 -6.5 -10t-9.5 -16q-4 -10 -17 -16l-16 -4q-12 -7 -16 -7q-18 3 -22 10q-6 9 -6 16q6 -1 27 15q10 4 24 17q2 3 1 16q0 11 -6 17q-9 9 -35 15q-21 8 -21 16zM431 675q-9 -26 -37 -44q-30 -19 -57 -19q-19 0 -69 30q-7 3 -16.5 6t-21.5 8q-10 6 -21 6
q-54 0 -76 -48l-20 33q25 63 97 66q20 0 64 -26q48 -30 63 -31q24 0 45.5 14.5t30.5 36.5z" />
    <glyph glyph-name="uni1F27" unicode="&#x3b7;&#x314;&#x342;" horiz-adv-x="531" 
d="M286 441q61 0 107 -17q61 -26 65 -77q1 -10 2 -30.5t3 -49.5q2 -58 3 -129.5t1 -157.5v-129q0 -9 -10 -14q-6 -4 -32 -7q-39 0 -38 21l7 255q1 33 1.5 72t0.5 85v77q0 24 -44 39q-34 13 -63 13q-25 1 -71 -17q-53 -19 -51 -39q1 -8 2 -21t2 -34q2 -38 2.5 -86t1.5 -107
l1 -84q0 -4 -11 -10q-5 -1 -35 -2q-15 -1 -29 2q-11 4 -11 12l8 360q2 13 -16 21q-7 4 -14 5.5t-15 2.5q-9 0 -35 -16q0 4 -3 17q24 42 51 45q10 0 37 -15q25 -15 44 -13q13 1 29 5l38 10q44 13 72 13zM291 577q-25 -6 -35 -15q-5 -5 -6 -17q-3 -17 11 -22q7 -3 14 -11
q10 -12 27 -15q0 -7 -6 -16q-3 -7 -22 -10q-4 0 -16 7l-16 4q-10 6 -17 16q-6 5 -15 26q-1 5 -1 11t-1 11q0 34 8 53q3 4 23 17q12 9 26 9q24 0 35 -14q6 -4 12 -18q0 -8 -21 -16zM432 675q-10 -26 -39 -44q-29 -19 -56 -19q-19 0 -69 30q-7 3 -16.5 6t-22.5 8q-10 6 -20 6
q-54 0 -77 -48l-19 33q24 63 97 66q19 0 64 -26q48 -30 63 -31q24 0 45.5 14.5t30.5 36.5z" />
    <glyph glyph-name="uni1F28" unicode="&#x397;&#x313;" horiz-adv-x="858" 
d="M307 682v-299h399v299h92v-682h-92v312h-399v-312h-92v682h92zM0 622q3 40 48 40q30 0 47 -36q8 -17 8 -42v-13t-1 -19q-2 -11 -6 -22t-9 -21q-5 -11 -17 -16l-16 -6q-13 -6 -17 -6q-19 3 -22 9q-5 12 -5 18q5 -2 27 14q11 10 18 18t12 15q6 8 -17 29q-2 3 -31 16
q-19 6 -19 22z" />
    <glyph glyph-name="uni1F29" unicode="&#x397;&#x314;" horiz-adv-x="818" 
d="M266 682v-299h399v299h93v-682h-93v312h-399v-312h-92v682h92zM86 625q-24 -8 -31 -16q-23 -21 -16 -29q5 -7 12.5 -15l16.5 -18q11 -11 27 -14q0 -7 -5 -18q-5 -6 -23 -8q-4 0 -16 5l-16 6q-11 5 -17 16q-10 20 -15 43q-1 5 -1 13t-1 19q-1 50 31 69q13 9 26 9
q42 0 47 -40q0 -17 -19 -22z" />
    <glyph glyph-name="uni1F2A" unicode="&#x397;&#x313;&#x300;" horiz-adv-x="994" 
d="M442 681v-299h400v299h92v-682h-92v312h-400v-312h-92v682h92zM0 647q4 40 48 40q30 0 47 -35q9 -17 9 -43v-13t-1 -19q-2 -11 -6.5 -22l-8.5 -21q-6 -11 -17 -16l-16 -6q-14 -5 -17 -5q-19 2 -23 8q-5 12 -5 18q6 -2 28 14l17 19l12 14q7 8 -16 29q-3 3 -31 16
q-20 7 -20 22zM160 636q-5 9 -4 17q3 36 49 36q26 -1 31 -21l49 -172l-25 -7z" />
    <glyph glyph-name="uni1F2B" unicode="&#x397;&#x314;&#x300;" horiz-adv-x="1008" 
d="M457 685v-300h399v300h92v-683h-92v312h-399v-312h-93v683h93zM162 636q-4 9 -3 17q3 36 49 36q25 -1 31 -21l49 -172l-25 -7zM86 625q-22 -8 -32 -16q-22 -21 -16 -28.5l13 -15.5l16 -18q11 -11 28 -14q0 -7 -5 -18q-4 -6 -24 -8q-3 0 -15 5l-16 6q-12 5 -17 16
q-12 23 -16 43q-1 5 -1 13t-1 19q0 50 32 69q13 9 25 9q43 0 48 -40q0 -17 -19 -22z" />
    <glyph glyph-name="uni1F2C" unicode="&#x397;&#x313;&#x301;" horiz-adv-x="1004" 
d="M452 682v-299h400v299h92v-682h-92v312h-400v-312h-92v682h92zM0 647q3 40 48 40q30 0 47 -35q8 -17 8 -43v-13t-1 -19q-2 -11 -6 -22t-9 -21q-5 -11 -16 -16l-17 -6q-13 -5 -17 -5q-19 2 -22 8q-5 12 -5 18q6 -2 27 14q11 11 18 19l12 14q6 8 -16 29q-3 3 -32 16
q-19 7 -19 22zM196 668q5 20 30 21q46 0 49 -36q1 -10 -3 -17l-101 -147l-25 7z" />
    <glyph glyph-name="uni1F2D" unicode="&#x397;&#x314;&#x301;" horiz-adv-x="1006" 
d="M455 682v-299h399v299h92v-682h-92v312h-399v-312h-93v682h93zM205 668q6 20 31 21q46 0 48 -36q1 -10 -3 -17l-101 -147l-24 7zM86 625q-22 -8 -32 -16q-22 -21 -16 -28.5l13 -15.5l16 -18q12 -11 29 -14q0 -7 -6 -18q-4 -6 -23 -8q-4 0 -17 5l-15 6q-12 5 -17 16
q-12 23 -16 43q-1 5 -1 13t-1 19q0 50 32 69q13 9 25 9q43 0 48 -40q0 -17 -19 -22z" />
    <glyph glyph-name="uni1F2E" unicode="&#x397;&#x313;&#x342;" horiz-adv-x="1004" 
d="M453 682v-299h399v299h92v-682h-92v312h-399v-312h-93v682h93zM89 591q4 30 48 30q18 0 25 -7q6 -2 23 -17q8 -19 8 -53q-1 -3 -1 -9q0 -5 -1 -13q-2 -4 -6 -10t-9 -16t-17 -16l-16 -4q-12 -7 -16 -7q-19 3 -23 10q-5 9 -5 16q5 -1 27 15q10 4 24 17q2 3 1 16q0 11 -6 17
q-9 9 -35 15q-21 8 -21 16zM319 673q-9 -26 -37 -44q-31 -19 -57 -19q-19 0 -69 30q-7 3 -16.5 6t-21.5 8q-11 6 -21 6q-54 0 -77 -48l-20 33q25 63 98 66q20 0 64 -26q48 -30 63 -31q24 0 45.5 14.5t30.5 36.5z" />
    <glyph glyph-name="uni1F2F" unicode="&#x397;&#x314;&#x342;" horiz-adv-x="1007" 
d="M455 682v-299h399v299h93v-682h-93v312h-399v-312h-92v682h92zM178 575q-25 -6 -35 -15q-5 -5 -6 -17q-3 -17 11 -22q7 -3 14 -11q10 -12 27 -15q0 -7 -6 -16q-3 -7 -22 -10q-4 0 -16 7l-16 4q-10 6 -17 16q-6 5 -15 26q-1 5 -1 11t-1 11q0 34 8 53q3 4 23 17q12 9 26 9
q24 0 35 -14q6 -4 12 -18q0 -8 -21 -16zM319 673q-10 -26 -39 -44q-29 -19 -56 -19q-19 0 -69 30q-7 3 -16.5 6t-22.5 8q-10 6 -20 6q-54 0 -77 -48l-19 33q24 63 97 66q19 0 64 -26q48 -30 63 -31q24 0 45.5 14.5t30.5 36.5z" />
    <glyph glyph-name="uni1F30" unicode="&#x3b9;&#x313;" horiz-adv-x="246" 
d="M156 92q6 -20 29 -35l12.5 -10t13.5 -12q0 -22 -33 -35q-24 -7 -49 -7q-36 -2 -45 73q-2 18 -3 44.5t-1 61.5v50q0 -3 0 9q0 13 1 41q0 28 -1 49t-3 37q-4 10 -8 24.5l-9 33.5q0 10 15 16q2 0 23 5q14 3 21 3q11 0 19 -8l5.5 -9t4.5 -9q3 -4 5 -50q1 -13 1 -31v-41v-161
q0 -29 2 -39zM53 647q3 40 47 40q31 0 48 -35q8 -17 8 -43v-13t-1 -19q-2 -11 -6 -22t-9 -21q-5 -11 -17 -16l-16 -6q-13 -5 -17 -5q-19 2 -22 8q-5 12 -5 18q5 -2 27 14l17.5 19t11.5 14q7 8 -16 29q-3 3 -31 16q-19 7 -19 22z" />
    <glyph glyph-name="uni1F31" unicode="&#x3b9;&#x314;" horiz-adv-x="248" 
d="M158 92q6 -20 29 -35l12.5 -10t13.5 -12q0 -22 -33 -35q-24 -7 -49 -7q-36 -2 -45 73q-2 18 -3 44.5t-1 61.5v50q0 -3 0 9q0 13 1 41q0 28 -1 49t-3 37q-4 10 -8 24.5l-9 33.5q0 10 15 16q2 0 23 5q14 3 21 3q11 0 19 -8l5.5 -9t4.5 -9q3 -4 5 -50q1 -13 1 -31v-41v-161
q0 -29 2 -39zM139 625q-24 -8 -31 -16q-23 -21 -16 -29q5 -7 12.5 -15l16.5 -18q11 -11 27 -14q0 -7 -5 -18q-5 -6 -23 -8q-4 0 -16 5l-16 6q-11 5 -17 16q-11 20 -15 43q-1 5 -1 13t-1 19q-1 50 31 69q13 9 26 9q42 0 47 -40q0 -17 -19 -22z" />
    <glyph glyph-name="uni1F32" unicode="&#x3b9;&#x313;&#x300;" horiz-adv-x="260" 
d="M160 92q6 -20 29 -35l12.5 -10t13.5 -12q0 -22 -33 -35q-24 -7 -49 -7q-36 -2 -45 73q-2 18 -3 44.5t-1 61.5v50q0 -3 0 9q0 13 1 41q0 28 -1 49t-3 37q-4 10 -8 24.5l-9 33.5q0 10 15 16q2 0 23 5q14 3 21 3q11 0 19 -8l5.5 -9t4.5 -9q3 -4 5 -50q1 -13 1 -31v-41v-161
q0 -29 2 -39zM-12 647q3 40 48 40q30 0 47 -35q9 -17 9 -43v-13t-1 -19q-2 -11 -6.5 -22t-9.5 -21q-5 -11 -17 -16l-16 -6q-13 -5 -17 -5q-18 2 -22 8q-5 12 -5 18q6 -2 27 14q11 11 18 19t11 14q7 8 -16 29q-2 3 -30 16q-20 7 -20 22zM147 636q-5 9 -4 17q3 36 49 36
q26 -1 31 -21l49 -172l-24 -7z" />
    <glyph glyph-name="uni1F33" unicode="&#x3b9;&#x314;&#x300;" horiz-adv-x="267" 
d="M160 92q6 -20 29 -35l12.5 -10t13.5 -12q0 -22 -33 -35q-24 -7 -49 -7q-36 -2 -45 73q-2 18 -3 44.5t-1 61.5v50q0 -3 0 9q0 13 1 41q0 28 -1 49t-3 37q-4 10 -8 24.5l-9 33.5q0 10 15 16q2 0 23 5q14 3 21 3q11 0 19 -8l5.5 -9t4.5 -9q3 -4 5 -50q1 -13 1 -31v-41v-161
q0 -29 2 -39zM153 636q-4 9 -3 17q3 36 49 36q25 -1 31 -21l49 -172l-25 -7zM77 625q-22 -8 -32 -16q-22 -21 -16 -28.5l13 -15.5l16 -18q11 -11 28 -14q0 -7 -5 -18q-4 -6 -24 -8q-3 0 -15 5l-16 6q-12 5 -17 16q-12 23 -16 43q-1 5 -1 13t-1 19q0 50 32 69q13 9 25 9
q43 0 48 -40q0 -17 -19 -22z" />
    <glyph glyph-name="uni1F34" unicode="&#x3b9;&#x313;&#x301;" horiz-adv-x="271" 
d="M160 92q6 -20 29 -35l12.5 -10t13.5 -12q0 -22 -33 -35q-24 -7 -49 -7q-36 -2 -45 73q-2 18 -3 44.5t-1 61.5v50q0 -3 0 9q0 13 1 41q0 28 -1 49t-3 37q-4 10 -8 24.5l-9 33.5q0 10 15 16q2 0 23 5q14 3 21 3q11 0 19 -8l5.5 -9t4.5 -9q3 -4 5 -50q1 -13 1 -31v-41v-161
q0 -29 2 -39zM-3 647q4 40 48 40q30 0 47 -35q9 -17 9 -43v-13t-1 -19q-2 -11 -6 -22t-9 -21q-6 -11 -17 -16l-16 -6q-13 -5 -17 -5q-19 2 -23 8q-5 12 -5 18q6 -2 28 14l17 19l12 14q6 8 -16 29q-3 3 -31 16q-20 7 -20 22zM194 668q5 20 29 21q47 0 50 -36q1 -10 -3 -17
l-101 -147l-26 7z" />
    <glyph glyph-name="uni1F35" unicode="&#x3b9;&#x314;&#x301;" horiz-adv-x="283" 
d="M160 92q6 -20 29 -35l12.5 -10t13.5 -12q0 -22 -33 -35q-24 -7 -49 -7q-36 -2 -45 73q-2 18 -3 44.5t-1 61.5v50q0 -3 0 9q0 13 1 41q0 28 -1 49t-3 37q-4 10 -8 24.5l-9 33.5q0 10 15 16q2 0 23 5q14 3 21 3q11 0 19 -8l5.5 -9t4.5 -9q3 -4 5 -50q1 -13 1 -31v-41v-161
q0 -29 2 -39zM218 668q5 20 31 21q46 0 48 -36q1 -10 -3 -17l-101 -147l-24 7zM99 625q-23 -8 -32 -16q-22 -21 -16.5 -28.5t12.5 -15.5t17 -18q11 -11 29 -14q0 -7 -6 -18q-4 -6 -24 -8q-4 0 -16 5l-15 6q-12 5 -17 16q-12 23 -16 43q-1 5 -1 13t-1 19q0 50 32 69
q12 9 24 9q44 0 49 -40q0 -17 -19 -22z" />
    <glyph glyph-name="uni1F36" unicode="&#x3b9;&#x313;&#x342;" horiz-adv-x="294" 
d="M162 92q6 -20 29 -35l12.5 -10t13.5 -12q0 -22 -33 -35q-24 -7 -49 -7q-36 -2 -45 73q-2 18 -3 44.5t-1 61.5v50q0 -3 0 9q0 13 1 41q0 28 -1 49t-3 37q-4 10 -8 24.5l-9 33.5q0 10 15 16q2 0 23 5q14 3 21 3q11 0 19 -8l5.5 -9t4.5 -9q3 -4 5 -50q1 -13 1 -31v-41v-161
q0 -29 2 -39zM76 591q4 30 48 30q18 0 25 -7q7 -2 23 -17q8 -19 8 -53v-9q0 -5 -1 -13q-2 -4 -6.5 -10t-9.5 -16q-4 -10 -17 -16l-16 -4q-12 -7 -16 -7q-18 3 -22 10q-6 9 -6 16q6 -1 27 15q10 4 24 17q2 3 1 16q0 11 -6 17q-9 9 -35 15q-21 8 -21 16zM306 673
q-9 -26 -37 -44q-30 -19 -57 -19q-19 0 -69 30q-7 3 -16.5 6t-21.5 8q-10 6 -21 6q-54 0 -76 -48l-20 33q25 63 97 66q20 0 64 -26q48 -30 63 -31q24 0 45.5 14.5t30.5 36.5z" />
    <glyph glyph-name="uni1F37" unicode="&#x3b9;&#x314;&#x342;" horiz-adv-x="295" 
d="M178 92q6 -20 29 -35l12.5 -10t13.5 -12q0 -22 -33 -35q-24 -7 -49 -7q-36 -2 -45 73q-2 18 -3 44.5t-1 61.5v50q0 -3 0 9q0 13 1 41q0 28 -1 49t-3 37q-4 10 -8 24.5l-9 33.5q0 10 15 16q2 0 23 5q14 3 21 3q11 0 19 -8l5.5 -9t4.5 -9q3 -4 5 -50q1 -13 1 -31v-41v-161
q0 -29 2 -39zM166 575q-25 -6 -35 -15q-5 -5 -6 -17q-3 -17 11 -22q7 -3 14 -11q10 -12 27 -15q0 -7 -6 -16q-3 -7 -22 -10q-4 0 -16 7l-16 4q-10 6 -17 16q-6 5 -15 26q-1 5 -1 11t-1 11q0 34 8 53q3 4 23 17q12 9 26 9q24 0 35 -14q6 -4 12 -18q0 -8 -21 -16zM307 673
q-10 -26 -39 -44q-29 -19 -56 -19q-19 0 -69 30q-7 3 -16.5 6t-22.5 8q-10 6 -20 6q-54 0 -77 -48l-19 33q24 63 97 66q19 0 64 -26q48 -30 63 -31q24 0 45.5 14.5t30.5 36.5z" />
    <glyph glyph-name="uni1F38" unicode="&#x399;&#x313;" horiz-adv-x="355" 
d="M177 0v688h83v-688h-83zM0 642q3 40 47 40q31 0 48 -35q8 -17 8 -43v-13t-1 -19q-2 -11 -6 -22t-9 -21q-5 -11 -17 -16l-16 -6q-13 -5 -17 -5q-19 2 -22 8q-5 12 -5 18q5 -2 27 14l17.5 19t11.5 14q7 8 -16 29q-3 3 -31 16q-19 7 -19 22z" />
    <glyph glyph-name="uni1F39" unicode="&#x399;&#x314;" horiz-adv-x="368" 
d="M190 0v688h83v-688h-83zM86 622q-24 -8 -31 -16q-23 -21 -16 -29q5 -7 12.5 -15l16.5 -18q11 -11 27 -14q0 -7 -5 -18q-5 -6 -23 -8q-4 0 -16 5l-16 6q-11 5 -17 16q-11 20 -15 43q-1 5 -1 13t-1 19q-1 50 31 69q13 9 26 9q42 0 47 -40q0 -17 -19 -22z" />
    <glyph glyph-name="uni1F3A" unicode="&#x399;&#x313;&#x300;" horiz-adv-x="524" 
d="M346 0v688h83v-688h-83zM0 647q3 40 48 40q30 0 47 -35q9 -17 9 -43v-13t-1 -19q-2 -11 -6.5 -22t-9.5 -21q-5 -11 -17 -16l-16 -6q-13 -5 -17 -5q-18 2 -22 8q-5 12 -5 18q6 -2 27 14q11 11 18 19t11 14q7 8 -16 29q-2 3 -30 16q-20 7 -20 22zM159 636q-5 9 -4 17
q3 36 49 36q26 -1 31 -21l49 -172l-24 -7z" />
    <glyph glyph-name="uni1F3B" unicode="&#x399;&#x314;&#x300;" horiz-adv-x="536" 
d="M358 0v688h83v-688h-83zM162 636q-4 9 -3 17q3 36 49 36q25 -1 31 -21l49 -172l-25 -7zM86 625q-22 -8 -32 -16q-22 -21 -16 -28.5l13 -15.5l16 -18q11 -11 28 -14q0 -7 -5 -18q-4 -6 -24 -8q-3 0 -15 5l-16 6q-12 5 -17 16q-12 23 -16 43q-1 5 -1 13t-1 19q0 50 32 69
q13 9 25 9q43 0 48 -40q0 -17 -19 -22z" />
    <glyph glyph-name="uni1F3C" unicode="&#x399;&#x313;&#x301;" horiz-adv-x="568" 
d="M390 0v688h83v-688h-83zM0 647q4 40 48 40q30 0 47 -35q9 -17 9 -43v-13t-1 -19q-2 -11 -6 -22t-9 -21q-6 -11 -17 -16l-16 -6q-13 -5 -17 -5q-19 2 -23 8q-5 12 -5 18q6 -2 28 14l17 19l12 14q6 8 -16 29q-3 3 -31 16q-20 7 -20 22zM197 668q5 20 29 21q47 0 50 -36
q1 -10 -3 -17l-101 -147l-26 7z" />
    <glyph glyph-name="uni1F3D" unicode="&#x399;&#x314;&#x301;" horiz-adv-x="584" 
d="M406 0v688h83v-688h-83zM205 668q5 20 31 21q46 0 48 -36q1 -10 -3 -17l-101 -147l-24 7zM86 625q-23 -8 -32 -16q-22 -21 -16.5 -28.5t12.5 -15.5t17 -18q11 -11 29 -14q0 -7 -6 -18q-4 -6 -24 -8q-4 0 -16 5l-15 6q-12 5 -17 16q-12 23 -16 43q-1 5 -1 13t-1 19
q0 50 32 69q12 9 24 9q44 0 49 -40q0 -17 -19 -22z" />
    <glyph glyph-name="uni1F3E" unicode="&#x399;&#x313;&#x342;" horiz-adv-x="519" 
d="M341 0v688h83v-688h-83zM89 591q4 30 47 30q19 0 25 -7q7 -2 23 -17q8 -19 8 -53v-9q0 -5 -1 -13q-2 -4 -6.5 -10t-8.5 -16q-5 -10 -18 -16l-16 -4q-12 -7 -16 -7q-18 3 -22 10q-6 9 -6 16q6 -1 27 15q10 4 24 17q3 3 2 16q-1 11 -7 17q-9 9 -35 15q-20 8 -20 16z
M319 673q-10 -26 -38 -44q-30 -19 -57 -19q-18 0 -68 30q-8 3 -17.5 6t-21.5 8q-10 6 -21 6q-54 0 -76 -48l-20 33q25 63 97 66q20 0 64 -26q48 -30 63 -31q24 0 45.5 14.5t30.5 36.5z" />
    <glyph glyph-name="uni1F3F" unicode="&#x399;&#x314;&#x342;" horiz-adv-x="524" 
d="M346 0v688h83v-688h-83zM178 575q-25 -6 -35 -15q-5 -5 -6 -17q-3 -17 11 -22q7 -3 14 -11q10 -12 27 -15q0 -7 -6 -16q-3 -7 -22 -10q-4 0 -16 7l-16 4q-10 6 -17 16q-6 5 -15 26q-1 5 -1 11t-1 11q0 34 8 53q3 4 23 17q12 9 26 9q24 0 35 -14q6 -4 12 -18q0 -8 -21 -16
zM319 673q-10 -26 -39 -44q-29 -19 -56 -19q-19 0 -69 30q-7 3 -16.5 6t-22.5 8q-10 6 -20 6q-54 0 -77 -48l-19 33q24 63 97 66q19 0 64 -26q48 -30 63 -31q24 0 45.5 14.5t30.5 36.5z" />
    <glyph glyph-name="uni1F40" unicode="&#x3bf;&#x313;" horiz-adv-x="534" 
d="M105 221q-1 -64 53 -115q50 -47 116 -47t115 48q49 50 51 116q1 62 -51 112q-53 49 -117 51q-64 1 -115 -50q-50 -49 -52 -115zM271 441q95 2 166 -59q72 -63 74 -157q0 -96 -69 -161q-67 -65 -163 -65t-166 59q-73 62 -73 158q-1 95 67 159q67 64 164 66zM221 647
q4 40 48 40q30 0 47 -35q9 -17 9 -43v-13t-1 -19q-2 -11 -6.5 -22l-8.5 -21q-6 -11 -17 -16l-17 -6q-13 -5 -17 -5q-18 2 -22 8q-5 12 -5 18q6 -2 27 14q11 11 18 19l12 14q6 8 -17 29q-2 3 -30 16q-20 7 -20 22z" />
    <glyph glyph-name="uni1F41" unicode="&#x3bf;&#x314;" horiz-adv-x="534" 
d="M105 221q-1 -64 53 -115q50 -47 116 -47t115 48q49 50 51 116q1 62 -51 112q-53 49 -117 51q-64 1 -115 -50q-50 -49 -52 -115zM271 441q95 2 166 -59q72 -63 74 -157q0 -96 -69 -161q-67 -65 -163 -65t-166 59q-73 62 -73 158q-1 95 67 159q67 64 164 66zM285 625
q-24 -8 -31 -16q-23 -21 -16 -29q5 -7 12.5 -15l16.5 -18q11 -11 27 -14q0 -7 -5 -18q-5 -6 -23 -8q-4 0 -16 5l-16 6q-11 5 -17 16q-11 20 -15 43q-1 5 -1 13t-1 19q-1 50 31 69q13 9 26 9q42 0 47 -40q0 -17 -19 -22z" />
    <glyph glyph-name="uni1F42" unicode="&#x3bf;&#x313;&#x300;" horiz-adv-x="534" 
d="M105 221q-1 -64 53 -115q50 -47 116 -47t115 48q49 50 51 116q1 62 -51 112q-53 49 -117 51q-64 1 -115 -50q-50 -49 -52 -115zM271 441q95 2 166 -59q72 -63 74 -157q0 -96 -69 -161q-67 -65 -163 -65t-166 59q-73 62 -73 158q-1 95 67 159q67 64 164 66zM105 647
q3 40 48 40q30 0 47 -35q9 -17 9 -43v-13t-1 -19q-2 -11 -6.5 -22t-9.5 -21q-5 -11 -17 -16l-16 -6q-13 -5 -17 -5q-18 2 -22 8q-5 12 -5 18q6 -2 27 14q11 11 18 19t11 14q7 8 -16 29q-2 3 -30 16q-20 7 -20 22zM264 636q-5 9 -4 17q3 36 49 36q26 -1 31 -21l49 -172
l-24 -7z" />
    <glyph glyph-name="uni1F43" unicode="&#x3bf;&#x314;&#x300;" horiz-adv-x="534" 
d="M105 221q-1 -64 53 -115q50 -47 116 -47t115 48q49 50 51 116q1 62 -51 112q-53 49 -117 51q-64 1 -115 -50q-50 -49 -52 -115zM271 441q95 2 166 -59q72 -63 74 -157q0 -96 -69 -161q-67 -65 -163 -65t-166 59q-73 62 -73 158q-1 95 67 159q67 64 164 66zM288 636
q-4 9 -3 17q3 36 49 36q25 -1 31 -21l49 -172l-25 -7zM212 625q-22 -8 -32 -16q-22 -21 -16 -28.5l13 -15.5l16 -18q11 -11 28 -14q0 -7 -5 -18q-4 -6 -24 -8q-3 0 -15 5l-16 6q-12 5 -17 16q-12 23 -16 43q-1 5 -1 13t-1 19q0 50 32 69q13 9 25 9q43 0 48 -40
q0 -17 -19 -22z" />
    <glyph glyph-name="uni1F44" unicode="&#x3bf;&#x313;&#x301;" horiz-adv-x="534" 
d="M105 221q-1 -64 53 -115q50 -47 116 -47t115 48q49 50 51 116q1 62 -51 112q-53 49 -117 51q-64 1 -115 -50q-50 -49 -52 -115zM271 441q95 2 166 -59q72 -63 74 -157q0 -96 -69 -161q-67 -65 -163 -65t-166 59q-73 62 -73 158q-1 95 67 159q67 64 164 66zM142 647
q4 40 48 40q30 0 47 -35q9 -17 9 -43v-13t-1 -19q-2 -11 -6 -22t-9 -21q-6 -11 -17 -16l-16 -6q-13 -5 -17 -5q-19 2 -23 8q-5 12 -5 18q6 -2 28 14l17 19l12 14q6 8 -16 29q-3 3 -31 16q-20 7 -20 22zM339 668q5 20 29 21q47 0 50 -36q1 -10 -3 -17l-101 -147l-26 7z" />
    <glyph glyph-name="uni1F45" unicode="&#x3bf;&#x314;&#x301;" horiz-adv-x="534" 
d="M105 221q-1 -64 53 -115q50 -47 116 -47t115 48q49 50 51 116q1 62 -51 112q-53 49 -117 51q-64 1 -115 -50q-50 -49 -52 -115zM271 441q95 2 166 -59q72 -63 74 -157q0 -96 -69 -161q-67 -65 -163 -65t-166 59q-73 62 -73 158q-1 95 67 159q67 64 164 66zM346 668
q5 20 31 21q46 0 48 -36q1 -10 -3 -17l-101 -147l-24 7zM227 625q-23 -8 -32 -16q-22 -21 -16.5 -28.5t12.5 -15.5t17 -18q11 -11 29 -14q0 -7 -6 -18q-4 -6 -24 -8q-4 0 -16 5l-15 6q-12 5 -17 16q-12 23 -16 43q-1 5 -1 13t-1 19q0 50 32 69q12 9 24 9q44 0 49 -40
q0 -17 -19 -22z" />
    <glyph glyph-name="uni1F48" unicode="&#x39f;&#x313;" horiz-adv-x="857" 
d="M207 338q-2 -127 64 -196.5t193 -70.5q127 -2 194 70q63 67 65 196q0 138 -58 208q-64 74 -201 76q-136 1 -199 -75q-56 -67 -58 -208zM463 693q151 1 251 -102q99 -100 99 -252q0 -140 -105 -240q-102 -99 -244 -101q-147 -1 -247 96q-98 97 -100 244q-1 154 95 254
q97 100 251 101zM0 647q3 40 48 40q30 0 47 -35q8 -17 8 -43v-13t-1 -19q-2 -11 -6 -22t-9 -21q-5 -11 -16 -16l-16 -6q-14 -5 -18 -5q-19 2 -22 8q-5 12 -5 18q6 -2 27 14q11 11 18 19l12 14q6 8 -16 29q-3 3 -32 16q-19 7 -19 22z" />
    <glyph glyph-name="uni1F49" unicode="&#x39f;&#x314;" horiz-adv-x="880" 
d="M231 338q-2 -127 64 -196.5t192 -70.5q128 -2 195 70q62 67 64 196q1 138 -57 208q-64 74 -202 76q-135 1 -199 -75q-56 -67 -57 -208zM486 693q151 1 251 -102q99 -100 99 -252q0 -140 -104 -240q-102 -99 -245 -101q-147 -1 -247 96q-98 97 -100 244q-1 154 95 254
q98 100 251 101zM86 625q-24 -8 -32 -16q-22 -21 -16 -29q5 -7 12.5 -15l16.5 -18q12 -11 28 -14q0 -7 -6 -18q-4 -6 -23 -8q-3 0 -16 5l-16 6q-11 5 -16 16q-11 20 -15 43q-1 5 -1 13t-1 19q-1 50 31 69q12 9 25 9q43 0 47 -40q0 -17 -18 -22z" />
    <glyph glyph-name="uni1F4A" unicode="&#x39f;&#x313;&#x300;" horiz-adv-x="1083" 
d="M433 338q-1 -127 64.5 -196.5t192.5 -70.5q127 -2 194 70q63 67 65 196q0 138 -58 208q-64 74 -201 76q-136 1 -199 -75q-56 -67 -58 -208zM689 693q151 1 251 -102q99 -100 99 -252q0 -140 -105 -240q-102 -99 -244 -101q-147 -1 -247 96q-98 97 -100 244q-1 154 95 254
q97 100 251 101zM0 647q4 40 48 40q30 0 47 -35q9 -17 9 -43v-13t-1 -19q-2 -11 -6.5 -22l-8.5 -21q-6 -11 -17 -16l-16 -6q-14 -5 -18 -5q-18 2 -22 8q-5 12 -5 18q6 -2 27 14q11 11 18 19l12 14q7 8 -16 29q-3 3 -31 16q-20 7 -20 22zM160 636q-5 9 -4 17q3 36 48 36
q27 -1 32 -21l49 -172l-25 -7z" />
    <glyph glyph-name="uni1F4B" unicode="&#x39f;&#x314;&#x300;" horiz-adv-x="1079" 
d="M429 338q-2 -127 64 -196.5t193 -70.5q127 -2 194 70q62 67 64 196q1 138 -57 208q-64 74 -201 76q-136 1 -200 -75q-55 -67 -57 -208zM685 693q150 1 251 -102q99 -100 99 -252q0 -140 -105 -240q-102 -99 -244 -101q-147 -1 -248 96q-98 97 -100 244q-1 154 96 254
t251 101zM162 636q-4 9 -3 17q3 36 49 36q25 -1 31 -21l49 -172l-25 -7zM86 625q-23 -8 -32 -16q-22 -21 -16.5 -28.5t13 -15.5l16.5 -18q11 -11 28 -14q0 -7 -5 -18q-4 -6 -24 -8q-3 0 -16 5l-15 6q-13 5 -17 16q-12 23 -16 43q-1 5 -1 13t-1 19q0 50 32 69q12 9 25 9
q43 0 48 -40q0 -17 -19 -22z" />
    <glyph glyph-name="uni1F4C" unicode="&#x39f;&#x313;&#x301;" horiz-adv-x="1032" 
d="M382 338q-2 -127 64 -196.5t193 -70.5q127 -2 194 70q62 67 64 196q1 138 -57 208q-64 74 -201 76q-136 1 -200 -75q-55 -67 -57 -208zM638 693q151 1 251 -102q99 -100 99 -252q0 -140 -105 -240q-102 -99 -244 -101q-147 -1 -247 96q-99 97 -101 244q0 154 96 254
q97 100 251 101zM0 647q4 40 48 40q31 0 48 -35q8 -17 8 -43v-13t-1 -19q-2 -11 -6 -22t-9 -21q-5 -11 -17 -16l-16 -6q-13 -5 -17 -5q-19 2 -22 8q-5 12 -5 18q6 -2 27 14l17 19l12 14q7 8 -16 29q-3 3 -31 16q-20 7 -20 22zM197 668q5 20 30 21q46 0 49 -36q1 -10 -3 -17
l-101 -147l-26 7z" />
    <glyph glyph-name="uni1F4D" unicode="&#x39f;&#x314;&#x301;" horiz-adv-x="1035" 
d="M386 338q-2 -127 64 -196.5t192 -70.5q127 -2 194 70q63 67 65 196q0 138 -58 208q-63 74 -201 76q-136 1 -199 -75q-56 -67 -57 -208zM641 693q151 1 251 -102q99 -100 99 -252q0 -140 -104 -240q-102 -99 -245 -101q-147 -1 -247 96q-98 97 -100 244q-1 154 95 254
q97 100 251 101zM206 668q5 20 30 21q47 0 49 -36q1 -10 -3 -17l-101 -147l-25 7zM86 625q-22 -8 -31 -16q-22 -21 -16.5 -28.5t12.5 -15.5t17 -18q11 -11 28 -14q0 -7 -6 -18q-4 -6 -23 -8q-4 0 -16 5l-15 6q-13 5 -17 16q-13 23 -17 43q-1 5 -1 13t-1 19q0 50 33 69
q12 9 24 9q44 0 48 -40q0 -17 -19 -22z" />
    <glyph glyph-name="uni1F50" unicode="&#x3c5;&#x313;" horiz-adv-x="493" 
d="M198 3q-61 0 -93 64q-17 37 -29 118l-16 125q-5 38 -21 51q-20 18 -21 23q-1 3 -1 8q0 13 11 27q15 18 48 18q20 0 42 -22q7 -7 17 -126q5 -68 8 -105t5 -44q10 -62 36 -72q23 -9 41 -10q3 -1 8 -1q7 0 16 -1q55 -3 79 31q18 22 26 86q6 38 9 126q1 32 3 53t4 31
q11 53 51 55q23 0 40.5 -13t18.5 -35q1 -15 -22 -27q-12 -7 -17 -21q-6 -23 -19 -146q-5 -43 -11.5 -74.5t-15.5 -50.5q-31 -68 -97 -68h-100zM203 647q3 40 47 40q31 0 48 -35q8 -17 8 -43v-13t-1 -19q-2 -11 -6 -22t-9 -21q-5 -11 -17 -16l-16 -6q-13 -5 -17 -5
q-19 2 -22 8q-5 12 -5 18q5 -2 27 14l17.5 19t11.5 14q7 8 -16 29q-3 3 -31 16q-19 7 -19 22z" />
    <glyph glyph-name="uni1F51" unicode="&#x3c5;&#x314;" horiz-adv-x="493" 
d="M198 3q-61 0 -93 64q-17 37 -29 118l-16 125q-5 38 -21 51q-20 18 -21 23q-1 3 -1 8q0 13 11 27q15 18 48 18q20 0 42 -22q7 -7 17 -126q5 -68 8 -105t5 -44q10 -62 36 -72q23 -9 41 -10q3 -1 8 -1q7 0 16 -1q55 -3 79 31q18 22 26 86q6 38 9 126q1 32 3 53t4 31
q11 53 51 55q23 0 40.5 -13t18.5 -35q1 -15 -22 -27q-12 -7 -17 -21q-6 -23 -19 -146q-5 -43 -11.5 -74.5t-15.5 -50.5q-31 -68 -97 -68h-100zM269 625q-24 -8 -31 -16q-23 -21 -16 -29q5 -7 12.5 -15l16.5 -18q11 -11 27 -14q0 -7 -5 -18q-5 -6 -23 -8q-4 0 -16 5l-16 6
q-11 5 -17 16q-11 20 -15 43q-1 5 -1 13t-1 19q-1 50 31 69q13 9 26 9q42 0 47 -40q0 -17 -19 -22z" />
    <glyph glyph-name="uni1F52" unicode="&#x3c5;&#x313;&#x300;" horiz-adv-x="493" 
d="M198 3q-61 0 -93 64q-17 37 -29 118l-16 125q-5 38 -21 51q-20 18 -21 23q-1 3 -1 8q0 13 11 27q15 18 48 18q20 0 42 -22q7 -7 17 -126q5 -68 8 -105t5 -44q10 -62 36 -72q23 -9 41 -10q3 -1 8 -1q7 0 16 -1q55 -3 79 31q18 22 26 86q6 38 9 126q1 32 3 53t4 31
q11 53 51 55q23 0 40.5 -13t18.5 -35q1 -15 -22 -27q-12 -7 -17 -21q-6 -23 -19 -146q-5 -43 -11.5 -74.5t-15.5 -50.5q-31 -68 -97 -68h-100zM101 647q3 40 48 40q30 0 47 -35q9 -17 9 -43v-13t-1 -19q-2 -11 -6.5 -22t-9.5 -21q-5 -11 -17 -16l-16 -6q-13 -5 -17 -5
q-18 2 -22 8q-5 12 -5 18q6 -2 27 14q11 11 18 19t11 14q7 8 -16 29q-2 3 -30 16q-20 7 -20 22zM260 636q-5 9 -4 17q3 36 49 36q26 -1 31 -21l49 -172l-24 -7z" />
    <glyph glyph-name="uni1F53" unicode="&#x3c5;&#x314;&#x300;" horiz-adv-x="493" 
d="M198 3q-61 0 -93 64q-17 37 -29 118l-16 125q-5 38 -21 51q-20 18 -21 23q-1 3 -1 8q0 13 11 27q15 18 48 18q20 0 42 -22q7 -7 17 -126q5 -68 8 -105t5 -44q10 -62 36 -72q23 -9 41 -10q3 -1 8 -1q7 0 16 -1q55 -3 79 31q18 22 26 86q6 38 9 126q1 32 3 53t4 31
q11 53 51 55q23 0 40.5 -13t18.5 -35q1 -15 -22 -27q-12 -7 -17 -21q-6 -23 -19 -146q-5 -43 -11.5 -74.5t-15.5 -50.5q-31 -68 -97 -68h-100zM270 636q-4 9 -3 17q3 36 49 36q25 -1 31 -21l49 -172l-25 -7zM194 625q-22 -8 -32 -16q-22 -21 -16 -28.5l13 -15.5l16 -18
q11 -11 28 -14q0 -7 -5 -18q-4 -6 -24 -8q-3 0 -15 5l-16 6q-12 5 -17 16q-12 23 -16 43q-1 5 -1 13t-1 19q0 50 32 69q13 9 25 9q43 0 48 -40q0 -17 -19 -22z" />
    <glyph glyph-name="uni1F54" unicode="&#x3c5;&#x313;&#x301;" horiz-adv-x="493" 
d="M198 3q-61 0 -93 64q-17 37 -29 118l-16 125q-5 38 -21 51q-20 18 -21 23q-1 3 -1 8q0 13 11 27q15 18 48 18q20 0 42 -22q7 -7 17 -126q5 -68 8 -105t5 -44q10 -62 36 -72q23 -9 41 -10q3 -1 8 -1q7 0 16 -1q55 -3 79 31q18 22 26 86q6 38 9 126q1 32 3 53t4 31
q11 53 51 55q23 0 40.5 -13t18.5 -35q1 -15 -22 -27q-12 -7 -17 -21q-6 -23 -19 -146q-5 -43 -11.5 -74.5t-15.5 -50.5q-31 -68 -97 -68h-100zM122 647q4 40 48 40q30 0 47 -35q9 -17 9 -43v-13t-1 -19q-2 -11 -6 -22t-9 -21q-6 -11 -17 -16l-16 -6q-13 -5 -17 -5
q-19 2 -23 8q-5 12 -5 18q6 -2 28 14l17 19l12 14q6 8 -16 29q-3 3 -31 16q-20 7 -20 22zM319 668q5 20 29 21q47 0 50 -36q1 -10 -3 -17l-101 -147l-26 7z" />
    <glyph glyph-name="uni1F55" unicode="&#x3c5;&#x314;&#x301;" horiz-adv-x="493" 
d="M198 3q-61 0 -93 64q-17 37 -29 118l-16 125q-5 38 -21 51q-20 18 -21 23q-1 3 -1 8q0 13 11 27q15 18 48 18q20 0 42 -22q7 -7 17 -126q5 -68 8 -105t5 -44q10 -62 36 -72q23 -9 41 -10q3 -1 8 -1q7 0 16 -1q55 -3 79 31q18 22 26 86q6 38 9 126q1 32 3 53t4 31
q11 53 51 55q23 0 40.5 -13t18.5 -35q1 -15 -22 -27q-12 -7 -17 -21q-6 -23 -19 -146q-5 -43 -11.5 -74.5t-15.5 -50.5q-31 -68 -97 -68h-100zM354 668q5 20 31 21q46 0 48 -36q1 -10 -3 -17l-101 -147l-24 7zM235 625q-23 -8 -32 -16q-22 -21 -16.5 -28.5t12.5 -15.5
t17 -18q11 -11 29 -14q0 -7 -6 -18q-4 -6 -24 -8q-4 0 -16 5l-15 6q-12 5 -17 16q-12 23 -16 43q-1 5 -1 13t-1 19q0 50 32 69q12 9 24 9q44 0 49 -40q0 -17 -19 -22z" />
    <glyph glyph-name="uni1F56" unicode="&#x3c5;&#x313;&#x342;" horiz-adv-x="493" 
d="M198 3q-61 0 -93 64q-17 37 -29 118l-16 125q-5 38 -21 51q-20 18 -21 23q-1 3 -1 8q0 13 11 27q15 18 48 18q20 0 42 -22q7 -7 17 -126q5 -68 8 -105t5 -44q10 -62 36 -72q23 -9 41 -10q3 -1 8 -1q7 0 16 -1q55 -3 79 31q18 22 26 86q6 38 9 126q1 32 3 53t4 31
q11 53 51 55q23 0 40.5 -13t18.5 -35q1 -15 -22 -27q-12 -7 -17 -21q-6 -23 -19 -146q-5 -43 -11.5 -74.5t-15.5 -50.5q-31 -68 -97 -68h-100zM184 591q4 30 48 30q18 0 25 -7q7 -2 23 -17q8 -19 8 -53v-9q0 -5 -1 -13q-2 -4 -6.5 -10t-9.5 -16q-4 -10 -17 -16l-16 -4
q-12 -7 -16 -7q-18 3 -22 10q-6 9 -6 16q6 -1 27 15q10 4 24 17q2 3 1 16q0 11 -6 17q-9 9 -35 15q-21 8 -21 16zM414 673q-9 -26 -37 -44q-30 -19 -57 -19q-19 0 -69 30q-7 3 -16.5 6t-21.5 8q-10 6 -21 6q-54 0 -76 -48l-20 33q25 63 97 66q20 0 64 -26q48 -30 63 -31
q24 0 45.5 14.5t30.5 36.5z" />
    <glyph glyph-name="uni1F57" unicode="&#x3c5;&#x314;&#x342;" horiz-adv-x="493" 
d="M198 3q-61 0 -93 64q-17 37 -29 118l-16 125q-5 38 -21 51q-20 18 -21 23q-1 3 -1 8q0 13 11 27q15 18 48 18q20 0 42 -22q7 -7 17 -126q5 -68 8 -105t5 -44q10 -62 36 -72q23 -9 41 -10q3 -1 8 -1q7 0 16 -1q55 -3 79 31q18 22 26 86q6 38 9 126q1 32 3 53t4 31
q11 53 51 55q23 0 40.5 -13t18.5 -35q1 -15 -22 -27q-12 -7 -17 -21q-6 -23 -19 -146q-5 -43 -11.5 -74.5t-15.5 -50.5q-31 -68 -97 -68h-100zM276 575q-25 -6 -35 -15q-5 -5 -6 -17q-3 -17 11 -22q7 -3 14 -11q10 -12 27 -15q0 -7 -6 -16q-3 -7 -22 -10q-4 0 -16 7l-16 4
q-10 6 -17 16q-6 5 -15 26q-1 5 -1 11t-1 11q0 34 8 53q3 4 23 17q12 9 26 9q24 0 35 -14q6 -4 12 -18q0 -8 -21 -16zM417 673q-10 -26 -39 -44q-29 -19 -56 -19q-19 0 -69 30q-7 3 -16.5 6t-22.5 8q-10 6 -20 6q-54 0 -77 -48l-19 33q24 63 97 66q19 0 64 -26
q48 -30 63 -31q24 0 45.5 14.5t30.5 36.5z" />
    <glyph glyph-name="uni1F59" unicode="&#x3a5;&#x314;" horiz-adv-x="865" 
d="M492 394l227 292h110l-288 -353v-333h-97v333l-290 353h112zM86 625q-24 -8 -32 -16q-22 -21 -16 -29q5 -7 12.5 -15l16.5 -18q12 -11 28 -14q0 -7 -6 -18q-4 -6 -23 -8q-3 0 -16 5l-16 6q-11 5 -16 16q-11 20 -15 43q-1 5 -1 13t-1 19q-1 50 31 69q12 9 25 9
q43 0 47 -40q0 -17 -18 -22z" />
    <glyph glyph-name="uni1F5B" unicode="&#x3a5;&#x314;&#x300;" horiz-adv-x="1017" 
d="M644 392l227 294h110l-289 -355v-331h-96v331l-290 355h112zM162 636q-5 9 -4 17q3 36 49 36q25 -1 31 -21l49 -172l-24 -7zM85 625q-22 -8 -32 -16q-21 -21 -15.5 -28.5t12.5 -15.5l16 -18q12 -11 29 -14q0 -7 -6 -18q-4 -6 -24 -8q-3 0 -15 5l-15 6q-13 5 -17 16
q-13 23 -16 43q-1 5 -1 13t-1 19q0 50 32 69q12 9 24 9q44 0 49 -40q0 -17 -20 -22z" />
    <glyph glyph-name="uni1F5D" unicode="&#x3a5;&#x314;&#x301;" horiz-adv-x="1060" 
d="M687 392l227 294h110l-288 -355v-331h-96v331l-291 355h112zM205 668q5 20 31 21q46 0 48 -36q1 -10 -3 -17l-101 -147l-24 7zM86 625q-23 -8 -32 -16q-22 -21 -16.5 -28.5t13 -15.5l16.5 -18q12 -11 29 -14q0 -7 -6 -18q-4 -6 -24 -8q-4 0 -16 5l-15 6q-12 5 -17 16
q-12 23 -16 43q-1 5 -1 13t-1 19q0 50 32 69q12 9 25 9q43 0 48 -40q0 -17 -19 -22z" />
    <glyph glyph-name="uni1F5F" unicode="&#x3a5;&#x314;&#x342;" horiz-adv-x="1110" 
d="M737 392l227 294h110l-288 -355v-331h-97v331l-290 355h112zM178 575q-25 -6 -35 -15q-4 -5 -5 -17q-3 -17 10 -22q7 -3 14 -11q10 -12 27 -15q0 -7 -6 -16q-3 -7 -22 -10q-4 0 -16 7l-16 4q-9 6 -17 16q-6 5 -15 26q-1 5 -1 11t-1 11q0 34 8 53q3 4 23 17q13 9 26 9
q24 0 35 -14q6 -4 13 -18q0 -8 -22 -16zM319 673q-10 -26 -38 -44q-30 -19 -56 -19q-20 0 -70 30q-7 3 -16.5 6t-21.5 8q-11 6 -21 6q-54 0 -77 -48l-19 33q24 63 97 66q20 0 64 -26q48 -30 64 -31q23 0 44.5 14.5t30.5 36.5z" />
    <glyph glyph-name="uni1F60" unicode="&#x3c9;&#x313;" horiz-adv-x="825" 
d="M450 234q0 -7 -1 -11v-10q0 -93 25 -123q8 -4 41 -22q29 -16 61 -16q10 0 19.5 0.5t17.5 1.5q25 3 50 33q25 31 30 53q2 6 4 20t4 35q0 10 1 13q0 76 -43 114q-31 27 -116 53q-25 17 -25 30q0 11 23 16q14 3 38 3q99 0 153 -67q51 -61 51 -161q0 -117 -53 -167
q-53 -47 -169 -48q-29 0 -71 21q-11 7 -30 18l-45 26l-30.5 -18t-50.5 -28q-18 -9 -39.5 -13.5t-45.5 -5.5q-206 -2 -207 215q0 102 50 162q54 63 155 66q10 0 20.5 -1t23.5 -3q17 -3 17 -15q1 -11 -25 -30q-77 -24 -114 -55q-50 -43 -45 -112v-32q4 -45 39 -89
q23 -28 55 -31q5 -1 11 -2t14 -2q33 0 59 12q15 3 46 21q27 30 27 135v14q0 4 10 7q4 0 10 0.5t15 1.5q40 0 40 -9zM370 647q3 40 47 40q31 0 48 -35q8 -17 8 -43v-13t-1 -19q-2 -11 -6 -22t-9 -21q-5 -11 -17 -16l-16 -6q-13 -5 -17 -5q-19 2 -22 8q-5 12 -5 18q5 -2 27 14
l17.5 19t11.5 14q7 8 -16 29q-3 3 -31 16q-19 7 -19 22z" />
    <glyph glyph-name="uni1F61" unicode="&#x3c9;&#x314;" horiz-adv-x="825" 
d="M450 234q0 -7 -1 -11v-10q0 -93 25 -123q8 -4 41 -22q29 -16 61 -16q10 0 19.5 0.5t17.5 1.5q25 3 50 33q25 31 30 53q2 6 4 20t4 35q0 10 1 13q0 76 -43 114q-31 27 -116 53q-25 17 -25 30q0 11 23 16q14 3 38 3q99 0 153 -67q51 -61 51 -161q0 -117 -53 -167
q-53 -47 -169 -48q-29 0 -71 21q-11 7 -30 18l-45 26l-30.5 -18t-50.5 -28q-18 -9 -39.5 -13.5t-45.5 -5.5q-206 -2 -207 215q0 102 50 162q54 63 155 66q10 0 20.5 -1t23.5 -3q17 -3 17 -15q1 -11 -25 -30q-77 -24 -114 -55q-50 -43 -45 -112v-32q4 -45 39 -89
q23 -28 55 -31q5 -1 11 -2t14 -2q33 0 59 12q15 3 46 21q27 30 27 135v14q0 4 10 7q4 0 10 0.5t15 1.5q40 0 40 -9zM413 625q-24 -8 -31 -16q-23 -21 -16 -29q5 -7 12.5 -15l16.5 -18q11 -11 27 -14q0 -7 -5 -18q-5 -6 -23 -8q-4 0 -16 5l-16 6q-11 5 -17 16q-11 20 -15 43
q-1 5 -1 13t-1 19q-1 50 31 69q13 9 26 9q42 0 47 -40q0 -17 -19 -22z" />
    <glyph glyph-name="uni1F62" unicode="&#x3c9;&#x313;&#x300;" horiz-adv-x="825" 
d="M450 234q0 -7 -1 -11v-10q0 -93 25 -123q8 -4 41 -22q29 -16 61 -16q10 0 19.5 0.5t17.5 1.5q25 3 50 33q25 31 30 53q2 6 4 20t4 35q0 10 1 13q0 76 -43 114q-31 27 -116 53q-25 17 -25 30q0 11 23 16q14 3 38 3q99 0 153 -67q51 -61 51 -161q0 -117 -53 -167
q-53 -47 -169 -48q-29 0 -71 21q-11 7 -30 18l-45 26l-30.5 -18t-50.5 -28q-18 -9 -39.5 -13.5t-45.5 -5.5q-206 -2 -207 215q0 102 50 162q54 63 155 66q10 0 20.5 -1t23.5 -3q17 -3 17 -15q1 -11 -25 -30q-77 -24 -114 -55q-50 -43 -45 -112v-32q4 -45 39 -89
q23 -28 55 -31q5 -1 11 -2t14 -2q33 0 59 12q15 3 46 21q27 30 27 135v14q0 4 10 7q4 0 10 0.5t15 1.5q40 0 40 -9zM241 647q3 40 48 40q30 0 47 -35q9 -17 9 -43v-13t-1 -19q-2 -11 -6.5 -22t-9.5 -21q-5 -11 -17 -16l-16 -6q-13 -5 -17 -5q-18 2 -22 8q-5 12 -5 18
q6 -2 27 14q11 11 18 19t11 14q7 8 -16 29q-2 3 -30 16q-20 7 -20 22zM400 636q-5 9 -4 17q3 36 49 36q26 -1 31 -21l49 -172l-24 -7z" />
    <glyph glyph-name="uni1F63" unicode="&#x3c9;&#x314;&#x300;" horiz-adv-x="825" 
d="M450 234q0 -7 -1 -11v-10q0 -93 25 -123q8 -4 41 -22q29 -16 61 -16q10 0 19.5 0.5t17.5 1.5q25 3 50 33q25 31 30 53q2 6 4 20t4 35q0 10 1 13q0 76 -43 114q-31 27 -116 53q-25 17 -25 30q0 11 23 16q14 3 38 3q99 0 153 -67q51 -61 51 -161q0 -117 -53 -167
q-53 -47 -169 -48q-29 0 -71 21q-11 7 -30 18l-45 26l-30.5 -18t-50.5 -28q-18 -9 -39.5 -13.5t-45.5 -5.5q-206 -2 -207 215q0 102 50 162q54 63 155 66q10 0 20.5 -1t23.5 -3q17 -3 17 -15q1 -11 -25 -30q-77 -24 -114 -55q-50 -43 -45 -112v-32q4 -45 39 -89
q23 -28 55 -31q5 -1 11 -2t14 -2q33 0 59 12q15 3 46 21q27 30 27 135v14q0 4 10 7q4 0 10 0.5t15 1.5q40 0 40 -9zM395 636q-4 9 -3 17q3 36 49 36q25 -1 31 -21l49 -172l-25 -7zM319 625q-22 -8 -32 -16q-22 -21 -16 -28.5l13 -15.5l16 -18q11 -11 28 -14q0 -7 -5 -18
q-4 -6 -24 -8q-3 0 -15 5l-16 6q-12 5 -17 16q-12 23 -16 43q-1 5 -1 13t-1 19q0 50 32 69q13 9 25 9q43 0 48 -40q0 -17 -19 -22z" />
    <glyph glyph-name="uni1F64" unicode="&#x3c9;&#x313;&#x301;" horiz-adv-x="825" 
d="M450 234q0 -7 -1 -11v-10q0 -93 25 -123q8 -4 41 -22q29 -16 61 -16q10 0 19.5 0.5t17.5 1.5q25 3 50 33q25 31 30 53q2 6 4 20t4 35q0 10 1 13q0 76 -43 114q-31 27 -116 53q-25 17 -25 30q0 11 23 16q14 3 38 3q99 0 153 -67q51 -61 51 -161q0 -117 -53 -167
q-53 -47 -169 -48q-29 0 -71 21q-11 7 -30 18l-45 26l-30.5 -18t-50.5 -28q-18 -9 -39.5 -13.5t-45.5 -5.5q-206 -2 -207 215q0 102 50 162q54 63 155 66q10 0 20.5 -1t23.5 -3q17 -3 17 -15q1 -11 -25 -30q-77 -24 -114 -55q-50 -43 -45 -112v-32q4 -45 39 -89
q23 -28 55 -31q5 -1 11 -2t14 -2q33 0 59 12q15 3 46 21q27 30 27 135v14q0 4 10 7q4 0 10 0.5t15 1.5q40 0 40 -9zM276 647q4 40 48 40q30 0 47 -35q9 -17 9 -43v-13t-1 -19q-2 -11 -6 -22t-9 -21q-6 -11 -17 -16l-16 -6q-13 -5 -17 -5q-19 2 -23 8q-5 12 -5 18q6 -2 28 14
l17 19l12 14q6 8 -16 29q-3 3 -31 16q-20 7 -20 22zM473 668q5 20 29 21q47 0 50 -36q1 -10 -3 -17l-101 -147l-26 7z" />
    <glyph glyph-name="uni1F65" unicode="&#x3c9;&#x314;&#x301;" horiz-adv-x="825" 
d="M450 234q0 -7 -1 -11v-10q0 -93 25 -123q8 -4 41 -22q29 -16 61 -16q10 0 19.5 0.5t17.5 1.5q25 3 50 33q25 31 30 53q2 6 4 20t4 35q0 10 1 13q0 76 -43 114q-31 27 -116 53q-25 17 -25 30q0 11 23 16q14 3 38 3q99 0 153 -67q51 -61 51 -161q0 -117 -53 -167
q-53 -47 -169 -48q-29 0 -71 21q-11 7 -30 18l-45 26l-30.5 -18t-50.5 -28q-18 -9 -39.5 -13.5t-45.5 -5.5q-206 -2 -207 215q0 102 50 162q54 63 155 66q10 0 20.5 -1t23.5 -3q17 -3 17 -15q1 -11 -25 -30q-77 -24 -114 -55q-50 -43 -45 -112v-32q4 -45 39 -89
q23 -28 55 -31q5 -1 11 -2t14 -2q33 0 59 12q15 3 46 21q27 30 27 135v14q0 4 10 7q4 0 10 0.5t15 1.5q40 0 40 -9zM490 668q5 20 31 21q46 0 48 -36q1 -10 -3 -17l-101 -147l-24 7zM371 625q-23 -8 -32 -16q-22 -21 -16.5 -28.5t12.5 -15.5t17 -18q11 -11 29 -14
q0 -7 -6 -18q-4 -6 -24 -8q-4 0 -16 5l-15 6q-12 5 -17 16q-12 23 -16 43q-1 5 -1 13t-1 19q0 50 32 69q12 9 24 9q44 0 49 -40q0 -17 -19 -22z" />
    <glyph glyph-name="uni1F66" unicode="&#x3c9;&#x313;&#x342;" horiz-adv-x="825" 
d="M450 234q0 -7 -1 -11v-10q0 -93 25 -123q8 -4 41 -22q29 -16 61 -16q10 0 19.5 0.5t17.5 1.5q25 3 50 33q25 31 30 53q2 6 4 20t4 35q0 10 1 13q0 76 -43 114q-31 27 -116 53q-25 17 -25 30q0 11 23 16q14 3 38 3q99 0 153 -67q51 -61 51 -161q0 -117 -53 -167
q-53 -47 -169 -48q-29 0 -71 21q-11 7 -30 18l-45 26l-30.5 -18t-50.5 -28q-18 -9 -39.5 -13.5t-45.5 -5.5q-206 -2 -207 215q0 102 50 162q54 63 155 66q10 0 20.5 -1t23.5 -3q17 -3 17 -15q1 -11 -25 -30q-77 -24 -114 -55q-50 -43 -45 -112v-32q4 -45 39 -89
q23 -28 55 -31q5 -1 11 -2t14 -2q33 0 59 12q15 3 46 21q27 30 27 135v14q0 4 10 7q4 0 10 0.5t15 1.5q40 0 40 -9zM348 591q4 30 48 30q18 0 25 -7q7 -2 23 -17q8 -19 8 -53v-9q0 -5 -1 -13q-2 -4 -6.5 -10t-9.5 -16q-4 -10 -17 -16l-16 -4q-12 -7 -16 -7q-18 3 -22 10
q-6 9 -6 16q6 -1 27 15q10 4 24 17q2 3 1 16q0 11 -6 17q-9 9 -35 15q-21 8 -21 16zM578 673q-9 -26 -37 -44q-30 -19 -57 -19q-19 0 -69 30q-7 3 -16.5 6t-21.5 8q-10 6 -21 6q-54 0 -76 -48l-20 33q25 63 97 66q20 0 64 -26q48 -30 63 -31q24 0 45.5 14.5t30.5 36.5z" />
    <glyph glyph-name="uni1F67" unicode="&#x3c9;&#x314;&#x342;" horiz-adv-x="825" 
d="M450 234q0 -7 -1 -11v-10q0 -93 25 -123q8 -4 41 -22q29 -16 61 -16q10 0 19.5 0.5t17.5 1.5q25 3 50 33q25 31 30 53q2 6 4 20t4 35q0 10 1 13q0 76 -43 114q-31 27 -116 53q-25 17 -25 30q0 11 23 16q14 3 38 3q99 0 153 -67q51 -61 51 -161q0 -117 -53 -167
q-53 -47 -169 -48q-29 0 -71 21q-11 7 -30 18l-45 26l-30.5 -18t-50.5 -28q-18 -9 -39.5 -13.5t-45.5 -5.5q-206 -2 -207 215q0 102 50 162q54 63 155 66q10 0 20.5 -1t23.5 -3q17 -3 17 -15q1 -11 -25 -30q-77 -24 -114 -55q-50 -43 -45 -112v-32q4 -45 39 -89
q23 -28 55 -31q5 -1 11 -2t14 -2q33 0 59 12q15 3 46 21q27 30 27 135v14q0 4 10 7q4 0 10 0.5t15 1.5q40 0 40 -9zM438 575q-25 -6 -35 -15q-5 -5 -6 -17q-3 -17 11 -22q7 -3 14 -11q10 -12 27 -15q0 -7 -6 -16q-3 -7 -22 -10q-4 0 -16 7l-16 4q-10 6 -17 16q-6 5 -15 26
q-1 5 -1 11t-1 11q0 34 8 53q3 4 23 17q12 9 26 9q24 0 35 -14q6 -4 12 -18q0 -8 -21 -16zM579 673q-10 -26 -39 -44q-29 -19 -56 -19q-19 0 -69 30q-7 3 -16.5 6t-22.5 8q-10 6 -20 6q-54 0 -77 -48l-19 33q24 63 97 66q19 0 64 -26q48 -30 63 -31q24 0 45.5 14.5
t30.5 36.5z" />
    <glyph glyph-name="uni1F68" unicode="&#x3a9;&#x313;" horiz-adv-x="1019" 
d="M311 0q-179 23 -179 271v26q0 118 63 271q47 115 87 117q27 1 51 -24q-18 -29 -33.5 -62.5t-30.5 -72.5q-16 -42 -25.5 -78t-13.5 -65q-5 -36 -6.5 -63.5l-2.5 -46.5q-1 -94 21 -138q29 -59 57 -65q13 -4 23 -6t17 -3q37 0 96 28q66 31 66 62v234q0 11 9 15q5 4 36 7
q42 0 44 -22v-234q0 -37 51 -61q62 -28 113 -29h-7q48 7 65 18q20 12 42 56q7 12 10.5 27.5t4.5 34.5q1 8 1 28v49v37q-1 3 -3 22t-7 54q-8 71 -39 144l-63 130q0 4 22 17q2 2 30 7q42 0 93 -132q20 -55 32.5 -98.5t16.5 -75.5q3 -36 5 -63t2 -46q0 -81 -33 -160
q-41 -96 -111 -104q-18 -2 -32.5 -4t-27.5 -3q-52 0 -114 25q-69 31 -92 71q-6 -19 -76 -57q-65 -38 -143 -38h-19zM0 640q3 40 48 40q30 0 47 -35q8 -18 8 -43v-13t-1 -19q-2 -11 -6 -22t-9 -21q-5 -11 -16 -16l-16 -6q-14 -5 -18 -5q-19 2 -22 8q-5 12 -5 18q5 -2 27 14
q11 10 18 18t12 15q6 8 -16 29q-3 3 -32 16q-19 7 -19 22z" />
    <glyph glyph-name="uni1F69" unicode="&#x3a9;&#x314;" horiz-adv-x="1039" 
d="M330 0q-179 23 -179 271v26q0 118 64 271q46 115 87 117q27 1 50 -24q-18 -29 -33.5 -62.5t-30.5 -72.5q-16 -42 -25.5 -78t-13.5 -65q-4 -36 -6 -63.5t-3 -46.5q-1 -94 21 -138q30 -59 57 -65q13 -4 23 -6t18 -3q37 0 95 28q66 31 66 62v234q0 11 10 15q4 4 36 7
q41 0 44 -22v-234q0 -37 51 -61q62 -28 112 -29h-7q49 7 65 18q20 12 43 56q7 12 10.5 27.5t4.5 34.5q1 8 1 28v49v37q-1 3 -3 22t-7 54q-9 71 -40 144l-62 130q0 4 22 17q2 2 30 7q42 0 92 -132q21 -55 33.5 -98.5t15.5 -75.5q4 -36 6 -63t2 -46q0 -81 -33 -160
q-42 -96 -112 -104q-18 -2 -32.5 -4t-26.5 -3q-52 0 -114 25q-70 31 -93 71q-5 -19 -75 -57q-66 -38 -144 -38h-19zM86 622q-24 -8 -32 -16q-22 -21 -16 -29q5 -7 12.5 -15l17.5 -18q11 -11 27 -14q0 -7 -5 -18q-5 -6 -23 -8q-4 0 -16 5l-17 6q-11 6 -16 16q-11 20 -15 43
q-1 5 -1 13t-1 19q-1 50 31 69q12 9 25 9q43 0 47 -40q0 -17 -18 -22z" />
    <glyph glyph-name="uni1F6A" unicode="&#x3a9;&#x313;&#x300;" horiz-adv-x="1225" 
d="M516 0q-179 23 -179 271v26q0 118 64 270q46 116 86 118q28 1 51 -24q-18 -30 -33.5 -63.5t-30.5 -71.5q-16 -43 -25.5 -78.5t-13.5 -65.5q-4 -35 -6 -62.5t-3 -46.5q-1 -94 21 -139q30 -58 57 -65q13 -4 23 -6t18 -3q37 0 95 28q66 31 66 62v234q0 12 9 15q5 4 37 7
q41 0 44 -22v-234q0 -36 51 -60q62 -29 112 -30h-7q49 7 65 19q20 12 43 55q7 12 10.5 28t4.5 35q1 7 1 27v50v36q-1 3 -3.5 22.5t-6.5 53.5q-9 71 -40 145q-2 3 -62 130q0 4 21 17q2 2 31 7q42 0 92 -133q21 -54 33 -97.5t16 -75.5q4 -36 6 -63.5t2 -45.5q0 -81 -34 -160
q-41 -96 -111 -105l-32.5 -3.5t-26.5 -2.5q-52 0 -114 25q-70 30 -93 71q-5 -19 -75 -58q-66 -37 -144 -37h-19zM0 647q4 40 48 40q30 0 47 -35q9 -17 9 -43v-13t-1 -19q-2 -11 -6.5 -22l-8.5 -21q-6 -11 -18 -16l-16 -6q-13 -5 -17 -5q-18 2 -22 8q-5 12 -5 18q6 -2 27 14
q11 11 18 19l12 14q6 8 -17 29q-2 3 -30 16q-20 7 -20 22zM159 636q-5 9 -4 17q3 36 49 36q27 -1 31 -21l49 -172l-24 -7z" />
    <glyph glyph-name="uni1F6B" unicode="&#x3a9;&#x314;&#x300;" horiz-adv-x="1240" 
d="M532 0q-179 23 -179 271v26q0 118 63 271q47 115 87 117q27 1 51 -24q-18 -29 -33.5 -62.5t-30.5 -72.5q-16 -42 -25.5 -78t-13.5 -65q-5 -36 -6.5 -63.5l-2.5 -46.5q-1 -94 21 -138q29 -59 57 -65q13 -4 23 -6t17 -3q37 0 96 28q66 31 66 62v234q0 11 9 15q5 4 36 7
q42 0 44 -22v-234q0 -37 52 -61q62 -28 112 -29h-7q48 7 65 18q20 12 42 56q7 12 11 27.5t5 34.5q1 8 1 28v49v37q-1 3 -3.5 22t-7.5 54q-8 71 -39 144l-63 130q0 4 22 17q2 2 30 7q42 0 93 -132q20 -55 32.5 -98.5t16.5 -75.5q3 -36 5 -63t2 -46q0 -81 -33 -160
q-41 -96 -111 -104q-18 -2 -32.5 -4t-27.5 -3q-51 0 -113 25q-70 31 -93 71q-6 -19 -75 -57q-66 -38 -144 -38h-19zM162 636q-4 9 -3 17q3 36 49 36q25 -1 31 -21l49 -172l-25 -7zM86 625q-22 -8 -32 -16q-22 -21 -16 -28.5l13 -15.5l16 -18q11 -11 28 -14q0 -7 -5 -18
q-4 -6 -24 -8q-3 0 -15 5l-16 6q-12 5 -17 16q-12 23 -16 43q-1 5 -1 13t-1 19q0 50 32 69q13 9 25 9q43 0 48 -40q0 -17 -19 -22z" />
    <glyph glyph-name="uni1F6C" unicode="&#x3a9;&#x313;&#x301;" horiz-adv-x="1168" 
d="M459 0q-179 23 -179 271v26q0 118 64 271q47 115 87 117q27 1 50 -24q-18 -29 -33.5 -62.5t-30.5 -72.5q-16 -42 -25.5 -78t-13.5 -65l-7 -63.5t-8 -45.5q-5 -91 27 -139q30 -59 57 -65q13 -4 23 -6t18 -3q37 0 95 28q66 31 66 62v234q0 11 10 15q5 4 36 7q41 0 44 -22
v-234q0 -37 51 -61q62 -28 112 -29h-7q49 7 65 18q20 12 43 56q7 12 10.5 27.5t4.5 34.5q1 8 1 28v49v37q-1 3 -3 22t-7 54q-9 71 -40 144l-62 130q0 4 22 17q2 2 30 7q42 0 92 -132q21 -55 33.5 -98.5t15.5 -75.5q4 -36 6 -63t2 -46q0 -81 -33 -160q-42 -96 -112 -104
q-18 -2 -32.5 -4t-26.5 -3q-52 0 -114 25q-70 31 -93 71q-5 -19 -75 -57q-66 -38 -144 -38h-19zM0 647q4 40 48 40q31 0 48 -35q8 -17 8 -43v-13t-1 -19q-2 -11 -6 -22t-9 -21q-5 -11 -17 -16l-16 -6q-13 -5 -17 -5q-19 2 -22 8q-5 12 -5 18q6 -2 27 14l17 19l12 14
q7 8 -16 29q-3 3 -31 16q-20 7 -20 22zM197 668q5 20 30 21q46 0 49 -36q1 -10 -3 -17l-101 -147l-26 7z" />
    <glyph glyph-name="uni1F6D" unicode="&#x3a9;&#x314;&#x301;" horiz-adv-x="1180" 
d="M471 0q-179 23 -179 271v26q0 118 63 271q47 115 87 117q28 1 51 -24q-18 -29 -33.5 -62.5t-30.5 -72.5q-16 -42 -25.5 -78t-13.5 -65q-4 -36 -6 -63.5t-3 -46.5q-1 -94 21 -138q30 -59 57 -65q13 -4 23 -6t17 -3q38 0 96 28q66 31 66 62v234q0 11 9 15q5 4 36 7
q42 0 44 -22v-234q0 -37 52 -61q62 -28 112 -29h-7q48 7 65 18q20 12 43 56q6 12 10 27.5t5 34.5q1 8 1 28v49v37q-1 3 -3.5 22t-7.5 54q-8 71 -39 144l-63 130q0 4 22 17q2 2 31 7q42 0 92 -132q20 -55 32.5 -98.5t16.5 -75.5q4 -36 6 -63t2 -46q0 -81 -34 -160
q-41 -96 -111 -104q-18 -2 -32.5 -4t-27.5 -3q-51 0 -113 25q-70 31 -93 71q-5 -19 -75 -57q-66 -38 -144 -38h-19zM205 668q5 20 31 21q46 0 48 -36q1 -10 -3 -17l-101 -147l-24 7zM86 625q-23 -8 -32 -16q-22 -21 -16.5 -28.5t13 -15.5l16.5 -18q12 -11 29 -14
q0 -7 -6 -18q-4 -6 -24 -8q-4 0 -16 5l-15 6q-12 5 -17 16q-12 23 -16 43q-1 5 -1 13t-1 19q0 50 32 69q12 9 25 9q43 0 48 -40q0 -17 -19 -22z" />
    <glyph glyph-name="uni1F6E" unicode="&#x3a9;&#x313;&#x342;" horiz-adv-x="1194" 
d="M485 0q-179 23 -179 271v26q0 118 64 271q46 115 87 117q27 1 50 -24q-18 -29 -33.5 -62.5t-30.5 -72.5q-16 -42 -25.5 -78t-13.5 -65q-4 -36 -6 -63.5t-3 -46.5q-1 -94 21 -138q30 -59 57 -65q13 -4 23 -6t18 -3q37 0 95 28q66 31 66 62v234q0 11 10 15q4 4 36 7
q41 0 44 -22v-234q0 -37 51 -61q62 -28 112 -29h-7q49 7 65 18q20 12 43 56q7 12 10.5 27.5t4.5 34.5q1 8 1 28v49v37q-1 3 -3 22t-7 54q-9 71 -40 144l-62 130q0 4 22 17q2 2 30 7q42 0 92 -132q21 -55 33.5 -98.5t15.5 -75.5q4 -36 6 -63t2 -46q0 -81 -33 -160
q-42 -96 -112 -104q-18 -2 -32.5 -4t-26.5 -3q-52 0 -114 25q-70 31 -93 71q-5 -19 -75 -57q-66 -38 -144 -38h-19zM89 591q4 30 48 30q18 0 25 -7q6 -2 23 -17q8 -19 8 -53q-1 -3 -1 -9q0 -5 -1 -13q-2 -4 -6 -10t-9 -16t-17 -16l-16 -4q-12 -7 -16 -7q-19 3 -23 10
q-5 9 -5 16q5 -1 27 15q10 4 24 17q2 3 1 16q0 11 -6 17q-9 9 -35 15q-21 8 -21 16zM319 673q-9 -26 -37 -44q-31 -19 -57 -19q-19 0 -69 30q-7 3 -16.5 6t-21.5 8q-11 6 -21 6q-54 0 -77 -48l-20 33q25 63 98 66q20 0 64 -26q48 -30 63 -31q24 0 45.5 14.5t30.5 36.5z" />
    <glyph glyph-name="uni1F6F" unicode="&#x3a9;&#x314;&#x342;" horiz-adv-x="1201" 
d="M492 0q-179 23 -179 271v26q0 118 64 271q47 115 87 117q27 1 50 -24q-18 -29 -33.5 -62.5t-30.5 -72.5q-16 -42 -25.5 -78t-13.5 -65q-4 -36 -6 -63.5t-3 -46.5q-1 -94 21 -138q30 -59 57 -65q13 -4 23 -6t18 -3q37 0 95 28q66 31 66 62v234q0 11 10 15q5 4 36 7
q41 0 44 -22v-234q0 -37 51 -61q62 -28 112 -29h-7q49 7 65 18q20 12 43 56q7 12 10.5 27.5t4.5 34.5q1 8 1 28v49v37q-1 3 -3 22t-7 54q-9 71 -40 144l-62 130q0 4 22 17q2 2 30 7q42 0 92 -132q21 -55 33.5 -98.5t15.5 -75.5q4 -36 6 -63t2 -46q0 -81 -33 -160
q-42 -96 -112 -104q-18 -2 -32.5 -4t-26.5 -3q-52 0 -114 25q-70 31 -93 71q-5 -19 -75 -57q-66 -38 -144 -38h-19zM178 575q-25 -6 -35 -15q-4 -5 -5 -17q-3 -17 10 -22q7 -3 14 -11q11 -12 28 -15q0 -7 -6 -16q-4 -7 -23 -10q-4 0 -16 7l-16 4q-9 6 -16 16q-6 5 -16 26
q-1 5 -1 11t-1 11q0 34 9 53q3 4 23 17q12 9 25 9q24 0 36 -14q6 -4 12 -18q0 -8 -22 -16zM319 673q-10 -26 -38 -44q-30 -19 -56 -19q-19 0 -70 30q-7 3 -16.5 6t-21.5 8q-10 6 -21 6q-53 0 -76 -48l-20 33q25 63 97 66q20 0 64 -26q49 -30 64 -31q23 0 45 14.5t30 36.5z
" />
    <glyph glyph-name="uni1F70" unicode="&#x3b1;&#x300;" horiz-adv-x="608" 
d="M135 208q4 -76 50 -118q4 -4 11 -9t17 -9q26 -9 35 -9q149 0 154 174q2 43 -27 84q-37 54 -101 55q-23 0 -66 -16q-25 -10 -39 -27q-31 -39 -34 -125zM498 0q-13 5 -29 29q-8 12 -35 25q-5 3 -20 4q-8 0 -55 -34q-35 -24 -103 -24q-198 0 -200 226q-2 103 59 160
q58 54 162 56q74 1 110 -27q40 -29 47 -29q3 0 19 9q4 3 11 9.5l18 17.5l29 17q4 3 25 3q24 0 28 -31q0 -5 -7 -11q-33 -16 -58 -47q-21 -27 -21 -127q-1 -50 21 -99t59 -81q4 -3 4 -6q0 -10 -19 -25q-26 -20 -45 -15zM151 636q-5 9 -4 17q3 36 49 36q26 -1 31 -21l49 -172
l-24 -7z" />
    <glyph glyph-name="uni1F72" unicode="&#x3b5;&#x300;" horiz-adv-x="374" 
d="M84 220q-1 11 -20 52q-15 34 -15 69q0 57 55 83q43 18 106 18h41q26 0 37 -5q21 -11 28 -17q10 -10 12 -29q1 -19 -15 -30q-5 -2 -12 -3q-7 3 -30 16q-21 11 -47 13q-44 0 -58 -4q-32 -8 -47 -43q-5 -17 -6 -32q-1 -22 7 -39q9 -21 31 -21h137q19 0 21 -24q1 -17 -8 -23
q-2 -1 -5.5 -2t-9.5 -3h-143q-13 0 -22 -23q-8 -20 -8 -34q0 -40 26 -60q6 -6 21 -13q10 -2 25.5 -2.5t39.5 -1.5q33 -1 49 7q10 7 16.5 12l11.5 9h8q21 0 23 -32q1 -19 -25 -37l-3 -1q-28 -17 -45 -20h-52q-62 0 -105 20q-52 26 -54 84q-1 33 10 60q3 12 25 56zM113 636
q-5 9 -4 17q3 36 49 36q26 -1 31 -21l49 -172l-24 -7z" />
    <glyph glyph-name="uni1F74" unicode="&#x3b7;&#x300;" horiz-adv-x="531" 
d="M286 441q61 0 107 -17q61 -26 65 -77q1 -10 2 -30.5t3 -49.5q2 -58 3 -129.5t1 -157.5v-129q0 -9 -10 -14q-6 -4 -32 -7q-39 0 -38 21l7 255q1 33 1.5 72t0.5 85v77q0 24 -44 39q-34 13 -63 13q-25 1 -71 -17q-53 -19 -51 -39q1 -8 2 -21t2 -34q2 -38 2.5 -86t1.5 -107
l1 -84q0 -4 -11 -10q-5 -1 -35 -2q-15 -1 -29 2q-11 4 -11 12l8 360q2 13 -16 21q-7 4 -14 5.5t-15 2.5q-9 0 -35 -16q0 4 -3 17q24 42 51 45q10 0 37 -15q25 -15 44 -13q13 1 29 5l38 10q44 13 72 13zM189 636q-5 9 -4 17q3 36 49 36q26 -1 31 -21l49 -172l-24 -7z" />
    <glyph glyph-name="uni1F76" unicode="&#x3b9;&#x300;" horiz-adv-x="250" 
d="M160 92q6 -20 29 -35l12.5 -10t13.5 -12q0 -22 -33 -35q-24 -7 -49 -7q-36 -2 -45 73q-2 18 -3 44.5t-1 61.5v50q0 -3 0 9q0 13 1 41q0 28 -1 49t-3 37q-4 10 -8 24.5l-9 33.5q0 10 15 16q2 0 23 5q14 3 21 3q11 0 19 -8l5.5 -9t4.5 -9q3 -4 5 -50q1 -13 1 -31v-41v-161
q0 -29 2 -39zM22 636q-5 9 -4 17q3 36 49 36q26 -1 31 -21l49 -172l-24 -7z" />
    <glyph glyph-name="uni1F78" unicode="&#x3bf;&#x300;" horiz-adv-x="534" 
d="M105 221q-1 -64 53 -115q50 -47 116 -47t115 48q49 50 51 116q1 62 -51 112q-53 49 -117 51q-64 1 -115 -50q-50 -49 -52 -115zM271 441q95 2 166 -59q72 -63 74 -157q0 -96 -69 -161q-67 -65 -163 -65t-166 59q-73 62 -73 158q-1 95 67 159q67 64 164 66zM175 636
q-5 9 -4 17q3 36 49 36q26 -1 31 -21l49 -172l-24 -7z" />
    <glyph glyph-name="uni1F7A" unicode="&#x3c5;&#x300;" horiz-adv-x="493" 
d="M198 3q-61 0 -93 64q-17 37 -29 118l-16 125q-5 38 -21 51q-20 18 -21 23q-1 3 -1 8q0 13 11 27q15 18 48 18q20 0 42 -22q7 -7 17 -126q5 -68 8 -105t5 -44q10 -62 36 -72q23 -9 41 -10q3 -1 8 -1q7 0 16 -1q55 -3 79 31q18 22 26 86q6 38 9 126q1 32 3 53t4 31
q11 53 51 55q23 0 40.5 -13t18.5 -35q1 -15 -22 -27q-12 -7 -17 -21q-6 -23 -19 -146q-5 -43 -11.5 -74.5t-15.5 -50.5q-31 -68 -97 -68h-100zM154 636q-5 9 -4 17q3 36 49 36q26 -1 31 -21l49 -172l-24 -7z" />
    <glyph glyph-name="uni1F7C" unicode="&#x3c9;&#x300;" horiz-adv-x="825" 
d="M450 234q0 -7 -1 -11v-10q0 -93 25 -123q8 -4 41 -22q29 -16 61 -16q10 0 19.5 0.5t17.5 1.5q25 3 50 33q25 31 30 53q2 6 4 20t4 35q0 10 1 13q0 76 -43 114q-31 27 -116 53q-25 17 -25 30q0 11 23 16q14 3 38 3q99 0 153 -67q51 -61 51 -161q0 -117 -53 -167
q-53 -47 -169 -48q-29 0 -71 21q-11 7 -30 18l-45 26l-30.5 -18t-50.5 -28q-18 -9 -39.5 -13.5t-45.5 -5.5q-206 -2 -207 215q0 102 50 162q54 63 155 66q10 0 20.5 -1t23.5 -3q17 -3 17 -15q1 -11 -25 -30q-77 -24 -114 -55q-50 -43 -45 -112v-32q4 -45 39 -89
q23 -28 55 -31q5 -1 11 -2t14 -2q33 0 59 12q15 3 46 21q27 30 27 135v14q0 4 10 7q4 0 10 0.5t15 1.5q40 0 40 -9zM296 636q-5 9 -4 17q3 36 49 36q26 -1 31 -21l49 -172l-24 -7z" />
    </font>
</defs>
</svg>
